{"glyphs":{"0":{"ha":758,"x_min":0,"x_max":765,"o":"m 398 631 l 398 780 q 606 694 540 775 l 606 694 l 608 697 l 608 694 l 606 692 q 656 534 656 616 l 656 534 l 656 253 q 606 98 656 158 l 606 98 l 600 98 l 600 95 l 603 86 l 583 70 l 581 70 l 581 75 l 575 75 l 572 67 l 575 59 q 398 1 530 10 l 398 1 l 398 149 q 478 258 478 176 l 478 258 l 478 542 q 398 631 462 622 l 398 631 z m 589 725 l 597 736 l 603 736 q 611 730 603 730 l 611 730 l 611 722 l 606 722 q 600 730 600 722 l 600 730 l 597 730 l 597 725 l 589 725 z m 503 606 l 492 606 l 495 589 l 500 589 l 498 592 l 498 595 l 503 606 z m 556 583 l 548 583 l 553 578 l 556 581 l 556 583 z m 583 253 l 572 253 l 572 248 l 589 248 l 589 241 l 592 241 l 592 248 l 583 253 z m 359 781 l 359 632 q 279 543 296 623 l 279 543 l 279 259 q 359 149 279 177 l 359 149 l 359 1 q 182 59 228 11 l 182 59 l 184 68 l 182 76 l 176 76 l 176 71 l 174 71 l 155 87 l 157 96 l 157 98 l 152 98 q 102 254 102 159 l 102 254 l 102 534 q 152 692 102 616 l 152 692 l 149 695 l 149 698 l 152 695 q 359 781 218 775 l 359 781 z m 160 736 l 168 726 l 160 726 l 160 731 l 157 731 q 152 723 157 723 l 152 723 l 146 723 l 146 731 q 155 736 155 731 l 155 736 l 160 736 z m 210 490 l 185 490 l 198 472 l 198 468 l 191 463 l 203 463 l 210 490 z m 210 584 l 201 584 l 201 581 l 204 578 l 210 584 z m 184 254 l 174 254 l 165 248 l 165 242 l 168 242 l 168 248 l 184 248 l 184 254 z m 765 1153 l 0 1153 l 0 -280 l 765 -280 l 765 1153 z "},"1":{"ha":525,"x_min":0,"x_max":536,"o":"m 158 673 l 150 650 l 150 625 l 158 631 l 163 631 l 176 628 l 176 631 l 174 633 l 161 673 l 158 673 z m 102 486 l 102 621 l 103 625 l 102 625 l 102 682 l 210 780 l 210 583 l 102 486 z m 246 774 l 252 780 l 418 780 l 423 774 l 423 711 l 418 705 l 412 705 q 398 722 412 712 l 398 722 l 398 727 l 395 727 l 393 724 l 390 724 l 407 699 l 393 688 l 395 688 l 420 702 l 423 699 l 423 354 l 410 354 l 395 362 q 385 351 395 351 l 385 351 q 379 335 385 335 l 379 335 l 365 335 l 357 340 l 351 332 l 354 329 l 370 329 l 370 323 q 393 310 383 323 l 393 310 l 398 318 q 390 323 390 318 l 390 323 l 390 340 l 407 340 l 412 335 l 412 321 q 404 315 404 321 l 404 315 q 423 301 415 315 l 423 301 l 423 268 l 404 246 l 418 246 l 418 257 l 423 257 l 423 136 q 410 124 418 124 l 410 124 l 415 119 l 423 121 l 423 45 l 418 45 q 412 58 418 58 l 412 58 l 395 66 l 395 64 q 412 56 395 59 l 412 56 l 415 41 l 415 39 l 407 31 l 401 31 l 385 45 l 385 41 l 398 25 l 395 17 l 398 17 q 415 28 415 17 l 415 28 l 423 28 l 423 5 l 418 0 l 401 0 l 393 5 l 387 0 l 368 0 q 362 8 362 0 l 362 8 l 345 8 q 340 0 345 0 l 340 0 l 326 0 l 309 14 l 307 14 l 307 0 l 274 0 l 274 8 l 257 8 l 257 5 l 263 5 l 263 0 l 252 0 l 246 5 l 246 8 l 252 17 l 252 31 l 246 31 l 246 56 l 257 72 q 249 80 257 80 l 249 80 l 246 83 l 246 102 l 252 108 l 263 108 l 271 102 l 279 102 l 277 105 l 263 111 l 257 127 l 252 127 l 252 113 l 246 113 l 246 218 l 252 224 l 254 224 l 271 218 l 271 216 l 285 218 l 307 218 q 296 224 307 224 l 296 224 l 296 229 l 277 229 l 271 235 l 274 246 q 263 277 263 246 l 263 277 l 260 273 l 252 273 l 246 279 l 246 301 l 254 301 l 252 304 l 252 307 l 254 315 l 246 329 l 246 774 z m 307 766 l 301 772 l 296 763 l 298 763 l 307 766 z m 334 747 l 332 747 l 332 741 l 334 739 l 340 739 l 340 741 l 334 747 z m 351 711 l 332 702 l 332 699 l 365 686 l 368 683 l 370 683 l 368 696 l 368 702 l 373 711 l 351 711 z m 385 683 l 373 683 l 379 677 l 385 677 l 385 683 z m 263 677 l 260 677 l 260 671 l 266 666 l 269 669 l 269 671 l 263 677 z m 404 459 l 401 459 l 401 434 l 407 434 l 410 442 l 404 459 z m 415 393 l 412 393 l 407 378 l 407 376 l 418 378 l 415 393 z m 274 376 l 269 376 l 269 362 l 274 362 l 274 376 z m 351 362 l 351 362 l 357 357 q 385 373 381 365 l 385 373 l 382 376 q 351 362 368 362 z m 307 362 l 301 362 l 301 357 l 307 351 l 307 362 z m 252 351 l 252 351 l 266 340 l 274 340 q 252 351 274 347 z m 323 346 l 317 346 l 317 335 l 326 335 l 326 338 l 323 346 z m 418 349 l 423 349 l 423 321 l 418 321 l 418 326 l 415 346 l 418 349 z m 334 307 l 329 307 l 329 304 l 357 285 l 357 296 q 342 321 342 305 l 342 321 q 334 307 338 321 l 334 307 z m 260 304 l 260 304 l 260 301 q 277 290 269 301 l 277 290 l 279 290 l 288 298 l 279 313 l 277 313 q 260 304 267 304 z m 312 313 l 307 313 l 304 296 l 312 288 l 312 282 l 298 279 l 290 279 l 285 265 l 285 262 l 290 257 l 293 257 l 307 260 l 309 246 l 312 246 l 312 262 q 317 273 317 262 l 317 273 l 321 277 l 323 277 l 334 273 l 334 277 q 317 288 334 282 l 317 288 l 315 301 l 315 304 l 321 304 l 321 307 q 312 313 312 307 l 312 313 z m 418 298 l 401 296 l 401 290 l 418 290 l 418 298 z m 387 273 l 370 260 l 362 262 l 362 252 l 370 252 q 390 268 370 262 l 390 268 l 390 273 l 387 273 z m 249 262 l 249 265 q 263 249 263 264 l 263 249 q 252 235 252 243 l 252 235 l 246 235 l 246 260 l 249 262 z m 393 243 l 382 240 l 382 235 q 393 243 393 239 l 393 243 z m 332 240 l 321 229 l 329 229 l 332 232 l 334 232 l 332 240 z m 357 229 l 349 229 l 349 227 q 368 213 349 222 l 368 213 l 368 218 q 359 227 359 218 l 359 227 l 357 229 z m 312 205 l 312 205 l 312 202 q 323 191 323 202 l 323 191 l 329 191 q 342 213 329 203 l 342 213 q 312 205 312 210 z m 373 208 l 365 205 l 365 202 l 376 202 l 373 205 l 373 208 z m 274 205 l 274 205 q 269 194 274 194 l 269 194 l 260 197 l 257 194 l 257 185 q 266 177 266 185 l 266 177 l 269 177 q 282 191 269 191 l 282 191 l 290 191 q 274 205 285 201 z m 370 166 l 370 166 l 370 163 l 373 163 q 395 174 374 174 l 395 174 l 395 185 q 370 166 370 177 z m 301 180 l 296 174 l 301 174 l 307 180 l 301 180 z m 415 169 l 407 169 l 404 157 l 412 157 l 415 169 z m 315 141 l 312 141 l 312 136 q 304 130 304 136 l 304 130 l 312 130 l 315 138 l 315 141 z m 290 130 l 285 124 l 293 124 l 298 130 l 290 130 z m 329 80 l 315 72 l 315 69 l 321 69 q 329 75 321 75 l 329 75 l 329 80 z m 345 80 l 345 80 l 345 77 l 351 69 l 351 64 q 340 56 351 56 l 340 56 l 340 53 l 354 53 l 357 66 q 345 80 351 79 z m 301 69 l 293 69 l 293 64 l 296 64 l 301 69 z m 323 41 l 309 41 l 315 36 l 323 36 l 323 41 z m 296 31 l 285 25 l 290 17 l 298 20 l 296 31 z m 379 25 l 370 25 l 370 20 l 379 20 l 379 25 z m 418 349 l 423 349 l 423 321 l 418 321 l 418 326 l 415 346 l 418 349 z m 249 262 l 249 265 q 263 249 263 264 l 263 249 q 252 235 252 243 l 252 235 l 246 235 l 246 260 l 249 262 z m 536 1153 l 0 1153 l 0 -280 l 536 -280 l 536 1153 z "},"2":{"ha":620,"x_min":0,"x_max":625,"o":"m 412 479 l 412 479 q 408 481 410 480 l 408 481 q 399 477 404 479 l 399 477 l 404 477 l 405 477 q 412 479 410 478 z m 327 731 l 327 731 l 321 736 l 319 736 q 327 731 319 731 z m 449 505 l 449 505 l 448 529 l 446 529 l 436 517 l 439 515 l 439 509 l 428 506 l 428 500 l 431 503 l 434 500 l 439 501 l 442 504 l 445 504 l 448 501 q 449 505 448 503 z m 273 354 l 273 354 l 279 354 l 279 362 q 273 354 273 362 z m 253 311 l 257 312 l 256 317 l 253 317 l 253 311 z m 258 307 l 253 311 l 253 307 l 258 307 l 258 307 l 258 307 z m 264 301 l 259 296 l 270 296 l 270 302 l 264 301 z m 288 334 l 288 334 q 286 327 285 332 l 286 327 l 289 313 l 281 304 l 284 302 l 287 302 l 297 313 q 290 335 291 321 l 290 335 q 288 334 289 335 l 288 334 l 288 334 q 288 334 288 334 z m 293 410 l 294 401 l 304 408 l 304 410 l 293 410 z m 322 389 l 326 376 l 331 376 l 328 389 l 327 397 l 321 397 l 322 389 z m 340 426 l 340 426 l 353 427 l 353 435 l 351 435 q 340 426 340 430 z m 350 387 l 350 384 l 353 385 l 377 393 l 377 397 q 362 412 366 397 l 362 412 l 354 410 l 355 396 l 350 387 z m 355 324 l 358 316 l 363 321 l 363 327 l 355 324 z m 357 465 l 358 463 l 361 463 q 379 479 360 470 l 379 479 l 382 482 l 382 485 l 379 488 l 376 487 q 357 465 359 481 l 357 465 z m 360 542 l 361 528 l 366 529 l 366 543 l 360 542 z m 380 403 l 382 400 q 393 408 393 404 l 393 408 l 390 411 l 382 411 l 382 406 l 380 403 z m 388 454 l 388 454 l 396 461 l 421 454 l 421 456 l 412 489 q 388 454 388 475 z m 392 505 l 387 499 l 389 499 l 395 505 l 392 505 z m 397 425 l 395 411 l 418 409 l 420 412 l 420 422 l 397 428 l 397 425 z m 412 503 l 412 498 l 425 500 l 425 503 l 412 503 z m 413 533 l 418 528 l 427 528 l 427 534 l 413 533 z m 273 370 l 273 370 l 267 365 l 267 362 q 273 370 273 362 z m 385 435 l 385 435 l 385 430 q 393 429 388 430 l 393 429 l 393 431 q 385 435 388 433 z m 326 322 l 330 321 l 330 323 l 327 323 l 326 322 z m 288 334 l 288 334 q 285 335 286 335 l 285 335 l 279 334 l 279 332 l 285 332 q 288 334 285 333 l 288 334 q 288 334 288 334 z m 454 550 l 454 550 l 479 550 l 479 552 l 467 563 l 465 560 l 459 560 l 456 571 l 451 571 l 454 568 l 451 566 l 451 560 l 454 557 l 454 555 l 451 552 q 454 550 452 551 z m 310 731 l 310 731 l 310 726 l 319 726 q 310 731 319 731 z m 178 764 l 164 775 l 164 761 l 178 764 z m 274 753 l 263 753 l 263 747 l 274 750 l 274 753 z m 258 742 l 252 747 l 252 736 l 258 736 l 258 742 z m 120 734 l 117 734 l 117 731 l 123 726 l 131 728 l 131 731 l 120 734 z m 269 718 l 260 726 l 258 723 l 258 720 l 269 709 q 291 715 277 715 l 291 715 q 283 720 291 720 l 283 720 l 269 718 z m 366 709 l 357 709 l 363 699 l 366 699 l 366 709 z m 343 682 l 330 679 l 330 673 l 343 676 l 352 676 l 352 682 l 343 682 z m 380 662 l 380 662 l 380 648 l 388 648 l 388 651 q 380 662 383 662 z m 340 654 l 338 654 l 338 651 l 346 626 l 349 626 q 366 640 349 637 l 366 640 l 363 648 l 349 648 l 340 654 z m 277 651 l 269 648 l 274 643 l 279 643 l 277 651 z m 418 643 l 415 643 l 415 640 q 431 621 423 640 l 431 621 l 434 618 l 437 618 l 439 621 l 439 623 q 418 643 434 640 l 418 643 z m 495 637 l 481 637 l 481 631 l 495 631 l 495 637 z m 355 623 l 352 621 q 360 610 355 610 l 360 610 l 363 612 l 363 621 l 357 621 l 355 623 z m 407 612 l 407 612 l 412 604 l 404 579 l 407 579 l 439 587 q 407 612 427 612 z m 456 607 l 451 612 l 451 610 l 456 604 l 456 607 z m 376 604 l 363 607 l 360 585 l 363 582 l 374 582 l 380 604 l 376 604 z m 454 587 l 448 587 l 451 574 l 454 574 l 454 587 z m 484 585 l 479 579 l 479 571 l 484 571 l 484 585 z m 357 552 l 349 549 l 349 544 l 360 549 l 360 552 l 357 552 z m 389 473 l 391 473 l 391 476 l 385 476 l 389 473 z m 340 402 l 340 402 q 342 398 342 400 l 342 398 l 346 397 l 346 399 q 340 402 346 400 z m 237 267 l 232 269 l 227 264 l 230 264 l 237 267 z m 220 241 l 217 241 l 217 238 l 220 237 l 225 237 l 225 238 l 220 241 z m 201 191 l 183 187 l 183 186 l 213 180 l 215 178 l 217 178 l 215 184 l 215 187 l 220 191 l 201 191 z m 254 288 l 244 288 l 249 284 l 254 284 l 254 288 z m 268 332 l 260 332 l 260 330 l 263 330 l 268 332 z m 288 319 l 275 319 l 279 316 l 288 316 l 288 319 z m 257 312 l 258 307 l 266 308 l 263 313 l 257 312 z m 253 311 l 253 311 l 252 311 l 253 311 z m 275 422 l 279 422 l 285 431 l 281 432 l 328 511 q 336 525 333 517 l 336 525 q 343 563 343 541 l 343 563 l 346 582 l 340 582 l 340 604 l 335 604 l 338 602 l 338 598 l 335 595 l 332 595 q 252 631 307 631 l 252 631 l 109 631 l 103 637 l 103 772 l 109 778 l 269 778 q 506 646 456 778 l 506 646 q 517 585 517 619 l 517 585 l 509 582 l 509 579 q 517 571 517 579 l 517 571 q 515 550 516 559 l 515 550 l 518 550 l 513 543 q 512 536 513 539 l 512 536 l 503 523 l 502 527 l 496 517 l 499 517 l 488 503 l 488 505 l 481 496 l 483 495 l 480 492 q 481 496 481 494 l 481 496 l 266 161 l 102 161 l 252 383 l 253 384 l 275 422 z m 103 138 l 110 143 l 184 143 l 191 138 l 184 132 l 184 123 l 187 123 q 197 143 197 123 l 197 143 l 250 143 l 252 140 l 256 143 l 296 143 q 305 130 298 130 l 305 130 l 309 132 l 311 132 l 309 135 l 309 143 l 385 143 l 385 135 l 389 138 l 391 135 l 398 135 l 398 138 l 395 140 l 395 143 l 507 143 l 513 138 l 513 5 l 507 0 l 426 0 l 426 8 q 420 0 420 8 l 420 0 l 243 0 l 233 5 l 225 0 l 110 0 l 103 5 l 103 27 l 106 31 l 103 33 l 103 118 l 110 118 l 110 126 l 103 126 l 103 138 z m 138 113 l 132 107 l 141 102 l 144 110 l 141 113 l 138 113 z m 391 104 l 389 104 q 370 94 389 94 l 370 94 l 367 96 l 364 85 l 382 85 l 391 102 l 391 104 z m 246 91 l 237 96 l 233 85 l 240 85 l 246 91 z m 174 85 l 168 85 l 168 75 l 174 80 l 174 85 z m 361 80 l 351 72 l 361 72 l 361 80 z m 128 66 l 128 66 l 125 64 l 125 60 l 128 58 l 132 58 l 134 60 l 144 50 l 144 33 l 147 33 l 157 36 l 157 39 q 128 66 148 56 z m 243 36 l 231 36 l 231 31 l 237 31 l 243 36 z m 151 31 l 138 31 l 138 24 l 144 24 l 151 31 z m 311 31 l 305 31 l 299 14 l 302 14 l 311 22 l 311 31 z m 163 19 l 159 19 l 159 8 l 163 8 l 165 16 l 163 19 z m 355 14 l 349 14 l 349 8 l 355 3 l 355 14 z m 625 1153 l 0 1153 l 0 -280 l 625 -280 l 625 1153 z "},"3":{"ha":639,"x_min":0,"x_max":647,"o":"m 251 473 q 292 486 252 486 l 292 486 q 342 563 342 507 l 342 563 l 345 582 l 339 582 l 339 604 l 334 604 l 336 602 l 336 598 l 334 595 l 331 595 q 251 631 306 631 l 251 631 l 107 631 l 102 637 l 102 772 l 107 778 l 267 778 q 505 646 455 778 l 505 646 q 515 585 515 619 l 515 585 l 507 582 l 507 579 q 515 571 515 579 l 515 571 q 502 522 511 522 l 502 522 l 499 538 l 486 538 l 483 536 l 480 536 l 474 541 l 474 547 l 477 549 l 477 552 l 466 563 l 463 560 l 458 560 l 455 571 l 450 571 l 452 568 l 450 566 l 450 560 l 452 557 l 452 555 l 450 552 q 471 522 463 544 l 471 522 l 471 516 l 469 496 l 455 499 l 452 499 l 463 486 l 444 486 l 447 458 l 438 455 l 438 447 l 444 439 l 419 425 q 405 439 405 425 l 405 439 l 383 439 l 383 430 q 427 408 397 430 l 427 408 q 441 403 427 403 l 441 403 q 460 378 460 393 l 460 378 q 524 300 494 378 l 524 300 l 521 298 q 534 256 532 298 l 534 256 q 526 251 526 256 l 526 251 q 537 232 537 246 l 537 232 l 534 232 l 537 229 q 518 163 533 163 l 518 163 l 524 152 l 518 140 l 499 143 l 496 143 l 488 138 q 474 146 474 142 l 474 146 l 474 149 l 477 152 l 477 155 l 474 155 l 460 149 l 460 143 q 480 132 460 136 l 480 132 l 480 124 l 471 116 l 458 116 l 452 110 l 452 104 q 486 83 461 104 l 486 83 q 414 33 441 33 l 414 33 q 372 14 414 28 l 372 14 q 355 31 366 14 l 355 31 l 347 28 l 347 31 l 345 39 l 347 47 l 334 47 l 326 53 l 326 50 q 345 5 343 28 l 345 5 l 298 3 l 295 3 q 290 20 290 3 l 290 20 q 281 33 281 20 l 281 33 l 278 33 l 278 17 q 262 11 262 15 l 262 11 l 264 3 l 262 0 l 107 0 l 102 5 l 102 140 l 107 146 l 218 146 l 229 138 l 231 138 l 229 140 l 229 143 l 245 149 l 254 149 q 259 140 254 140 l 259 140 l 264 140 q 284 152 264 152 l 284 152 l 326 168 l 328 149 l 328 140 l 334 140 q 353 124 334 134 l 353 124 l 369 124 l 369 135 q 361 140 361 135 l 361 140 l 361 149 l 363 163 l 369 163 q 374 152 374 163 l 374 152 l 378 152 l 380 165 l 350 182 l 345 188 l 345 196 q 355 224 345 206 l 355 224 l 355 256 l 358 259 l 342 300 l 353 295 l 355 298 l 355 306 l 336 306 l 326 317 l 328 320 l 328 323 l 326 323 l 317 320 q 252 338 307 335 l 252 338 l 251 473 z m 176 764 l 163 775 l 163 761 l 176 764 z m 273 753 l 262 753 l 262 747 l 273 750 l 273 753 z m 256 742 l 251 747 l 251 736 l 256 736 l 256 742 z m 320 736 l 317 736 q 309 731 317 731 l 309 731 l 309 726 l 317 726 q 326 731 317 731 l 326 731 l 320 736 z m 119 734 l 115 734 l 115 731 l 121 726 l 130 728 l 130 731 l 119 734 z m 267 718 l 259 726 l 256 723 l 256 720 l 267 709 q 290 715 275 715 l 290 715 q 281 720 290 720 l 281 720 l 267 718 z m 363 709 l 355 709 l 361 699 l 363 699 l 363 709 z m 342 682 l 328 679 l 328 673 l 342 676 l 350 676 l 350 682 l 342 682 z m 378 662 l 378 662 l 378 648 l 386 648 l 386 651 q 378 662 382 662 z m 339 654 l 336 654 l 336 651 l 345 626 l 347 626 q 363 640 347 637 l 363 640 l 361 648 l 347 648 l 339 654 z m 275 651 l 267 648 l 273 643 l 278 643 l 275 651 z m 416 643 l 414 643 l 414 640 q 430 621 421 640 l 430 621 l 433 618 l 435 618 l 438 621 l 438 623 q 416 643 432 640 l 416 643 z m 494 637 l 480 637 l 480 631 l 494 631 l 494 637 z m 353 623 l 350 621 q 358 610 354 610 l 358 610 l 361 612 l 361 621 l 355 621 l 353 623 z m 405 612 l 405 612 l 411 604 l 402 579 l 405 579 l 438 587 q 405 612 426 612 z m 455 607 l 450 612 l 450 610 l 455 604 l 455 607 z m 374 604 l 361 607 l 358 585 l 361 582 l 372 582 l 378 604 l 374 604 z m 452 587 l 447 587 l 450 574 l 452 574 l 452 587 z m 483 585 l 477 579 l 477 571 l 483 571 l 483 585 z m 355 552 l 347 549 l 347 544 l 358 549 l 358 552 l 355 552 z m 394 549 l 380 549 l 383 538 l 386 538 q 394 549 390 538 l 394 549 z m 425 544 l 414 538 l 416 536 l 416 532 l 414 530 l 414 527 l 419 527 l 425 544 z m 474 519 l 480 524 l 480 516 l 474 516 l 474 519 z m 486 505 l 486 519 l 488 519 l 502 516 q 491 496 502 501 l 491 496 l 486 496 l 486 499 l 488 502 l 486 505 z m 323 494 l 317 494 l 317 488 l 323 483 l 326 483 l 323 494 z m 480 496 l 480 496 l 491 488 l 471 466 l 469 466 l 469 475 q 480 496 480 488 z m 372 488 l 361 483 l 361 477 l 366 472 l 389 472 l 389 477 l 402 477 l 411 472 l 416 472 q 378 488 416 481 l 378 488 l 372 488 z m 278 472 l 267 475 l 264 472 l 264 466 q 281 455 281 463 l 281 455 l 284 455 l 284 460 q 278 472 278 460 l 278 472 z m 355 450 l 345 452 l 345 444 l 350 444 l 355 450 z m 287 430 l 275 433 l 270 422 l 281 422 l 287 427 l 287 430 z m 372 416 l 366 411 l 369 411 l 374 416 l 372 416 z m 345 408 l 339 403 q 350 389 345 390 l 350 389 l 353 389 l 345 408 z m 284 389 l 281 389 l 281 384 q 295 376 288 384 l 295 376 l 298 376 q 284 389 296 382 l 284 389 z m 414 364 l 408 345 q 422 328 422 345 l 422 328 l 430 328 q 435 342 430 342 l 435 342 l 438 339 l 460 345 l 463 345 q 469 336 469 345 l 469 336 q 486 331 473 331 l 486 331 l 486 326 q 466 292 466 305 l 466 292 l 474 284 l 474 281 q 460 273 467 281 l 460 273 l 450 273 l 450 251 l 430 245 l 425 251 l 419 235 l 422 224 l 414 216 l 422 201 l 422 196 q 399 188 422 191 l 399 188 l 397 191 l 394 188 l 394 185 q 402 174 401 185 l 402 174 l 397 168 q 414 155 414 168 l 414 155 q 438 140 414 148 l 438 140 q 444 155 439 155 l 444 155 l 441 157 l 441 160 l 444 163 l 444 165 l 458 163 l 460 163 l 438 176 l 435 174 l 433 174 l 430 176 l 430 180 l 435 193 l 474 196 l 474 199 l 469 207 l 455 204 l 441 210 l 441 221 l 444 224 l 441 227 l 441 237 l 450 245 l 469 245 l 466 232 l 469 229 l 474 229 l 477 243 l 474 262 l 477 259 l 480 259 l 486 264 l 486 267 l 483 270 l 483 273 q 499 284 499 280 l 499 284 l 491 298 q 502 315 497 315 l 502 315 l 505 312 l 505 315 l 494 331 l 499 339 l 499 345 l 496 342 l 494 342 l 491 345 l 488 342 l 486 342 q 480 351 480 342 l 480 351 l 438 351 q 430 376 433 351 l 430 376 l 447 381 l 450 378 l 458 378 l 458 381 q 435 389 448 381 l 435 389 q 414 364 414 374 l 414 364 z m 353 339 l 339 339 l 339 334 l 347 334 l 353 339 z m 361 334 l 353 334 l 353 328 l 361 328 l 361 334 z m 474 326 l 466 328 l 466 320 l 474 323 l 474 326 z m 427 290 l 411 290 l 405 279 l 408 276 l 405 273 l 422 273 l 416 281 l 427 284 l 427 290 z m 518 267 l 507 267 l 513 262 l 518 267 z m 521 216 l 515 216 l 515 213 l 521 207 l 521 216 z m 499 201 l 480 201 l 480 199 l 488 180 l 486 165 l 491 165 q 502 171 491 171 l 502 171 l 502 176 q 494 191 494 176 l 494 191 l 499 199 l 499 201 z m 521 191 l 515 185 l 518 182 l 526 182 l 526 191 l 521 191 z m 326 176 l 336 185 l 339 185 q 358 160 339 176 l 358 160 q 339 149 355 149 l 339 149 q 326 176 326 165 l 326 176 z m 231 124 l 231 124 l 245 119 l 248 121 l 251 121 l 245 135 q 231 124 233 130 z m 450 135 l 447 135 l 441 124 l 441 121 q 455 130 455 125 l 455 130 l 450 135 z m 212 130 l 203 130 l 203 127 q 226 119 205 119 l 226 119 l 229 119 q 212 130 226 130 l 212 130 z m 486 121 l 491 127 l 494 127 l 507 121 l 507 116 l 496 104 l 491 104 l 486 110 l 486 121 z m 182 119 l 176 119 q 160 99 176 113 l 160 99 q 182 80 165 99 l 182 80 q 190 91 183 91 l 190 91 l 187 94 l 190 107 l 190 110 q 182 119 182 110 l 182 119 z m 281 110 l 270 110 l 267 99 q 281 88 281 99 l 281 88 l 284 88 l 284 96 l 281 110 z m 422 110 l 416 110 l 416 107 l 422 102 l 425 102 l 425 107 l 422 110 z m 242 88 l 231 85 l 231 83 l 234 80 l 234 77 l 231 75 l 234 75 l 237 77 l 251 75 l 256 75 l 256 85 l 242 88 z m 182 64 l 179 64 l 179 56 l 184 61 l 182 64 z m 300 47 l 290 47 l 290 36 l 300 36 l 300 47 z m 218 44 l 218 44 l 218 33 l 220 33 l 223 36 l 226 36 l 229 33 l 229 36 q 218 44 229 40 z m 231 28 l 220 28 l 220 25 l 223 17 l 229 17 l 231 28 z m 214 20 l 201 20 l 198 8 l 220 8 l 220 14 l 214 20 z m 647 1153 l 0 1153 l 0 -280 l 647 -280 l 647 1153 z "},"4":{"ha":742,"x_min":0,"x_max":755,"o":"m 640 378 l 640 325 l 640 325 l 626 317 l 626 302 l 640 319 l 640 200 l 487 200 l 487 203 l 490 205 l 490 208 l 487 211 l 484 211 l 473 200 l 448 200 l 448 205 l 451 203 l 454 203 l 454 211 q 420 225 433 211 l 420 225 l 420 239 l 407 239 q 393 231 407 231 l 393 231 l 393 225 q 415 214 393 221 l 415 214 l 418 200 l 107 200 l 102 205 l 102 211 l 110 222 l 110 225 q 102 231 102 225 l 102 231 l 102 242 q 110 248 102 248 l 110 248 l 110 264 q 102 297 102 264 l 102 297 l 102 311 l 104 322 l 102 333 l 102 370 l 110 378 l 116 378 q 163 350 163 361 l 163 350 l 165 350 l 171 355 l 163 355 l 165 370 l 157 370 l 144 372 l 144 378 l 420 378 q 426 353 426 378 l 426 353 l 434 347 l 443 353 l 459 353 l 468 347 l 476 347 l 476 350 q 465 363 469 350 l 465 363 l 462 361 l 434 367 l 434 372 l 440 378 l 593 378 l 593 363 l 598 363 l 604 370 l 601 378 l 640 378 z m 465 281 l 465 286 l 440 286 l 431 281 q 440 264 435 264 l 440 264 l 443 264 l 440 278 l 448 283 l 451 283 l 465 281 z m 426 242 l 426 258 l 420 258 l 410 248 l 410 245 l 412 245 l 412 250 l 415 250 l 426 242 z m 412 338 l 407 345 l 404 345 l 404 342 l 410 336 l 412 336 l 412 338 z m 387 322 l 387 330 l 385 330 q 366 325 378 325 l 366 325 l 368 322 l 368 319 l 359 308 l 368 308 l 387 322 z m 354 325 l 359 330 l 351 330 l 351 325 l 354 325 z m 346 248 l 346 250 l 337 250 l 332 245 l 332 242 l 340 242 l 346 248 z m 343 289 l 343 305 l 337 305 l 337 289 l 343 289 z m 332 256 l 332 258 l 318 264 l 312 264 q 329 253 318 253 l 329 253 l 332 256 z m 326 319 l 318 328 l 318 325 q 326 313 322 313 l 326 313 l 326 319 z m 312 325 l 312 328 l 293 336 l 288 328 l 293 305 l 296 305 q 312 325 303 325 l 312 325 z m 298 273 l 304 278 l 301 281 l 298 281 l 298 273 z m 290 225 l 288 239 l 288 261 q 277 233 282 261 l 277 233 l 277 231 l 282 225 l 290 225 z m 241 283 l 241 286 l 232 286 l 227 281 l 227 278 l 232 273 q 241 283 232 283 l 241 283 z m 221 222 l 221 225 l 212 225 l 210 217 l 212 214 l 216 214 l 221 222 z m 201 236 l 201 236 q 184 245 184 236 l 184 245 l 187 261 q 179 267 179 261 l 179 267 l 176 267 l 171 253 q 182 239 176 239 l 182 239 l 182 236 l 179 233 l 179 231 q 191 225 191 230 l 191 225 q 201 236 199 227 z m 187 347 l 182 353 l 179 353 l 179 342 l 187 342 l 187 347 z m 155 305 l 149 311 q 132 292 142 292 l 132 292 l 132 289 q 144 267 144 275 l 144 267 l 149 273 l 149 297 l 155 305 z m 149 231 l 144 236 l 127 236 l 127 233 l 138 228 l 149 231 z m 144 220 l 138 225 l 135 225 l 141 220 l 144 220 z m 127 336 l 121 342 l 113 338 q 124 325 118 326 l 124 325 l 127 325 l 127 336 z m 427 719 l 441 707 l 435 702 l 431 702 l 426 708 l 427 719 z m 307 471 l 298 472 l 304 466 l 307 465 l 307 471 z m 288 533 l 282 539 l 279 540 l 278 534 l 288 533 z m 286 578 l 279 578 l 279 573 l 285 567 l 288 567 l 288 570 l 286 578 z m 350 606 l 337 608 l 337 604 l 350 604 l 350 606 z m 320 623 l 320 623 l 317 623 l 325 609 l 334 608 q 320 623 328 622 z m 387 620 l 380 621 l 380 618 l 386 612 l 387 620 z m 397 628 l 388 631 l 381 626 l 380 623 l 384 623 l 397 625 l 397 628 z m 428 644 l 418 646 l 418 640 l 427 639 l 428 644 z m 477 737 l 471 738 q 440 723 469 728 l 440 723 l 405 726 l 404 723 q 417 714 418 721 l 417 714 l 417 711 l 413 709 l 431 696 l 437 696 l 454 698 l 453 689 q 467 705 466 688 l 467 705 l 487 703 l 487 706 q 475 715 488 713 l 475 715 l 477 737 z m 477 770 l 467 764 l 467 760 l 472 754 l 479 759 l 480 768 l 477 770 z m 428 780 l 635 780 q 629 772 632 776 l 629 772 q 575 718 589 718 l 575 718 q 564 703 574 702 l 564 703 l 551 704 l 551 709 l 543 710 l 542 705 l 526 703 q 495 691 512 690 l 495 691 l 494 686 l 510 682 l 517 687 l 529 680 q 549 687 548 679 l 549 687 l 555 687 l 555 684 l 532 655 q 533 659 532 657 l 533 659 l 507 661 l 507 657 l 504 655 l 490 656 l 475 660 l 475 657 l 475 657 l 473 666 l 456 664 l 449 665 l 437 669 l 433 669 l 419 678 l 414 676 l 406 677 q 379 695 404 688 l 379 695 l 369 693 l 370 699 l 366 699 q 356 691 361 694 l 356 691 q 388 717 359 716 l 388 717 l 385 720 q 399 726 386 726 l 399 726 l 393 736 l 393 741 q 428 780 410 763 l 428 780 z m 313 395 l 105 395 l 331 663 l 340 662 l 339 654 l 336 652 l 339 651 l 349 656 q 340 667 349 667 l 340 667 q 356 691 342 679 l 356 691 l 362 685 l 397 682 l 396 677 l 406 677 l 406 674 l 409 673 l 414 676 l 419 675 l 418 670 l 433 669 l 437 666 l 449 665 l 475 657 l 475 654 l 490 656 l 500 652 l 504 655 l 507 654 l 507 657 l 517 656 q 523 648 515 649 l 523 648 l 526 648 l 532 655 q 507 622 528 645 l 507 622 l 504 625 l 496 625 l 496 623 l 504 622 q 407 508 496 606 l 407 508 q 313 395 355 445 l 313 395 z m 639 745 l 639 709 l 633 703 l 628 703 q 616 718 628 709 l 616 718 l 639 745 z m 612 713 l 623 698 l 608 687 l 611 687 l 636 701 l 639 698 l 639 397 l 462 397 l 462 526 l 612 713 z m 523 764 l 517 770 l 512 761 l 515 761 l 523 764 z m 551 745 l 548 745 l 548 739 l 551 736 l 556 736 l 556 739 l 551 745 z m 600 682 l 589 682 l 595 675 l 600 675 l 600 682 z m 479 675 l 475 675 l 475 670 l 481 665 l 484 667 l 484 670 l 479 675 z m 619 458 l 616 458 l 616 433 l 623 433 l 625 441 l 619 458 z m 481 176 l 481 176 l 484 176 q 486 184 484 181 l 486 184 l 608 183 q 586 165 586 176 l 586 165 l 586 163 l 589 163 q 611 174 590 174 l 611 174 l 611 183 l 639 183 l 639 135 q 625 124 633 124 l 625 124 l 631 119 l 639 121 l 639 45 l 633 45 q 628 58 633 58 l 628 58 l 611 66 l 611 64 q 628 56 611 59 l 628 56 l 631 41 l 631 39 l 623 31 l 616 31 l 600 45 l 600 41 l 614 25 l 611 17 l 614 17 q 631 28 631 17 l 631 28 l 639 28 l 639 5 l 633 0 l 616 0 l 608 5 l 603 0 l 583 0 q 578 8 578 0 l 578 8 l 562 8 q 556 0 562 0 l 556 0 l 543 0 l 526 14 l 523 14 l 523 0 l 490 0 l 490 8 l 473 8 l 473 5 l 479 5 l 479 0 l 467 0 l 462 5 l 462 8 l 467 17 l 467 31 l 462 31 l 462 56 l 473 72 q 465 80 473 80 l 465 80 l 462 83 l 462 102 l 467 108 l 479 108 l 487 102 l 495 102 l 492 105 l 479 111 l 473 127 l 467 127 l 467 113 l 462 113 l 462 184 l 476 184 q 481 176 481 183 z m 639 745 l 639 709 l 633 703 l 628 703 q 616 718 628 709 l 616 718 l 639 745 z m 523 764 l 517 770 l 512 761 l 515 761 l 523 764 z m 551 745 l 548 745 l 548 739 l 551 736 l 556 736 l 556 739 l 551 745 z m 600 682 l 589 682 l 595 675 l 600 675 l 600 682 z m 479 675 l 475 675 l 475 670 l 481 665 l 484 667 l 484 670 l 479 675 z m 619 458 l 616 458 l 616 433 l 623 433 l 625 441 l 619 458 z m 606 674 l 597 674 l 583 655 l 583 647 l 595 655 l 597 655 l 600 652 q 606 671 600 665 l 606 671 l 606 674 z m 606 647 l 600 642 l 600 639 l 606 639 l 606 647 z m 581 631 l 564 631 l 564 625 l 581 625 l 581 631 z m 603 606 l 595 614 l 589 614 q 600 606 589 609 l 600 606 l 603 606 z m 603 600 l 600 600 q 581 583 600 590 l 581 583 l 581 581 l 603 574 l 611 581 l 603 600 z m 553 591 l 548 586 l 556 586 l 556 589 l 553 591 z m 514 574 l 500 578 l 500 569 l 506 564 l 509 564 q 536 574 536 569 l 536 574 l 514 574 z m 562 528 l 559 528 q 548 519 559 519 l 548 519 l 553 514 l 556 514 l 562 519 l 562 528 z m 500 509 l 498 509 l 489 503 l 489 500 l 492 497 l 500 500 l 500 509 z m 511 489 q 500 478 503 486 l 500 478 q 506 467 505 478 l 506 467 l 509 467 l 511 469 l 514 469 q 528 458 514 464 l 528 458 l 543 464 l 543 467 q 536 475 536 467 l 536 475 l 520 472 q 511 489 511 472 l 511 489 z m 628 469 l 623 475 l 617 475 l 617 467 l 628 467 l 628 469 z m 586 436 l 581 441 l 572 436 l 548 436 l 543 431 q 564 419 551 431 l 564 419 l 567 419 q 586 436 567 429 l 586 436 z m 511 431 l 506 436 l 503 425 l 509 414 l 511 414 l 511 431 z m 500 425 l 495 431 l 495 428 l 500 422 l 500 425 z m 560 44 l 551 45 l 556 39 l 559 39 l 560 44 z m 541 106 l 534 113 l 532 113 l 531 107 l 541 106 z m 539 151 l 532 151 l 532 145 l 537 140 l 541 140 l 541 142 l 539 151 z m 755 1153 l 0 1153 l 0 -280 l 755 -280 l 755 1153 z "},"5":{"ha":640,"x_min":0,"x_max":656,"o":"m 355 450 l 345 452 l 345 444 l 350 444 l 355 450 z m 532 650 l 526 650 l 526 644 l 532 639 l 532 650 z m 361 655 l 358 655 l 358 644 l 361 644 l 363 652 l 361 655 z m 494 667 l 488 667 l 483 650 l 486 650 l 494 658 l 494 667 z m 350 667 l 339 667 l 339 661 l 345 661 l 350 667 z m 433 672 l 422 672 l 422 667 l 427 667 l 433 672 z m 331 703 l 331 703 l 328 700 l 328 696 l 331 694 l 334 694 l 336 696 l 345 686 l 345 669 l 347 669 l 355 672 l 355 675 q 331 703 348 693 z m 537 716 l 529 708 l 537 708 l 537 716 z m 372 722 l 366 722 l 366 711 l 372 716 l 372 722 z m 435 727 l 427 733 l 425 722 l 430 722 l 435 727 z m 339 749 l 334 744 l 342 739 l 345 747 l 342 749 l 339 749 z m 214 20 l 201 20 l 198 8 l 220 8 l 220 14 l 214 20 z m 231 28 l 220 28 l 220 25 l 223 17 l 229 17 l 231 28 z m 218 44 l 218 44 l 218 33 l 220 33 l 223 36 l 226 36 l 229 33 l 229 36 q 218 44 229 40 z m 300 47 l 290 47 l 290 36 l 300 36 l 300 47 z m 182 64 l 179 64 l 179 56 l 184 61 l 182 64 z m 242 88 l 231 85 l 231 83 l 234 80 l 234 77 l 231 75 l 234 75 l 237 77 l 251 75 l 256 75 l 256 85 l 242 88 z m 422 110 l 416 110 l 416 107 l 422 102 l 425 102 l 425 107 l 422 110 z m 281 110 l 270 110 l 267 99 q 281 88 281 99 l 281 88 l 284 88 l 284 96 l 281 110 z m 182 119 l 176 119 q 160 99 176 113 l 160 99 q 182 80 165 99 l 182 80 q 190 91 183 91 l 190 91 l 187 94 l 190 107 l 190 110 q 182 119 182 110 l 182 119 z m 212 130 l 203 130 l 203 127 q 226 119 205 119 l 226 119 l 229 119 q 212 130 226 130 l 212 130 z m 450 135 l 447 135 l 441 124 l 441 121 q 455 130 455 125 l 455 130 l 450 135 z m 231 124 l 231 124 l 245 119 l 248 121 l 251 121 l 245 135 q 231 124 233 130 z m 521 191 l 515 185 l 518 182 l 526 182 l 526 191 l 521 191 z m 499 201 l 480 201 l 480 199 l 488 180 l 486 165 l 491 165 q 502 171 491 171 l 502 171 l 502 176 q 494 191 494 176 l 494 191 l 499 199 l 499 201 z m 521 216 l 515 216 l 515 213 l 521 207 l 521 216 z m 518 267 l 507 267 l 513 262 l 518 267 z m 427 290 l 411 290 l 405 279 l 408 276 l 405 273 l 422 273 l 416 281 l 427 284 l 427 290 z m 474 326 l 466 328 l 466 320 l 474 323 l 474 326 z m 361 334 l 353 334 l 353 328 l 361 328 l 361 334 z m 353 339 l 339 339 l 339 334 l 347 334 l 353 339 z m 218 367 l 212 361 l 229 361 l 223 367 l 218 367 z m 414 364 l 408 345 q 422 328 422 345 l 422 328 l 430 328 q 435 342 430 342 l 435 342 l 438 339 l 460 345 l 463 345 q 469 336 469 345 l 469 336 q 486 331 473 331 l 486 331 l 486 326 q 466 292 466 305 l 466 292 l 474 284 l 474 281 q 460 273 467 281 l 460 273 l 450 273 l 450 251 l 430 245 l 425 251 l 419 235 l 422 224 l 414 216 l 422 201 l 422 196 q 399 188 422 191 l 399 188 l 397 191 l 394 188 l 394 185 q 402 174 401 185 l 402 174 l 397 168 q 414 155 414 168 l 414 155 q 438 140 414 148 l 438 140 q 444 155 439 155 l 444 155 l 441 157 l 441 160 l 444 163 l 444 165 l 458 163 l 460 163 l 438 176 l 435 174 l 433 174 l 430 176 l 430 180 l 435 193 l 474 196 l 474 199 l 469 207 l 455 204 l 441 210 l 441 221 l 444 224 l 441 227 l 441 237 l 450 245 l 469 245 l 466 232 l 469 229 l 474 229 l 477 243 l 474 262 l 477 259 l 480 259 l 486 264 l 486 267 l 483 270 l 483 273 q 499 284 499 280 l 499 284 l 491 298 q 502 315 497 315 l 502 315 l 505 312 l 505 315 l 494 331 l 499 339 l 499 345 l 496 342 l 494 342 l 491 345 l 488 342 l 486 342 q 480 351 480 342 l 480 351 l 438 351 q 430 376 433 351 l 430 376 l 447 381 l 450 378 l 458 378 l 458 381 q 435 389 448 381 l 435 389 q 414 364 414 374 l 414 364 z m 284 389 l 281 389 l 281 384 q 295 376 288 384 l 295 376 l 298 376 q 284 389 296 382 l 284 389 z m 345 408 l 339 403 q 350 389 345 390 l 350 389 l 353 389 l 345 408 z m 372 416 l 366 411 l 369 411 l 374 416 l 372 416 z m 287 430 l 275 433 l 270 422 l 281 422 l 287 427 l 287 430 z m 326 176 l 336 185 l 339 185 q 358 160 339 176 l 358 160 q 339 149 355 149 l 339 149 q 326 176 326 165 l 326 176 z m 278 472 l 277 472 l 275 470 l 264 470 l 264 466 q 281 455 281 463 l 281 455 l 284 455 l 284 460 q 278 472 278 460 l 278 472 z m 198 480 l 217 480 l 217 484 q 225 492 225 484 l 225 492 l 237 498 l 248 495 q 258 509 253 507 l 258 509 l 261 506 l 264 506 l 273 517 l 256 519 l 256 538 q 267 547 267 538 l 267 547 l 278 547 l 278 517 l 275 492 l 277 485 q 292 486 283 486 l 292 486 q 393 446 352 475 l 393 446 l 391 446 l 391 437 q 427 408 405 437 l 427 408 q 441 403 427 403 l 441 403 q 460 378 460 393 l 460 378 q 524 300 494 378 l 524 300 l 521 298 q 534 256 532 298 l 534 256 q 526 251 526 256 l 526 251 q 537 232 537 246 l 537 232 l 534 232 l 537 229 q 518 163 533 163 l 518 163 l 524 152 l 518 140 l 499 143 l 496 143 l 488 138 q 474 146 474 142 l 474 146 l 474 149 l 477 152 l 477 155 l 474 155 l 460 149 l 460 143 q 480 132 460 136 l 480 132 l 480 124 l 471 116 l 458 116 l 452 110 l 452 104 q 486 83 461 104 l 486 83 q 414 33 441 33 l 414 33 q 372 14 414 28 l 372 14 q 355 31 366 14 l 355 31 l 347 28 l 347 31 l 345 39 l 347 47 l 334 47 l 326 53 l 326 50 q 345 5 343 28 l 345 5 l 298 3 l 295 3 q 290 20 290 3 l 290 20 q 281 33 281 20 l 281 33 l 278 33 l 278 17 q 262 11 262 15 l 262 11 l 264 3 l 262 0 l 107 0 l 102 5 l 102 140 l 107 146 l 218 146 l 229 138 l 231 138 l 229 140 l 229 143 l 245 149 l 254 149 q 259 140 254 140 l 259 140 l 264 140 q 284 152 264 152 l 284 152 l 326 168 l 328 149 l 328 140 l 334 140 q 353 124 334 134 l 353 124 l 369 124 l 369 135 q 361 140 361 135 l 361 140 l 361 149 l 363 163 l 369 163 q 374 152 374 163 l 374 152 l 378 152 l 380 165 l 350 182 l 345 188 l 345 196 q 355 224 345 206 l 355 224 l 355 256 l 358 259 l 342 300 l 353 295 l 355 298 l 355 306 l 336 306 l 326 317 l 328 320 l 328 323 l 326 323 l 317 320 q 223 339 304 339 l 223 339 l 107 339 l 102 345 l 102 475 l 102 475 l 102 475 l 102 549 l 107 549 q 113 533 107 533 l 113 533 l 118 538 l 118 544 q 102 555 118 549 l 102 555 l 102 641 l 121 638 l 123 638 l 123 641 l 102 650 l 102 682 l 110 682 l 110 688 q 102 693 102 688 l 102 693 l 102 780 l 114 780 l 115 776 l 118 776 l 121 780 l 174 780 l 174 776 l 151 776 l 151 765 l 135 765 l 132 762 l 129 762 q 140 754 129 754 l 140 754 l 143 737 l 146 740 l 149 740 l 146 743 l 146 749 l 154 757 l 165 760 l 165 768 l 168 765 l 174 765 l 178 780 l 182 780 l 190 776 l 190 780 l 217 780 l 217 770 l 214 757 q 222 751 222 757 l 222 751 l 222 740 l 214 737 q 193 757 210 757 l 193 757 l 193 754 q 206 734 206 746 l 206 734 l 201 729 l 198 732 l 184 732 l 184 715 q 176 709 184 709 l 176 709 l 176 704 q 193 688 193 704 l 193 688 l 195 690 l 198 690 l 222 685 l 225 688 l 225 682 q 217 677 217 682 l 217 677 l 217 669 l 222 669 l 222 674 l 237 671 l 242 671 l 242 674 l 237 674 l 237 680 l 248 682 l 248 669 l 239 669 l 239 658 l 242 655 l 242 652 q 231 635 231 647 l 231 635 l 222 635 l 214 644 l 220 650 l 214 666 l 209 666 l 209 655 l 206 655 l 201 661 l 203 663 l 203 666 l 198 666 l 182 661 l 182 655 q 217 635 197 655 l 217 635 l 217 613 l 222 613 q 234 630 222 620 l 234 630 l 237 627 l 250 627 l 245 646 q 267 669 245 655 l 267 669 l 267 671 l 278 671 l 278 650 l 273 630 l 278 630 l 278 619 l 273 619 l 273 627 q 250 616 252 627 l 250 616 l 250 613 l 253 613 l 253 619 q 275 600 275 616 l 275 600 l 264 591 l 248 591 l 250 605 l 250 610 l 248 610 q 242 600 247 600 l 242 600 l 248 574 l 242 569 l 242 566 q 250 561 250 566 l 250 561 l 253 564 l 256 564 l 264 555 l 264 553 q 250 541 250 553 l 250 541 l 253 538 l 250 536 l 248 538 l 239 538 l 225 536 l 222 553 l 220 553 q 203 544 211 544 l 203 544 l 203 538 l 214 536 l 206 511 q 217 495 214 511 l 217 495 l 212 487 l 198 492 l 195 490 l 198 480 z m 245 780 l 260 780 l 256 773 l 258 770 l 264 770 l 267 779 l 267 780 l 278 780 l 278 732 l 273 732 l 267 737 l 270 737 l 267 746 l 261 746 l 261 732 q 245 726 261 726 l 245 726 l 245 724 l 264 718 l 264 712 l 261 709 l 261 707 l 264 704 q 250 688 254 699 l 250 688 q 234 715 244 688 l 234 715 l 231 715 l 228 701 q 237 696 237 701 l 237 696 l 222 693 l 209 701 l 206 701 l 206 709 l 212 715 l 225 715 q 234 734 225 728 l 234 734 l 231 734 l 234 737 l 234 740 l 228 757 l 237 762 l 245 754 l 248 754 l 253 760 q 245 780 253 773 l 245 780 z m 278 707 l 278 680 l 273 680 l 270 693 l 273 712 l 278 707 z m 538 780 l 538 636 l 433 636 l 425 642 l 416 636 l 315 636 l 309 642 l 309 663 l 311 667 l 309 669 l 309 755 l 315 755 l 315 763 l 309 763 l 309 774 l 315 780 l 380 780 l 386 774 l 380 769 l 380 760 l 383 760 q 391 780 391 760 l 391 780 l 438 780 l 441 777 l 444 780 l 480 780 q 488 766 481 766 l 488 766 l 491 769 l 494 769 l 491 772 l 491 780 l 538 780 z m 486 121 l 491 127 l 494 127 l 507 121 l 507 116 l 496 104 l 491 104 l 486 110 l 486 121 z m 656 1153 l 0 1153 l 0 -280 l 656 -280 l 656 1153 z "},"6":{"ha":755,"x_min":0,"x_max":765,"o":"m 391 512 q 604 426 537 508 l 604 426 l 607 429 l 607 426 l 604 423 q 654 265 654 347 l 654 265 l 654 254 q 604 99 654 159 l 604 99 l 599 99 l 599 96 l 602 87 l 582 71 l 579 71 l 579 77 l 574 77 l 571 68 l 574 60 q 389 1 527 11 l 389 1 l 389 138 l 396 138 l 396 140 l 393 149 q 477 260 477 176 l 477 260 l 477 274 q 390 364 460 357 l 390 364 l 391 512 z m 588 456 l 596 467 l 602 467 q 610 462 602 462 l 610 462 l 610 454 l 604 454 q 599 462 599 454 l 599 462 l 596 462 l 596 456 l 588 456 z m 502 337 l 491 337 l 494 321 l 499 321 l 496 323 l 496 326 l 502 337 z m 554 315 l 546 315 l 551 309 l 554 312 l 554 315 z m 582 254 l 571 254 l 571 249 l 588 249 l 588 243 l 591 243 l 591 249 l 582 254 z m 359 781 l 359 632 q 279 543 296 623 l 279 543 l 279 259 q 359 149 279 177 l 359 149 l 359 1 q 182 60 228 11 l 182 60 l 184 68 l 182 76 l 176 76 l 176 71 l 174 71 l 155 87 l 157 96 l 157 98 l 152 98 q 102 254 102 159 l 102 254 l 102 534 q 152 692 102 616 l 152 692 l 149 695 l 149 698 l 152 695 q 359 781 218 776 l 359 781 z m 160 736 l 168 726 l 160 726 l 160 731 l 157 731 q 152 723 157 723 l 152 723 l 146 723 l 146 731 q 155 736 155 731 l 155 736 l 160 736 z m 210 490 l 185 490 l 198 472 l 198 468 l 191 464 l 203 464 l 210 490 z m 210 584 l 201 584 l 201 581 l 204 578 l 210 584 z m 184 254 l 174 254 l 165 248 l 165 242 l 168 242 l 168 248 l 184 248 l 184 254 z m 765 1153 l 0 1153 l 0 -280 l 765 -280 l 765 1153 z "},"7":{"ha":743,"x_min":0,"x_max":752,"o":"m 103 604 l 103 656 l 104 656 l 117 665 l 117 679 l 103 662 l 103 781 l 256 781 l 256 779 l 253 776 l 253 773 l 256 770 l 259 770 l 270 781 l 295 781 l 295 776 l 292 779 l 290 779 l 290 770 q 323 756 310 770 l 323 756 l 323 743 l 336 743 q 350 751 336 751 l 350 751 l 350 756 q 328 768 350 761 l 328 768 l 326 781 l 636 781 l 642 776 l 642 770 l 633 759 l 633 756 q 642 751 642 756 l 642 751 l 642 739 q 633 734 642 734 l 633 734 l 633 718 q 642 684 642 718 l 642 684 l 642 671 l 639 659 l 642 648 l 642 612 l 633 604 l 627 604 q 581 631 581 621 l 581 631 l 578 631 l 572 626 l 581 626 l 578 612 l 586 612 l 600 609 l 600 604 l 323 604 q 317 629 317 604 l 317 629 l 309 634 l 300 629 l 284 629 l 275 634 l 267 634 l 267 631 q 278 618 274 631 l 278 618 l 281 621 l 309 614 l 309 609 l 303 604 l 151 604 l 151 618 l 145 618 l 140 612 l 142 604 l 103 604 z m 117 773 l 117 770 l 123 770 l 123 779 l 117 773 z m 256 745 l 256 739 l 259 743 l 267 743 q 273 734 273 743 l 273 734 l 275 731 l 278 731 l 278 745 l 256 745 z m 262 731 l 259 709 l 262 707 l 270 707 l 267 709 l 270 723 l 262 731 z m 278 701 l 278 696 l 303 696 l 312 701 q 303 718 308 718 l 303 718 l 300 718 l 303 704 l 295 699 l 292 699 l 278 701 z m 317 739 l 317 723 l 323 723 l 334 734 l 334 736 l 331 736 l 331 731 l 328 731 l 317 739 z m 331 643 l 336 637 l 339 637 l 339 640 l 334 646 l 331 646 l 331 643 z m 356 659 l 356 651 l 359 651 q 378 656 366 656 l 378 656 l 375 659 l 375 662 l 384 673 l 375 673 l 356 659 z m 389 656 l 384 651 l 392 651 l 392 656 l 389 656 z m 397 734 l 397 731 l 406 731 l 412 736 l 412 739 l 403 739 l 397 734 z m 400 693 l 400 676 l 406 676 l 406 693 l 400 693 z m 412 726 l 412 723 l 425 718 l 431 718 q 414 728 425 728 l 414 728 l 412 726 z m 417 662 l 425 654 l 425 656 q 417 668 421 668 l 417 668 l 417 662 z m 431 656 l 431 654 l 450 646 l 456 654 l 450 676 l 448 676 q 431 656 440 656 l 431 656 z m 445 709 l 439 704 l 442 701 l 445 701 l 445 709 z m 453 756 l 456 743 l 456 720 q 467 748 461 720 l 467 748 l 467 751 l 461 756 l 453 756 z m 503 699 l 503 696 l 511 696 l 517 701 l 517 704 l 511 709 q 503 699 511 699 l 503 699 z m 522 759 l 522 756 l 531 756 l 534 764 l 531 768 l 528 768 l 522 759 z m 542 745 l 542 745 q 559 736 559 745 l 559 736 l 556 720 q 564 715 564 720 l 564 715 l 567 715 l 572 728 q 562 743 567 743 l 562 743 l 562 745 l 564 748 l 564 751 q 553 756 553 751 l 553 756 q 542 745 545 754 z m 556 634 l 562 629 l 564 629 l 564 640 l 556 640 l 556 634 z m 589 676 l 594 671 q 611 690 602 690 l 611 690 l 611 693 q 600 715 600 707 l 600 715 l 594 709 l 594 684 l 589 676 z m 594 751 l 600 745 l 616 745 l 616 748 l 606 753 l 594 751 z m 600 762 l 606 756 l 608 756 l 602 762 l 600 762 z m 616 646 l 622 640 l 631 643 q 619 656 625 655 l 619 656 l 616 656 l 616 646 z m 636 583 l 296 0 l 102 0 l 441 583 l 636 583 z m 277 157 l 271 161 l 265 155 l 269 155 l 277 157 z m 256 119 l 252 119 l 252 115 l 256 113 l 262 113 l 262 115 l 256 119 z m 231 45 l 208 39 l 208 37 l 246 26 l 250 25 l 252 25 l 250 35 l 250 39 l 256 45 l 231 45 z m 300 189 l 286 189 l 293 184 l 300 184 l 300 189 z m 396 245 l 393 245 l 393 242 l 399 238 l 402 240 l 402 242 l 396 245 z m 469 471 l 469 471 l 476 467 q 508 479 505 473 l 508 479 l 505 481 q 469 471 489 471 z m 388 418 l 381 418 l 381 414 l 388 410 l 388 418 z m 407 406 l 400 406 l 400 399 l 410 399 l 410 400 l 407 406 z m 454 412 l 448 412 l 448 410 l 480 396 l 480 404 q 464 422 464 411 l 464 422 q 454 412 458 422 l 454 412 z m 456 547 l 456 547 l 456 544 q 476 536 467 544 l 476 536 l 479 536 l 488 543 l 479 552 l 476 552 q 456 547 465 547 z m 393 382 l 388 382 l 385 370 l 393 365 l 393 360 l 378 359 l 369 359 l 361 349 l 361 346 l 369 342 l 372 342 l 388 345 l 391 334 l 393 334 l 393 346 q 400 354 400 346 l 400 354 l 404 357 l 407 357 l 420 354 l 420 357 q 400 365 420 360 l 400 365 l 397 374 l 397 376 l 404 376 l 404 378 q 393 382 393 378 l 393 382 z m 480 354 l 461 345 l 452 346 l 452 338 l 461 338 q 484 350 461 346 l 484 350 l 484 354 l 480 354 z m 487 332 l 474 330 l 474 326 q 487 332 487 330 l 487 332 z m 416 330 l 404 322 l 413 322 l 416 324 l 420 324 l 416 330 z m 445 322 l 436 322 l 436 320 q 458 311 436 317 l 458 311 l 458 315 q 448 320 448 315 l 448 320 l 445 322 z m 393 304 l 393 304 l 393 302 q 407 294 407 302 l 407 294 l 413 294 q 429 311 413 303 l 429 311 q 393 304 393 308 z m 464 306 l 454 304 l 454 302 l 468 302 l 464 304 l 464 306 z m 544 536 l 544 536 q 537 528 544 528 l 537 528 l 528 530 l 524 528 l 524 522 q 534 516 534 522 l 534 516 l 537 516 q 553 526 537 526 l 553 526 l 564 526 q 544 536 557 533 z m 409 444 l 409 444 l 409 441 l 412 441 q 437 451 413 451 l 437 451 l 437 460 q 409 444 409 453 z m 512 494 l 505 490 l 512 490 l 518 494 l 512 494 z m 460 446 l 451 446 l 448 437 l 457 437 l 460 446 z m 528 466 l 524 466 l 524 463 q 515 458 515 463 l 515 458 l 524 458 l 528 465 l 528 466 z m 499 458 l 492 454 l 502 454 l 509 458 l 499 458 z m 350 264 l 334 258 l 334 256 l 340 256 q 350 260 340 260 l 350 260 l 350 264 z m 337 323 l 337 323 l 337 321 l 345 315 l 345 311 q 331 305 345 305 l 331 305 l 331 303 l 347 303 l 350 313 q 337 323 345 322 z m 317 256 l 309 256 l 309 252 l 312 252 l 317 256 z m 344 236 l 328 236 l 334 232 l 344 232 l 344 236 z m 312 228 l 298 224 l 305 218 l 315 220 l 312 228 z m 376 283 l 366 283 l 366 279 l 376 279 l 376 283 z m 752 1153 l 0 1153 l 0 -280 l 752 -280 l 752 1153 z "},"8":{"ha":775,"x_min":0,"x_max":780,"o":"m 401 720 l 401 749 l 409 751 l 409 753 l 401 753 l 401 779 l 404 779 q 640 646 591 779 l 640 646 q 652 585 652 620 l 652 585 l 644 583 l 644 580 q 652 572 652 580 l 652 572 q 637 522 648 522 l 637 522 l 635 539 l 621 539 l 618 536 l 616 536 l 610 542 l 610 547 l 613 550 l 613 553 l 602 564 l 600 561 l 594 561 l 591 572 l 586 572 l 589 569 l 586 566 l 586 561 l 589 558 l 589 555 l 586 553 q 608 522 600 545 l 608 522 l 608 517 l 605 497 l 591 500 l 589 500 l 600 486 l 581 486 l 583 458 l 574 456 l 574 448 l 581 439 l 555 425 q 541 439 541 425 l 541 439 l 519 439 l 519 431 q 564 409 533 431 l 564 409 q 577 404 564 404 l 577 404 q 597 379 597 393 l 597 379 q 660 301 629 379 l 660 301 l 657 298 q 671 257 667 298 l 671 257 q 663 252 663 257 l 663 252 q 673 233 673 247 l 673 233 l 671 233 l 673 230 q 654 163 669 163 l 654 163 l 660 153 l 654 141 l 635 144 l 632 144 l 624 138 q 610 147 610 142 l 610 147 l 610 150 l 613 153 l 613 155 l 610 155 l 597 150 l 597 144 q 616 133 597 137 l 616 133 l 616 125 l 608 117 l 594 117 l 589 111 l 589 105 q 621 83 597 105 l 621 83 q 550 34 578 34 l 550 34 q 508 14 550 29 l 508 14 q 492 31 502 14 l 492 31 l 484 28 l 484 31 l 480 39 l 484 47 l 469 47 l 461 54 l 461 51 q 480 6 479 28 l 480 6 l 434 3 l 431 3 q 426 20 426 3 l 426 20 q 418 34 418 20 l 418 34 l 414 34 l 414 18 q 401 15 405 16 l 401 15 l 401 144 q 420 153 404 153 l 420 153 l 461 169 l 464 150 l 464 141 l 469 141 q 489 125 469 134 l 489 125 l 505 125 l 505 136 q 497 141 497 136 l 497 141 l 497 150 l 500 163 l 505 163 q 511 153 511 163 l 511 153 l 514 153 l 517 166 l 486 183 l 480 189 l 480 197 q 492 224 480 207 l 492 224 l 492 257 l 494 260 l 477 301 l 489 296 l 492 298 l 492 307 l 472 307 l 461 318 l 464 321 l 464 323 l 461 323 l 453 321 q 401 338 445 334 l 401 338 l 401 467 q 418 456 418 463 l 418 456 l 420 456 l 420 461 q 414 473 414 461 l 414 473 l 404 475 l 401 473 l 401 484 q 429 486 411 486 l 429 486 q 477 564 477 507 l 477 564 l 480 583 l 475 583 l 475 605 l 469 605 l 472 602 l 472 599 l 469 596 l 467 596 q 401 631 445 627 l 401 631 l 401 712 l 404 710 q 426 715 412 715 l 426 715 q 418 721 426 721 l 418 721 l 404 718 l 401 720 z m 456 737 l 453 737 q 445 732 453 732 l 445 732 l 445 726 l 453 726 q 461 732 453 732 l 461 732 l 456 737 z m 500 710 l 492 710 l 497 699 l 500 699 l 500 710 z m 477 682 l 464 680 l 464 674 l 477 677 l 486 677 l 486 682 l 477 682 z m 514 663 l 514 663 l 514 649 l 522 649 l 522 652 q 514 663 518 663 z m 475 654 l 472 654 l 472 652 l 480 627 l 484 627 q 500 641 484 638 l 500 641 l 497 649 l 484 649 l 475 654 z m 412 652 l 404 649 l 409 644 l 414 644 l 412 652 z m 553 644 l 550 644 l 550 641 q 566 621 557 641 l 566 621 l 569 618 l 572 618 l 574 621 l 574 624 q 553 644 568 641 l 553 644 z m 629 638 l 616 638 l 616 632 l 629 632 l 629 638 z m 489 624 l 486 621 q 494 610 490 610 l 494 610 l 497 613 l 497 621 l 492 621 l 489 624 z m 541 613 l 541 613 l 547 605 l 538 580 l 541 580 l 574 588 q 541 613 562 613 z m 591 608 l 586 613 l 586 610 l 591 605 l 591 608 z m 511 605 l 497 608 l 494 585 l 497 583 l 508 583 l 514 605 l 511 605 z m 589 588 l 583 588 l 586 574 l 589 574 l 589 588 z m 618 585 l 613 580 l 613 572 l 618 572 l 618 585 z m 492 553 l 484 550 l 484 545 l 494 550 l 494 553 l 492 553 z m 530 550 l 517 550 l 519 539 l 522 539 q 530 550 526 539 l 530 550 z m 561 545 l 550 539 l 553 536 l 553 533 l 550 530 l 550 528 l 555 528 l 561 545 z m 610 519 l 616 525 l 616 517 l 610 517 l 610 519 z m 621 506 l 621 519 l 624 519 l 637 517 q 627 497 637 502 l 627 497 l 621 497 l 621 500 l 624 503 l 621 506 z m 458 494 l 453 494 l 453 489 l 458 484 l 461 484 l 458 494 z m 616 497 l 616 497 l 627 489 l 608 467 l 605 467 l 605 475 q 616 497 616 488 z m 508 489 l 497 484 l 497 478 l 503 473 l 525 473 l 525 478 l 538 478 l 547 473 l 553 473 q 514 489 553 482 l 514 489 l 508 489 z m 492 450 l 480 453 l 480 445 l 486 445 l 492 450 z m 423 431 l 412 433 l 406 422 l 418 422 l 423 428 l 423 431 z m 508 417 l 503 412 l 505 412 l 511 417 l 508 417 z m 480 409 l 475 404 q 486 390 480 391 l 486 390 l 489 390 l 480 409 z m 420 390 l 418 390 l 418 385 q 431 376 424 385 l 431 376 l 434 376 q 420 390 432 383 l 420 390 z m 550 365 l 544 346 q 558 329 558 346 l 558 329 l 566 329 q 572 343 566 343 l 572 343 l 574 340 l 597 346 l 600 346 q 605 337 605 346 l 605 337 q 621 332 609 332 l 621 332 l 621 326 q 602 293 602 306 l 602 293 l 610 285 l 610 282 q 597 273 604 282 l 597 273 l 586 273 l 586 252 l 566 246 l 561 252 l 555 235 l 558 224 l 550 216 l 558 202 l 558 197 q 536 189 558 191 l 536 189 l 533 191 l 530 189 l 530 186 q 538 174 537 186 l 538 174 l 533 169 q 550 155 550 169 l 550 155 q 574 141 550 149 l 574 141 q 581 155 575 155 l 581 155 l 577 158 l 577 161 l 581 163 l 581 166 l 594 163 l 597 163 l 574 177 l 572 174 l 569 174 l 566 177 l 566 180 l 572 194 l 610 197 l 610 199 l 605 208 l 591 205 l 577 210 l 577 222 l 581 224 l 577 227 l 577 238 l 586 246 l 605 246 l 602 233 l 605 230 l 610 230 l 613 243 l 610 262 l 613 260 l 616 260 l 621 265 l 621 268 l 618 271 l 618 273 q 635 285 635 281 l 635 285 l 627 298 q 637 315 633 315 l 637 315 l 640 313 l 640 315 l 629 332 l 635 340 l 635 346 l 632 343 l 629 343 l 627 346 l 624 343 l 621 343 q 616 351 616 343 l 616 351 l 574 351 q 566 376 569 351 l 566 376 l 583 382 l 586 379 l 594 379 l 594 382 q 572 390 583 382 l 572 390 q 550 365 550 374 l 550 365 z m 489 340 l 475 340 l 475 334 l 484 334 l 489 340 z m 497 334 l 489 334 l 489 329 l 497 329 l 497 334 z m 610 326 l 602 329 l 602 321 l 610 323 l 610 326 z m 564 290 l 547 290 l 541 279 l 544 277 l 541 273 l 558 273 l 553 282 l 564 285 l 564 290 z m 654 268 l 644 268 l 649 262 l 654 268 z m 657 216 l 652 216 l 652 214 l 657 208 l 657 216 z m 635 202 l 616 202 l 616 199 l 624 180 l 621 166 l 627 166 q 637 172 627 172 l 637 172 l 637 177 q 629 191 629 177 l 629 191 l 635 199 l 635 202 z m 657 191 l 652 186 l 654 183 l 663 183 l 663 191 l 657 191 z m 461 177 l 472 186 l 475 186 q 494 161 475 177 l 494 161 q 475 150 492 150 l 475 150 q 461 177 461 165 l 461 177 z m 586 136 l 583 136 l 577 125 l 577 122 q 591 130 591 125 l 591 130 l 586 136 z m 621 122 l 627 127 l 629 127 l 644 122 l 644 117 l 632 105 l 627 105 l 621 111 l 621 122 z m 418 111 l 406 111 l 404 100 q 418 89 418 100 l 418 89 l 420 89 l 420 97 l 418 111 z m 558 111 l 553 111 l 553 108 l 558 102 l 561 102 l 561 108 l 558 111 z m 437 47 l 426 47 l 426 37 l 437 37 l 437 47 z m 374 749 l 374 720 l 372 718 l 358 721 q 350 715 350 721 l 350 715 q 372 710 363 715 l 372 710 l 374 712 l 374 631 q 309 596 330 627 l 309 596 l 306 596 l 303 599 l 303 602 l 306 605 l 300 605 l 300 583 l 295 583 l 298 564 q 347 486 298 507 l 347 486 q 374 484 364 486 l 374 484 l 374 473 l 372 475 l 361 473 q 355 461 361 461 l 355 461 l 355 456 l 358 456 q 374 467 358 463 l 374 467 l 374 338 q 322 321 331 334 l 322 321 l 314 323 l 311 323 l 311 321 l 314 318 l 303 307 l 283 307 l 283 298 l 286 296 l 298 301 l 281 260 l 283 257 l 283 224 q 295 197 295 207 l 295 197 l 295 189 l 289 183 l 258 166 l 261 153 l 264 153 q 270 163 264 163 l 270 163 l 275 163 l 278 150 l 278 141 q 270 136 278 136 l 270 136 l 270 125 l 286 125 q 306 141 306 134 l 306 141 l 311 141 l 311 150 l 314 169 l 355 153 q 374 144 372 153 l 374 144 l 374 15 q 361 18 370 16 l 361 18 l 361 34 l 358 34 q 350 20 358 20 l 350 20 q 345 3 350 3 l 345 3 l 342 3 l 295 6 q 314 51 296 28 l 314 51 l 314 54 l 306 47 l 292 47 l 295 39 l 292 31 l 292 28 l 283 31 q 267 14 273 14 l 267 14 q 225 34 225 29 l 225 34 q 154 83 198 34 l 154 83 q 187 105 178 105 l 187 105 l 187 111 l 182 117 l 168 117 l 159 125 l 159 133 q 179 144 179 137 l 179 144 l 179 150 l 165 155 l 162 155 l 162 153 l 165 150 l 165 147 q 151 138 165 142 l 151 138 l 143 144 l 140 144 l 121 141 l 115 153 l 121 163 q 102 230 106 163 l 102 230 l 104 233 l 102 233 q 113 252 102 247 l 113 252 q 104 257 113 257 l 104 257 q 118 298 108 298 l 118 298 l 115 301 q 179 379 146 379 l 179 379 q 198 404 179 393 l 198 404 q 212 409 212 404 l 212 409 q 256 431 242 431 l 256 431 l 256 439 l 234 439 q 220 425 234 425 l 220 425 l 195 439 l 201 448 l 201 456 l 193 458 l 195 486 l 176 486 l 187 500 l 184 500 l 171 497 l 168 517 l 168 522 q 190 553 176 545 l 190 553 l 187 555 l 187 558 l 190 561 l 190 566 l 187 569 l 190 572 l 184 572 l 182 561 l 176 561 l 174 564 l 162 553 l 162 550 l 165 547 l 165 542 l 159 536 l 157 536 l 154 539 l 140 539 l 138 522 q 123 572 127 522 l 123 572 q 132 580 123 580 l 132 580 l 132 583 l 123 585 q 135 646 123 620 l 135 646 q 372 779 184 779 l 372 779 l 374 779 l 374 753 l 366 753 l 366 751 l 374 749 z m 322 737 l 319 737 l 314 732 q 322 726 322 732 l 322 726 l 331 726 l 331 732 q 322 737 322 732 l 322 737 z m 283 710 l 275 710 l 275 699 l 278 699 l 283 710 z m 311 680 l 298 682 l 289 682 l 289 677 l 298 677 l 311 674 l 311 680 z m 261 663 q 253 652 258 663 l 253 652 l 253 649 l 261 649 l 261 663 z m 303 654 l 300 654 l 292 649 l 278 649 l 275 641 q 292 627 292 638 l 292 627 l 295 627 l 303 652 l 303 654 z m 372 649 l 363 652 l 361 644 l 366 644 l 372 649 z m 225 644 l 222 644 q 201 624 207 641 l 201 624 l 201 621 l 203 618 l 206 618 l 209 621 q 225 641 218 641 l 225 641 l 225 644 z m 159 638 l 146 638 l 146 632 l 159 632 l 159 638 z m 289 621 l 286 624 l 283 621 l 278 621 l 278 613 l 281 610 q 289 621 285 610 l 289 621 z m 234 613 q 201 588 214 613 l 201 588 l 234 580 l 237 580 l 228 605 l 234 613 z m 190 613 l 184 608 l 184 605 l 190 610 l 190 613 z m 278 608 l 264 605 l 261 605 l 267 583 l 278 583 l 281 585 l 278 608 z m 193 588 l 187 588 l 187 574 l 190 574 l 193 588 z m 162 580 l 157 585 l 157 572 l 162 572 l 162 580 z m 292 550 l 283 553 l 281 553 l 281 550 l 292 545 l 292 550 z m 258 550 l 245 550 q 253 539 250 539 l 253 539 l 256 539 l 258 550 z m 225 539 l 214 545 l 220 528 l 225 528 l 225 530 l 222 533 l 222 536 l 225 539 z m 159 525 l 165 519 l 165 517 l 159 517 l 159 525 z m 154 519 l 154 506 l 151 503 l 154 500 l 154 497 l 149 497 q 138 517 138 502 l 138 517 l 151 519 l 154 519 z m 322 494 l 317 494 l 314 484 l 317 484 l 322 489 l 322 494 z m 159 497 q 171 475 159 488 l 171 475 l 171 467 l 168 467 l 149 489 l 159 497 z m 278 484 l 267 489 l 261 489 q 222 473 222 482 l 222 473 l 228 473 l 237 478 l 250 478 l 250 473 l 273 473 l 278 478 l 278 484 z m 295 453 l 283 450 l 289 445 l 295 445 l 295 453 z m 363 433 l 353 431 l 353 428 l 358 422 l 369 422 l 363 433 z m 273 412 l 267 417 l 264 417 l 270 412 l 273 412 z m 300 404 l 295 409 l 286 390 l 289 390 q 300 404 295 391 l 300 404 z m 358 390 l 355 390 q 342 376 343 383 l 342 376 l 345 376 q 358 385 351 385 l 358 385 l 358 390 z m 231 346 l 225 365 q 203 390 225 374 l 203 390 q 182 382 192 382 l 182 382 l 182 379 l 190 379 l 193 382 l 209 376 q 201 351 206 351 l 201 351 l 159 351 q 154 343 159 343 l 154 343 l 151 343 l 149 346 l 146 343 l 143 343 l 140 346 l 140 340 l 146 332 l 135 315 l 135 313 l 138 315 q 149 298 142 315 l 149 298 l 140 285 q 157 273 140 281 l 157 273 l 157 271 l 154 268 l 154 265 l 159 260 l 162 260 l 165 262 l 162 243 l 165 230 l 171 230 l 174 233 l 171 246 l 190 246 l 198 238 l 198 227 l 195 224 l 198 222 l 198 210 l 184 205 l 171 208 l 165 199 l 165 197 l 203 194 l 209 180 l 209 177 l 206 174 l 203 174 l 201 177 l 179 163 l 182 163 l 195 166 l 195 163 l 198 161 l 198 158 l 195 155 q 201 141 200 155 l 201 141 q 225 155 225 149 l 225 155 q 242 169 225 169 l 242 169 l 237 174 q 245 186 238 186 l 245 186 l 245 189 l 242 191 l 239 189 q 217 197 217 191 l 217 197 l 217 202 l 225 216 l 217 224 l 220 235 l 214 252 l 209 246 l 190 252 l 190 273 l 179 273 q 165 282 172 282 l 165 282 l 165 285 l 174 293 q 154 326 174 306 l 154 326 l 154 332 q 171 337 166 332 l 171 337 q 176 346 171 346 l 176 346 l 179 346 l 201 340 l 203 343 q 209 329 209 343 l 209 329 l 217 329 q 231 346 217 346 l 231 346 z m 300 340 l 286 340 l 292 334 l 300 334 l 300 340 z m 286 334 l 278 334 l 278 329 l 286 329 l 286 334 z m 174 329 l 165 326 l 165 323 l 174 321 l 174 329 z m 228 290 l 212 290 l 212 285 l 222 282 l 217 273 l 234 273 l 231 277 l 234 279 l 228 290 z m 132 268 l 121 268 l 126 262 l 132 268 z m 123 216 l 118 216 l 118 208 l 123 214 l 123 216 z m 159 202 l 140 202 l 140 199 l 146 191 q 138 177 146 177 l 138 177 l 138 172 q 149 166 149 172 l 149 166 l 154 166 l 151 180 l 159 199 l 159 202 z m 123 186 l 118 191 l 113 191 l 113 183 l 121 183 l 123 186 z m 303 186 l 314 177 q 300 150 314 165 l 300 150 q 281 161 283 150 l 281 161 q 300 186 300 177 l 300 186 l 303 186 z m 193 136 l 190 136 l 184 130 q 198 122 184 125 l 198 122 l 198 125 l 193 136 z m 149 127 l 154 122 l 154 111 l 149 105 l 143 105 l 132 117 l 132 122 l 146 127 l 149 127 z m 369 111 l 358 111 l 355 97 l 355 89 l 358 89 q 372 100 358 100 l 372 100 l 369 111 z m 222 111 l 217 111 l 214 108 l 214 102 l 217 102 l 222 108 l 222 111 z m 350 47 l 339 47 l 339 37 l 350 37 l 350 47 z m 780 1153 l 0 1153 l 0 -280 l 780 -280 l 780 1153 z "},"9":{"ha":755,"x_min":0,"x_max":762,"o":"m 366 270 q 152 355 219 274 l 152 355 l 149 353 l 149 355 l 152 358 q 102 517 102 434 l 102 517 l 102 528 q 152 683 102 623 l 152 683 l 157 683 l 157 686 l 155 694 l 174 711 l 176 711 l 176 705 l 182 705 l 184 713 l 182 722 q 367 781 229 771 l 367 781 l 366 644 l 359 644 l 359 642 l 362 633 q 279 522 279 606 l 279 522 l 279 508 q 366 418 296 425 l 366 418 l 366 270 z m 168 326 l 160 315 l 155 315 q 146 320 155 320 l 146 320 l 146 328 l 152 328 q 157 320 157 328 l 157 320 l 160 320 l 160 326 l 168 326 z m 254 445 l 265 445 l 262 461 l 257 461 l 260 458 l 260 456 l 254 445 z m 201 467 l 210 467 l 204 472 l 201 469 l 201 467 z m 174 528 l 184 528 l 184 533 l 168 533 l 168 539 l 165 539 l 165 533 l 174 528 z m 396 1 l 396 149 q 477 239 460 159 l 477 239 l 477 523 q 396 633 477 605 l 396 633 l 396 781 q 574 722 528 770 l 574 722 l 571 713 l 574 705 l 579 705 l 579 711 l 582 711 l 602 694 l 599 686 l 599 684 l 604 684 q 654 528 654 623 l 654 528 l 654 248 q 604 90 654 165 l 604 90 l 607 87 l 607 84 l 604 87 q 396 1 538 6 l 396 1 z m 596 45 l 588 56 l 596 56 l 596 51 l 599 51 q 604 59 599 59 l 604 59 l 610 59 l 610 51 q 602 45 602 51 l 602 45 l 596 45 z m 546 292 l 570 292 l 558 309 l 558 314 l 564 318 l 552 318 l 546 292 z m 546 198 l 554 198 l 554 201 l 551 203 l 546 198 z m 571 528 l 582 528 l 591 534 l 591 540 l 588 540 l 588 534 l 571 534 l 571 528 z m 762 1153 l 0 1153 l 0 -280 l 762 -280 l 762 1153 z "},"\u0000":{"ha":0,"x_min":null,"x_max":null,"o":""},"\u001d":{"ha":0,"x_min":null,"x_max":null,"o":""}," ":{"ha":406,"x_min":0,"x_max":415,"o":"m 415 1153 l 0 1153 l 0 -280 l 415 -280 l 415 1153 z "}," ":{"ha":406,"x_min":0,"x_max":415,"o":"m 415 1153 l 0 1153 l 0 -280 l 415 -280 l 415 1153 z "},"!":{"ha":380,"x_min":0,"x_max":390,"o":"m 102 143 l 279 143 l 279 136 q 265 124 273 124 l 265 124 l 271 119 l 279 121 l 279 45 l 273 45 q 268 58 273 58 l 268 58 l 251 66 l 251 64 q 268 56 251 59 l 268 56 l 271 41 l 271 39 l 262 31 l 256 31 l 240 45 l 240 41 l 254 25 l 251 17 l 254 17 q 271 28 271 17 l 271 28 l 279 28 l 279 5 l 273 0 l 256 0 l 248 5 l 243 0 l 223 0 q 218 8 218 0 l 218 8 l 201 8 q 195 0 201 0 l 195 0 l 182 0 l 165 14 l 163 14 l 163 0 l 130 0 l 130 8 l 113 8 l 113 5 l 119 5 l 119 0 l 107 0 l 102 5 l 102 8 l 107 17 l 107 31 l 102 31 l 102 56 l 113 72 q 104 80 113 80 l 104 80 l 102 83 l 102 102 l 107 108 l 119 108 l 127 102 l 135 102 l 132 105 l 119 111 l 113 127 l 107 127 l 107 113 l 102 113 l 102 143 z m 163 766 l 157 772 l 152 763 l 155 763 l 163 766 z m 190 747 l 187 747 l 187 741 l 190 739 l 195 739 l 195 741 l 190 747 z m 207 711 l 187 703 l 187 700 l 220 686 l 223 684 l 226 684 l 223 697 l 223 703 l 229 711 l 207 711 z m 240 684 l 229 684 l 235 677 l 240 677 l 240 684 z m 119 677 l 115 677 l 115 672 l 121 667 l 124 669 l 124 672 l 119 677 z m 259 461 l 256 461 l 256 436 l 262 436 l 265 444 l 259 461 z m 271 395 l 268 395 l 262 381 l 262 378 l 273 381 l 271 395 z m 130 378 l 124 378 l 124 365 l 130 365 l 130 378 z m 207 365 l 207 365 l 212 359 q 240 376 237 368 l 240 376 l 237 378 q 207 365 224 365 z m 163 365 l 157 365 l 157 359 l 163 354 l 163 365 z m 107 354 l 107 354 l 121 343 l 130 343 q 107 354 130 350 z m 179 349 l 174 349 l 174 338 l 182 338 l 182 340 l 179 349 z m 273 351 l 279 351 l 279 323 l 273 323 l 273 329 l 271 349 l 273 351 z m 190 310 l 184 310 l 184 307 l 212 288 l 212 299 q 198 323 198 308 l 198 323 q 190 310 194 323 l 190 310 z m 115 307 l 115 307 l 115 304 q 132 294 124 304 l 132 294 l 135 294 l 143 302 l 135 315 l 132 315 q 115 307 123 307 z m 168 315 l 163 315 l 160 299 l 168 291 l 168 286 l 155 283 l 146 283 l 140 269 l 140 266 l 146 260 l 149 260 l 163 263 l 165 250 l 168 250 l 168 266 q 174 277 174 266 l 174 277 l 176 280 l 179 280 l 190 277 l 190 280 q 174 291 190 286 l 174 291 l 171 304 l 171 307 l 176 307 l 176 310 q 168 315 168 310 l 168 315 z m 273 302 l 256 299 l 256 294 l 273 294 l 273 302 z m 243 277 l 226 263 l 218 266 l 218 255 l 226 255 q 245 271 226 266 l 245 271 l 245 277 l 243 277 z m 104 266 l 104 269 q 119 252 119 267 l 119 252 q 107 238 107 246 l 107 238 l 102 238 l 102 263 l 104 266 z m 248 246 l 237 243 l 237 238 q 248 246 248 243 l 248 246 z m 187 243 l 176 233 l 184 233 l 187 235 l 190 235 l 187 243 z m 212 233 l 204 233 l 204 230 q 223 216 204 226 l 223 216 l 223 222 q 215 230 215 222 l 215 230 l 212 233 z m 168 208 l 168 208 l 168 205 q 179 195 179 205 l 179 195 l 184 195 q 198 216 184 208 l 198 216 q 168 208 168 214 z m 229 211 l 220 208 l 220 205 l 232 205 l 229 208 l 229 211 z m 130 208 l 130 208 q 124 197 130 197 l 124 197 l 115 200 l 113 197 l 113 189 q 121 180 121 189 l 121 180 l 124 180 q 138 195 124 195 l 138 195 l 146 195 q 130 208 141 205 z m 279 178 l 251 178 l 251 189 q 231 178 236 184 l 231 178 l 157 178 l 163 183 l 157 183 l 152 178 l 102 178 l 102 222 l 107 227 l 110 227 l 127 222 l 127 219 l 140 222 l 163 222 q 152 227 163 227 l 152 227 l 152 233 l 132 233 l 127 238 l 130 250 q 119 280 119 250 l 119 280 l 115 277 l 107 277 l 102 283 l 102 304 l 110 304 l 107 307 l 107 310 l 110 318 l 102 332 l 102 774 l 107 780 l 273 780 l 279 774 l 279 711 l 273 705 l 268 705 q 254 722 268 712 l 254 722 l 254 728 l 251 728 l 248 725 l 245 725 l 262 700 l 248 689 l 251 689 l 276 703 l 279 700 l 279 357 l 265 357 l 251 365 q 240 354 251 354 l 240 354 q 235 338 240 338 l 235 338 l 220 338 l 212 343 l 207 334 l 210 332 l 226 332 l 226 326 q 248 313 239 326 l 248 313 l 254 321 q 245 326 245 321 l 245 326 l 245 343 l 262 343 l 268 338 l 268 323 q 259 318 259 323 l 259 318 q 279 304 271 318 l 279 304 l 279 271 l 259 250 l 273 250 l 273 260 l 279 260 l 279 178 z m 171 141 l 168 141 l 168 136 q 160 130 160 136 l 160 130 l 168 130 l 171 138 l 171 141 z m 146 130 l 140 124 l 149 124 l 155 130 l 146 130 z m 184 80 l 171 72 l 171 69 l 176 69 q 184 75 176 75 l 184 75 l 184 80 z m 201 80 l 201 80 l 201 77 l 207 69 l 207 64 q 195 56 207 56 l 195 56 l 195 53 l 210 53 l 212 66 q 201 80 207 79 z m 157 69 l 149 69 l 149 64 l 152 64 l 157 69 z m 179 41 l 165 41 l 171 36 l 179 36 l 179 41 z m 152 31 l 140 25 l 146 17 l 155 20 l 152 31 z m 235 25 l 226 25 l 226 20 l 235 20 l 235 25 z m 390 1153 l 0 1153 l 0 -280 l 390 -280 l 390 1153 z "},"\"":{"ha":587,"x_min":0,"x_max":591,"o":"m 270 888 l 277 888 q 246 863 277 870 l 246 863 l 243 865 l 243 860 l 246 857 l 243 854 l 243 851 l 252 843 l 270 857 l 277 857 l 277 854 l 273 851 l 273 848 l 277 846 l 273 832 l 273 810 l 277 796 l 273 796 l 277 793 l 277 785 l 273 777 l 277 764 l 277 716 l 270 694 l 277 688 l 277 686 l 273 683 l 277 680 l 277 570 l 270 565 l 267 565 l 267 568 l 270 581 l 267 584 l 263 584 l 256 562 l 267 559 l 267 553 l 206 553 q 223 584 209 574 l 223 584 l 223 601 l 230 601 l 230 617 q 243 628 243 617 l 243 628 l 239 628 q 209 614 209 622 l 209 614 q 199 606 209 606 l 199 606 l 196 604 l 196 601 q 209 592 209 601 l 209 592 l 216 584 l 203 568 l 203 562 l 206 559 l 206 556 l 182 553 l 138 553 l 136 556 l 132 553 l 129 553 l 106 556 l 109 576 l 102 581 l 102 587 l 106 587 l 102 606 l 102 639 l 106 642 l 102 644 l 102 664 l 106 667 l 102 669 l 102 686 l 106 697 l 102 708 l 102 728 l 109 733 l 102 755 l 102 827 q 122 838 102 832 l 122 838 l 122 840 l 112 846 l 116 854 l 112 854 q 102 868 102 854 l 102 868 l 102 884 l 109 884 l 109 871 l 112 871 l 116 873 l 125 871 l 125 868 l 122 865 l 122 863 l 125 860 l 142 860 q 149 868 149 860 l 149 868 l 146 871 l 146 873 l 149 882 l 146 879 l 142 882 l 138 882 l 129 879 l 112 884 l 112 890 l 153 890 l 156 888 l 159 890 l 230 890 l 230 888 q 203 879 230 882 l 203 879 l 203 876 q 230 871 223 876 l 230 871 l 233 871 l 252 888 l 263 888 l 267 884 l 270 888 z m 270 793 l 263 799 l 259 799 l 263 791 l 270 791 l 270 793 z m 270 780 l 267 788 l 259 788 l 259 785 l 263 777 l 270 777 l 270 780 z m 263 672 l 256 677 q 243 658 256 669 l 243 658 q 252 650 252 658 l 252 650 q 236 631 248 650 l 236 631 l 243 631 q 263 655 243 644 l 263 655 l 263 672 z m 236 785 l 243 791 l 233 791 l 233 785 l 236 785 z m 236 838 l 236 843 q 209 829 218 843 l 209 829 l 233 815 l 236 815 l 236 818 q 230 829 230 818 l 230 829 l 223 829 l 223 832 l 230 832 l 236 838 z m 219 703 l 223 711 l 216 711 l 216 697 l 223 697 l 219 700 l 219 703 z m 209 788 l 216 799 l 212 799 l 203 796 l 203 793 l 209 788 z m 209 647 l 209 655 l 196 652 l 196 647 l 203 642 l 209 647 z m 203 857 l 203 857 l 196 857 l 196 851 q 190 843 190 851 l 190 843 l 165 843 l 165 838 l 182 835 q 203 857 203 850 z m 190 650 l 190 652 l 176 652 l 176 650 l 190 650 z m 182 595 l 182 601 l 165 598 l 176 589 l 182 595 z m 176 802 l 176 810 l 165 804 l 159 818 q 149 807 154 818 l 149 807 q 159 793 155 807 l 159 793 l 156 791 l 169 793 l 165 796 l 165 802 l 176 802 z m 172 680 l 169 694 l 156 694 l 153 686 l 172 680 z m 163 846 l 156 860 l 153 860 l 153 857 l 156 843 l 163 843 l 163 846 z m 159 655 l 159 661 l 153 661 l 129 652 l 129 650 l 149 650 q 159 655 149 655 l 159 655 z m 122 722 l 125 733 l 116 733 l 116 730 l 119 722 l 122 722 z m 125 650 l 125 655 q 116 661 116 655 l 116 661 l 109 661 l 116 650 l 125 650 z m 478 888 l 485 888 q 454 863 485 870 l 454 863 l 451 865 l 451 860 l 454 857 l 451 854 l 451 851 l 461 843 l 478 857 l 485 857 l 485 854 l 481 851 l 481 848 l 485 846 l 481 832 l 481 810 l 485 796 l 481 796 l 485 793 l 485 785 l 481 777 l 485 764 l 485 716 l 478 694 l 485 688 l 485 686 l 481 683 l 485 680 l 485 570 l 478 565 l 475 565 l 475 568 l 478 581 l 475 584 l 472 584 l 464 562 l 475 559 l 475 553 l 414 553 q 431 584 418 574 l 431 584 l 431 601 l 438 601 l 438 617 q 451 628 451 617 l 451 628 l 448 628 q 418 614 418 622 l 418 614 q 408 606 418 606 l 408 606 l 404 604 l 404 601 q 418 592 418 601 l 418 592 l 424 584 l 411 568 l 411 562 l 414 559 l 414 556 l 391 553 l 347 553 l 344 556 l 340 553 l 337 553 l 314 556 l 317 576 l 310 581 l 310 587 l 314 587 l 310 606 l 310 639 l 314 642 l 310 644 l 310 664 l 314 667 l 310 669 l 310 686 l 314 697 l 310 708 l 310 728 l 317 733 l 310 755 l 310 827 q 331 838 310 832 l 331 838 l 331 840 l 320 846 l 324 854 l 320 854 q 310 868 310 854 l 310 868 l 310 884 l 317 884 l 317 871 l 320 871 l 324 873 l 334 871 l 334 868 l 331 865 l 331 863 l 334 860 l 350 860 q 357 868 357 860 l 357 868 l 354 871 l 354 873 l 357 882 l 354 879 l 350 882 l 347 882 l 337 879 l 320 884 l 320 890 l 361 890 l 364 888 l 368 890 l 438 890 l 438 888 q 411 879 438 882 l 411 879 l 411 876 q 438 871 431 876 l 438 871 l 441 871 l 461 888 l 472 888 l 475 884 l 478 888 z m 478 793 l 472 799 l 467 799 l 472 791 l 478 791 l 478 793 z m 478 780 l 475 788 l 467 788 l 467 785 l 472 777 l 478 777 l 478 780 z m 472 672 l 464 677 q 451 658 464 669 l 451 658 q 461 650 461 658 l 461 650 q 445 631 456 650 l 445 631 l 451 631 q 472 655 451 644 l 472 655 l 472 672 z m 445 785 l 451 791 l 441 791 l 441 785 l 445 785 z m 445 838 l 445 843 q 418 829 426 843 l 418 829 l 441 815 l 445 815 l 445 818 q 438 829 438 818 l 438 829 l 431 829 l 431 832 l 438 832 l 445 838 z m 427 703 l 431 711 l 424 711 l 424 697 l 431 697 l 427 700 l 427 703 z m 418 788 l 424 799 l 420 799 l 411 796 l 411 793 l 418 788 z m 418 647 l 418 655 l 404 652 l 404 647 l 411 642 l 418 647 z m 411 857 l 411 857 l 404 857 l 404 851 q 398 843 398 851 l 398 843 l 374 843 l 374 838 l 391 835 q 411 857 411 850 z m 398 650 l 398 652 l 384 652 l 384 650 l 398 650 z m 391 595 l 391 601 l 374 598 l 384 589 l 391 595 z m 384 802 l 384 810 l 374 804 l 368 818 q 357 807 362 818 l 357 807 q 368 793 363 807 l 368 793 l 364 791 l 377 793 l 374 796 l 374 802 l 384 802 z m 380 680 l 377 694 l 364 694 l 361 686 l 380 680 z m 371 846 l 364 860 l 361 860 l 361 857 l 364 843 l 371 843 l 371 846 z m 368 655 l 368 661 l 361 661 l 337 652 l 337 650 l 357 650 q 368 655 357 655 l 368 655 z m 331 722 l 334 733 l 324 733 l 324 730 l 328 722 l 331 722 z m 334 650 l 334 655 q 324 661 324 655 l 324 661 l 317 661 l 324 650 l 334 650 z m 591 1153 l 0 1153 l 0 -280 l 591 -280 l 591 1153 z "},"#":{"ha":966,"x_min":0,"x_max":978,"o":"m 254 210 l 248 216 l 243 208 l 245 208 l 254 210 z m 452 258 l 452 264 l 433 264 l 426 258 l 426 255 l 443 258 l 452 258 z m 458 297 l 458 302 l 446 319 l 439 319 l 437 316 l 439 308 q 452 302 452 308 l 452 302 l 456 300 l 458 297 z m 462 272 l 462 275 l 456 280 l 452 280 l 452 275 l 456 272 l 462 272 z m 497 324 l 497 330 l 494 332 l 475 330 l 475 327 l 491 324 l 497 324 z m 504 233 l 504 239 l 500 239 q 491 233 500 233 l 491 233 l 491 231 l 500 231 l 504 233 z m 456 345 l 456 355 l 450 350 l 456 345 z m 526 241 l 526 244 l 517 247 l 510 241 l 526 241 z m 475 330 l 475 336 l 472 338 l 469 338 l 472 330 l 475 330 z m 469 297 l 475 302 l 463 302 l 463 297 l 469 297 z m 532 315 l 532 315 l 534 317 l 534 321 l 532 323 l 529 320 q 532 315 531 319 z m 541 259 l 541 275 l 535 267 l 541 259 z m 541 278 l 541 283 l 538 281 l 541 278 z m 359 319 l 355 321 l 355 316 l 358 314 q 359 319 358 317 l 359 319 z m 349 282 l 349 278 l 351 280 l 349 282 z m 349 260 l 350 260 l 355 267 l 349 274 l 349 260 z m 494 351 l 494 351 l 496 352 l 496 353 q 494 351 495 351 z m 393 351 l 395 350 q 394 352 395 351 l 394 352 l 393 351 z m 575 279 l 576 275 q 593 286 593 281 l 593 286 l 583 286 l 583 288 l 574 286 l 574 284 l 576 283 l 576 280 l 575 279 z m 304 292 l 307 289 q 316 302 308 302 l 316 302 l 310 308 l 304 308 l 304 292 z m 316 286 l 307 289 l 307 286 l 296 286 q 316 275 296 281 l 316 275 l 316 278 l 313 281 l 313 283 l 316 286 z m 267 346 l 267 341 l 269 341 l 269 352 l 261 347 l 261 341 l 262 341 l 262 346 l 267 346 z m 307 348 l 310 349 l 307 352 l 300 352 l 300 349 l 307 348 z m 319 335 l 319 336 l 316 336 l 323 330 l 325 332 l 319 335 z m 500 259 l 502 258 l 506 258 l 505 264 l 500 259 z m 519 291 l 521 298 l 517 298 l 515 294 l 515 291 l 519 291 z m 372 297 l 368 298 l 371 292 l 374 292 l 374 294 l 372 297 z m 450 280 l 450 280 l 445 282 l 441 280 q 445 270 445 278 l 445 270 q 450 280 445 278 z m 627 347 l 627 347 l 622 351 l 622 340 l 624 340 q 627 347 625 345 z m 589 351 l 583 351 l 581 349 l 581 346 l 589 349 l 589 351 z m 573 335 l 561 335 l 567 330 l 573 335 z m 676 302 l 667 296 l 654 300 l 631 291 l 625 291 l 615 302 l 618 288 q 605 275 618 275 l 605 275 l 605 272 l 608 269 l 637 291 l 650 291 l 657 286 l 676 300 l 676 302 z m 584 294 l 583 294 q 583 288 583 292 l 583 288 l 586 291 l 586 308 l 581 308 l 573 302 l 575 302 l 581 305 l 584 294 z m 583 218 l 583 218 l 588 218 l 591 220 l 593 220 l 591 228 l 584 222 q 583 218 583 220 z m 651 231 l 640 228 l 640 223 q 651 231 651 227 l 651 231 z m 646 260 l 629 247 l 621 250 l 621 239 l 629 239 q 648 255 629 250 l 648 255 l 648 260 l 646 260 z m 571 252 l 571 250 q 576 260 576 250 l 576 260 l 580 263 l 583 263 l 593 260 l 593 263 q 576 274 593 269 l 576 274 l 576 275 q 573 275 575 275 l 573 275 l 573 277 l 575 279 l 574 284 l 573 286 l 574 286 l 574 287 l 574 290 l 580 290 l 580 292 l 576 292 l 574 294 q 571 298 571 295 l 571 298 l 566 298 l 563 281 l 571 274 l 571 269 l 557 266 l 549 266 l 543 252 l 543 250 l 549 244 l 552 244 l 565 247 l 559 252 l 571 252 z m 571 246 l 566 246 l 568 235 q 571 237 570 236 l 571 237 l 571 246 z m 628 340 l 624 340 q 623 338 624 340 l 623 338 l 618 338 l 618 335 l 646 316 l 646 327 q 631 351 631 336 l 631 351 q 627 347 629 351 l 627 347 l 628 346 l 628 340 z m 583 330 l 576 330 l 576 319 l 585 319 l 585 322 l 583 330 z m 566 346 l 560 346 l 560 340 l 566 335 l 566 346 z m 292 228 l 281 218 l 290 218 l 292 220 l 295 220 l 292 228 z m 353 231 l 342 228 l 342 223 q 353 231 353 227 l 353 231 z m 349 258 l 349 260 l 347 260 l 331 247 l 323 250 l 323 239 l 331 239 q 350 255 331 250 l 350 255 l 350 260 l 350 260 l 349 258 z m 329 336 l 325 332 l 347 316 l 347 327 q 333 351 333 336 l 333 351 q 325 338 328 351 l 325 338 l 319 338 l 319 336 l 329 336 z m 284 330 l 278 330 l 278 319 l 287 319 l 287 322 l 284 330 z m 267 341 l 262 341 l 262 340 l 267 335 l 267 341 z m 534 471 l 534 477 l 514 477 l 507 471 l 507 468 l 524 471 l 534 471 z m 540 510 l 540 515 l 527 532 l 521 532 l 518 529 l 521 521 q 534 515 534 521 l 534 515 l 537 513 l 540 510 z m 543 485 l 543 488 l 537 493 l 534 493 l 534 488 l 537 485 l 543 485 z m 578 538 l 578 543 l 575 546 l 556 543 l 556 541 l 572 538 l 578 538 z m 585 446 l 585 452 l 582 452 q 572 446 582 446 l 572 446 l 572 444 l 582 444 l 585 446 z m 538 557 l 538 568 l 531 563 l 538 557 z m 608 454 l 608 457 l 598 460 l 591 454 l 608 454 z m 557 544 l 557 549 l 553 552 l 551 552 l 553 544 l 557 544 z m 551 511 l 557 516 l 545 516 l 545 511 l 551 511 z m 613 528 l 613 528 l 616 530 l 616 534 l 613 536 l 610 533 q 613 528 612 532 z m 622 473 l 622 488 l 616 480 l 622 473 z m 622 492 l 622 496 l 620 494 l 622 492 z m 441 533 l 441 533 l 438 536 l 436 535 l 436 530 l 439 528 q 441 533 439 531 z m 430 495 l 430 491 l 432 493 l 430 495 z m 430 473 l 431 473 l 436 479 l 430 487 l 430 473 z m 576 564 l 576 564 l 578 566 l 578 566 q 576 564 576 565 z m 475 565 l 477 563 q 475 566 476 564 l 475 566 l 475 565 z m 656 492 l 657 489 q 674 498 674 495 l 674 498 l 665 498 l 665 501 l 656 498 l 656 498 l 658 496 l 658 493 l 656 492 z m 385 505 l 388 502 q 397 516 389 516 l 397 516 l 391 522 l 385 522 l 385 505 z m 397 499 l 388 502 l 388 499 l 378 499 q 397 488 378 495 l 397 488 l 397 491 l 394 494 l 394 496 l 397 499 z m 349 559 l 349 555 l 350 555 l 350 566 l 342 560 l 342 555 l 343 555 l 343 559 l 349 559 z m 388 566 l 381 566 l 381 563 l 391 560 l 391 563 l 388 566 z m 401 549 l 401 549 l 397 549 l 404 543 l 406 545 l 401 549 z m 582 473 l 583 471 l 587 471 l 586 477 l 582 473 z m 600 504 l 602 511 l 598 511 l 597 507 l 597 504 l 600 504 z m 454 511 l 450 511 l 452 505 l 455 505 l 455 507 l 454 511 z m 531 493 l 531 493 l 526 495 l 522 493 q 526 483 526 491 l 526 483 q 531 493 526 492 z m 708 560 l 708 560 l 703 565 l 703 554 l 705 554 q 708 560 707 558 z m 671 565 l 665 565 l 662 562 l 662 559 l 671 562 l 671 565 z m 654 549 l 642 549 l 648 543 l 654 549 z m 758 515 l 749 509 l 735 513 l 713 504 l 707 504 l 696 515 l 700 501 q 686 488 700 488 l 686 488 l 686 485 l 690 482 l 719 504 l 732 504 l 739 498 l 758 513 l 758 515 z m 665 501 l 665 501 l 667 504 l 667 521 l 662 521 l 654 515 q 665 501 663 515 z m 637 378 l 629 378 l 629 373 l 637 373 l 637 378 z m 580 293 l 580 292 l 583 294 q 575 302 581 300 l 575 302 l 570 300 l 574 294 q 580 293 576 293 l 580 293 z m 609 315 l 595 315 l 600 310 l 609 310 l 609 315 z m 587 342 l 578 342 l 578 337 l 581 337 l 587 342 z m 604 432 l 604 432 l 604 429 l 610 421 l 610 416 q 598 408 610 408 l 598 408 l 598 406 l 612 406 l 615 418 q 604 432 610 431 z m 614 353 l 600 345 l 600 342 l 606 342 q 614 348 606 348 l 614 348 l 614 353 z m 743 612 l 738 606 l 746 606 l 751 612 l 743 612 z m 768 623 l 765 623 l 765 618 q 757 612 757 618 l 757 612 l 765 612 l 768 621 l 768 623 z m 710 596 l 702 596 l 699 584 l 707 584 l 710 596 z m 754 661 l 749 655 l 754 655 l 760 661 l 754 661 z m 665 593 l 665 593 l 665 590 l 668 590 q 690 603 669 603 l 690 603 l 690 614 q 665 593 665 606 z m 782 717 l 782 717 q 777 706 782 706 l 777 706 l 768 709 l 765 706 l 765 698 q 774 690 774 698 l 774 690 l 777 690 q 790 704 777 704 l 790 704 l 799 704 q 782 717 793 713 z m 713 409 l 705 406 l 705 404 l 716 404 l 713 406 l 713 409 z m 652 406 l 652 406 l 652 404 q 664 393 664 404 l 664 393 l 669 393 q 683 414 669 406 l 683 414 q 652 406 652 412 z m 697 431 l 689 431 l 689 428 q 708 414 689 424 l 708 414 l 708 420 q 700 428 700 420 l 700 428 l 697 431 z m 665 431 l 665 431 l 669 431 l 672 433 l 675 433 l 672 441 l 665 435 q 665 431 665 433 z m 732 444 l 722 441 l 722 436 q 732 444 732 440 l 732 444 z m 727 473 l 711 460 l 703 463 l 703 452 l 711 452 q 730 468 711 463 l 730 468 l 730 473 l 727 473 z m 652 451 l 652 451 l 652 463 q 658 473 658 463 l 658 473 l 661 476 l 664 476 l 675 473 l 675 476 q 658 487 675 481 l 658 487 l 657 489 q 654 488 656 488 l 654 488 l 654 490 l 656 492 l 656 498 l 654 498 l 656 498 l 655 500 l 655 503 l 661 503 l 661 506 q 652 511 652 506 l 652 511 l 647 511 l 644 495 l 652 487 l 652 481 l 639 479 l 631 479 l 625 465 l 625 463 l 631 457 l 633 457 l 647 460 l 650 448 q 652 451 651 449 z m 707 731 l 707 731 l 707 728 q 724 718 715 728 l 724 718 l 726 718 l 734 725 l 726 739 l 724 739 q 707 731 714 731 z m 709 554 l 705 554 q 705 551 705 553 l 705 551 l 699 551 l 699 549 l 727 530 l 727 540 q 713 564 713 549 l 713 564 q 708 560 711 564 l 708 560 l 709 559 l 709 554 z m 664 543 l 658 543 l 658 533 l 667 533 l 667 536 l 664 543 z m 647 559 l 642 559 l 642 554 l 647 549 l 647 559 z m 718 631 l 718 631 l 724 625 q 751 641 748 633 l 751 641 l 749 644 q 718 631 735 631 z m 654 329 l 651 329 l 651 323 l 657 319 l 660 321 l 660 323 l 654 329 z m 566 247 l 565 247 l 566 246 l 566 247 z m 511 60 l 492 52 l 492 49 l 525 36 l 528 33 l 530 33 l 528 46 l 528 52 l 533 60 l 511 60 z m 533 159 l 530 159 l 530 154 l 533 151 l 538 151 l 538 154 l 533 159 z m 552 210 l 547 216 l 541 208 l 544 208 l 552 210 z m 339 378 l 330 378 l 330 373 l 339 373 l 339 378 z m 311 315 l 296 315 l 302 310 l 311 310 l 311 315 z m 288 342 l 280 342 l 280 337 l 283 337 l 288 342 z m 309 430 l 305 430 l 305 429 l 311 421 l 311 416 q 300 408 311 408 l 300 408 l 300 406 l 314 406 l 317 418 q 309 430 313 427 l 309 430 z m 310 347 l 307 348 l 302 345 l 302 342 l 308 342 q 316 348 308 348 l 316 348 l 316 353 l 310 349 l 310 347 z m 445 612 l 439 606 l 448 606 l 453 612 l 445 612 z m 469 623 l 467 623 l 467 618 q 458 612 458 618 l 458 612 l 467 612 l 469 621 l 469 623 z m 412 596 l 404 596 l 400 584 l 409 584 l 412 596 z m 456 661 l 450 655 l 456 655 l 461 661 l 456 661 z m 367 593 l 367 593 l 367 590 l 370 590 q 392 603 371 603 l 392 603 l 392 614 q 367 593 367 606 z m 484 717 l 484 717 q 478 706 484 706 l 478 706 l 469 709 l 467 706 l 467 698 q 475 690 475 698 l 475 690 l 478 690 q 492 704 478 704 l 492 704 l 500 704 q 484 717 495 713 z m 415 409 l 407 406 l 407 404 l 418 404 l 415 406 l 415 409 z m 354 406 l 354 406 l 354 404 q 366 393 366 404 l 366 393 l 371 393 q 385 414 371 406 l 385 414 q 354 406 354 412 z m 394 430 l 391 430 l 391 428 q 410 414 391 424 l 410 414 l 410 420 q 401 428 401 420 l 401 428 l 399 431 l 396 431 l 394 430 z m 374 441 l 363 431 l 371 431 l 374 433 l 376 433 l 374 441 z m 434 444 l 423 441 l 423 436 q 434 444 434 440 l 434 444 z m 430 471 l 430 473 l 429 473 l 412 460 l 404 463 l 404 452 l 412 452 q 431 468 412 463 l 431 468 l 431 473 l 431 473 l 430 471 z m 408 731 l 408 731 l 408 728 q 425 718 417 728 l 425 718 l 428 718 l 436 725 l 428 739 l 425 739 q 408 731 416 731 z m 410 549 l 406 545 l 429 530 l 429 540 q 414 564 414 549 l 414 564 q 406 551 410 564 l 406 551 l 401 551 l 401 549 l 410 549 z m 366 543 l 359 543 l 359 533 l 368 533 l 368 536 l 366 543 z m 349 555 l 343 555 l 343 554 l 349 549 l 349 555 z m 420 631 l 420 631 l 425 625 q 453 641 450 633 l 453 641 l 450 644 q 420 631 437 631 z m 359 319 l 359 319 l 361 321 l 361 323 l 356 329 l 353 329 l 353 323 l 355 321 l 357 323 l 360 320 q 359 319 359 319 z m 213 60 l 193 52 l 193 49 l 227 36 l 229 33 l 232 33 l 229 46 l 229 52 l 235 60 l 213 60 z m 235 159 l 232 159 l 232 154 l 235 151 l 240 151 l 240 154 l 235 159 z m 267 246 l 273 246 l 273 252 l 261 252 l 267 247 l 267 247 l 267 246 z m 481 247 l 481 250 l 491 258 l 478 258 l 475 247 l 481 247 z m 385 304 l 384 302 l 386 302 l 385 304 z m 513 305 l 509 308 l 503 302 l 503 302 l 510 300 l 513 302 l 513 305 z m 214 299 l 215 301 l 213 302 l 213 300 l 214 299 z m 388 259 l 385 264 l 384 258 l 387 258 l 388 259 z m 563 460 l 563 463 l 572 471 l 559 471 l 556 460 l 563 460 z m 465 518 l 464 515 l 467 516 l 465 518 z m 594 518 l 590 521 l 584 516 l 584 515 l 591 514 l 594 516 l 594 518 z m 295 513 l 296 515 l 294 516 l 294 513 l 295 513 z m 469 473 l 467 477 l 465 471 l 469 471 l 469 473 z m 274 300 l 271 300 l 273 297 l 274 300 z m 267 293 l 264 281 l 281 270 l 283 272 q 278 274 281 273 l 278 274 l 277 276 q 271 289 271 279 l 271 289 l 273 297 l 273 298 l 271 298 l 267 293 z m 281 292 l 281 293 q 276 294 278 293 l 276 294 l 277 292 l 281 292 z m 365 485 q 359 487 363 486 l 359 487 l 359 490 q 353 502 353 492 l 353 502 l 354 510 l 354 511 l 352 511 l 348 506 l 346 495 l 362 483 l 365 485 z m 273 234 l 273 250 q 278 260 278 250 l 278 260 l 281 263 l 284 263 l 295 260 l 295 263 q 283 272 295 267 l 283 272 l 284 273 l 284 275 q 277 276 280 275 l 277 276 l 275 287 l 275 290 l 281 290 l 281 292 l 286 294 l 283 305 l 274 300 l 274 302 l 271 300 l 271 298 l 267 298 l 267 293 l 265 292 l 258 292 l 236 300 l 222 297 l 215 301 l 295 513 l 314 499 l 320 505 l 333 505 l 346 495 l 354 487 l 354 481 l 340 479 l 332 479 l 326 465 l 326 463 l 332 457 l 335 457 l 349 460 l 351 447 l 354 447 l 354 463 q 359 473 359 463 l 359 473 l 363 476 l 366 476 l 376 473 l 376 476 q 365 485 376 481 l 365 485 l 366 486 l 366 488 q 359 490 361 488 l 359 490 l 357 500 l 357 503 l 363 503 l 363 506 q 354 510 355 506 l 354 510 l 355 516 l 352 511 l 349 511 l 348 506 l 347 505 l 339 505 l 317 513 l 304 510 l 296 515 l 395 780 l 564 780 l 465 518 l 461 521 l 458 519 l 458 519 l 458 515 l 460 514 l 464 515 l 385 304 l 380 308 l 377 305 l 377 305 l 377 302 l 378 301 l 384 302 l 270 0 l 102 0 l 214 299 l 233 286 l 239 292 l 252 292 l 264 281 l 273 274 l 273 269 l 259 266 l 251 266 l 245 252 l 245 250 l 251 244 l 254 244 l 267 247 l 267 246 l 270 234 l 273 234 z m 405 279 l 405 278 l 404 278 l 405 279 z m 405 300 l 415 307 l 418 309 l 415 308 l 424 333 l 425 333 l 425 334 l 435 363 l 445 363 q 450 363 448 363 l 450 363 l 494 363 l 494 363 l 512 363 l 486 292 l 475 294 l 466 294 q 459 286 466 286 l 459 286 l 459 280 l 479 291 q 484 288 481 289 l 484 288 l 469 246 l 468 247 l 465 247 l 465 244 l 468 243 l 464 231 l 449 231 l 437 241 l 423 236 l 401 247 l 398 247 q 417 225 401 234 l 417 225 l 461 225 l 458 216 l 382 216 l 401 269 l 415 256 l 418 256 l 411 264 l 415 275 l 408 288 l 405 294 l 405 300 z m 703 264 l 703 255 l 699 252 l 709 252 l 709 233 l 703 227 q 691 229 695 227 l 691 229 l 703 264 z m 715 301 l 718 296 l 718 294 l 715 291 l 718 288 l 718 286 q 709 283 713 286 l 709 283 l 715 301 z m 735 362 l 741 357 l 741 349 l 738 349 l 734 346 l 738 343 q 751 332 738 332 l 751 332 q 757 340 751 340 l 757 340 l 763 313 l 751 313 l 751 308 q 763 300 763 308 l 763 300 l 783 286 l 783 263 l 773 263 l 773 252 l 779 244 l 779 227 l 776 224 q 763 216 763 224 l 763 216 l 722 216 l 715 222 l 715 224 l 728 224 l 728 252 q 741 260 741 252 l 741 260 l 732 260 l 732 267 q 747 275 747 268 l 747 275 l 747 280 q 738 300 738 290 l 738 300 l 741 313 l 728 319 q 719 313 722 316 l 719 313 l 735 362 z m 168 217 l 126 217 q 114 225 126 225 l 114 225 l 110 228 l 110 245 l 117 253 l 117 264 l 106 264 l 106 286 l 126 300 q 139 308 126 308 l 139 308 l 139 313 l 126 313 l 133 341 q 139 333 139 341 l 139 333 q 152 344 152 333 l 152 344 l 155 347 l 152 349 l 149 349 l 149 357 l 155 363 l 174 363 l 187 355 q 194 363 187 363 l 194 363 l 210 363 l 181 283 q 171 286 176 286 l 171 286 l 171 289 l 174 292 l 171 294 l 171 297 l 178 305 q 162 319 176 313 l 162 319 l 149 313 l 152 300 q 142 281 152 291 l 142 281 l 142 275 q 159 267 142 269 l 159 267 l 159 261 l 149 261 q 162 253 149 253 l 162 253 l 162 225 l 174 225 l 174 222 l 168 217 z m 783 332 l 783 316 l 770 316 l 770 327 l 776 332 l 783 332 z m 692 222 l 687 218 l 686 216 l 657 216 l 657 219 l 670 230 l 680 230 l 689 224 l 692 222 z m 106 316 l 106 333 l 114 333 l 120 327 l 120 316 l 106 316 z m 486 492 l 486 492 l 486 492 l 486 492 z m 486 513 l 496 519 l 499 522 l 496 522 l 505 547 l 506 547 l 506 547 l 516 576 l 526 576 q 532 576 529 576 l 532 576 l 575 576 l 575 576 l 593 576 l 567 505 l 557 507 l 547 507 q 541 498 547 498 l 541 498 l 541 493 l 560 504 q 566 501 562 503 l 566 501 l 551 460 l 549 460 l 546 460 l 546 457 l 549 456 l 545 444 l 530 444 l 518 454 l 505 449 l 483 460 l 479 460 q 498 438 483 447 l 498 438 l 543 438 l 540 430 l 464 430 l 483 482 l 496 469 l 499 469 l 492 477 l 496 489 l 490 501 l 486 508 l 486 513 z m 784 477 l 784 468 l 781 465 l 790 465 l 790 446 l 784 441 q 772 442 777 441 l 772 442 l 784 477 z m 796 514 l 800 509 l 800 507 l 796 504 l 800 501 l 800 498 q 790 496 795 498 l 790 496 l 796 514 z m 817 576 l 822 570 l 822 562 l 819 562 l 816 559 l 819 557 q 832 546 819 546 l 832 546 q 838 554 832 554 l 838 554 l 844 526 l 832 526 l 832 521 q 844 513 844 521 l 844 513 l 864 498 l 864 476 l 854 476 l 854 465 l 861 457 l 861 441 l 857 438 q 844 430 844 438 l 844 430 l 803 430 l 796 435 l 796 438 l 809 438 l 809 465 q 822 473 822 465 l 822 473 l 813 473 l 813 479 q 829 488 829 481 l 829 488 l 829 493 q 819 513 819 503 l 819 513 l 822 526 l 809 532 q 800 526 804 529 l 800 526 l 817 576 z m 250 430 l 208 430 q 195 438 208 438 l 195 438 l 191 441 l 191 458 l 198 466 l 198 477 l 188 477 l 188 499 l 208 513 q 220 522 208 522 l 220 522 l 220 527 l 208 527 l 214 555 q 220 547 220 555 l 220 547 q 233 557 233 547 l 233 557 l 237 560 l 233 563 l 230 563 l 230 571 l 237 576 l 256 576 l 269 568 q 275 576 269 576 l 275 576 l 292 576 l 262 497 q 252 499 258 499 l 252 499 l 252 502 l 256 505 l 252 507 l 252 510 l 259 519 q 243 532 257 526 l 243 532 l 230 527 l 233 513 q 223 494 233 504 l 223 494 l 223 488 q 240 480 223 481 l 240 480 l 240 474 l 230 474 q 243 466 230 466 l 243 466 l 243 438 l 256 438 l 256 435 l 250 430 z m 864 546 l 864 529 l 852 529 l 852 540 l 857 546 l 864 546 z m 773 435 l 768 431 l 768 430 l 739 430 l 739 433 l 751 444 l 761 444 l 770 437 l 773 435 z m 188 530 l 188 547 l 195 547 l 201 541 l 201 530 l 188 530 z m 862 780 l 568 0 l 400 0 l 694 780 l 862 780 z m 273 297 l 276 294 q 273 297 273 294 l 273 297 l 273 297 z m 978 1153 l 0 1153 l 0 -280 l 978 -280 l 978 1153 z "},"$":{"ha":834,"x_min":0,"x_max":842,"o":"m 362 732 l 410 735 l 412 732 l 412 604 q 349 593 412 598 l 349 593 q 367 607 351 603 l 367 607 l 378 604 l 382 604 l 382 609 l 354 609 l 354 604 l 336 604 l 338 591 q 298 546 298 563 l 298 546 l 296 533 l 296 517 q 431 441 296 463 l 431 441 l 433 439 l 431 436 l 431 431 l 441 439 q 635 378 577 409 l 635 378 l 683 338 l 683 336 l 675 336 l 675 341 q 665 352 665 341 l 665 352 l 654 352 l 672 336 l 675 320 l 669 320 l 669 315 l 672 315 l 680 317 l 672 299 l 696 299 q 703 291 696 291 l 703 291 q 714 271 703 283 l 714 271 q 727 246 727 265 l 727 246 l 719 241 l 693 241 q 680 231 693 236 l 680 231 l 662 231 l 662 225 q 680 220 674 225 l 680 220 q 690 225 680 225 l 690 225 l 699 233 q 706 220 702 220 l 706 220 l 709 222 l 711 220 q 727 238 712 238 l 727 238 l 730 236 l 730 218 l 727 215 q 711 210 727 210 l 711 210 q 706 197 711 197 l 706 197 q 696 184 696 197 l 696 184 l 675 184 l 675 181 l 677 168 l 680 168 l 680 173 l 677 176 l 699 184 l 711 184 l 711 178 l 717 178 l 727 184 l 727 199 l 732 199 q 722 123 730 152 l 722 123 l 719 125 l 714 125 l 714 123 l 719 123 q 703 92 716 92 l 703 92 l 696 94 l 696 89 l 706 86 q 686 54 700 70 l 686 54 l 683 57 l 680 57 q 665 31 680 40 l 665 31 l 662 33 l 659 33 l 665 52 l 635 75 l 640 75 l 640 78 l 635 83 l 622 81 l 622 104 q 633 113 622 111 l 633 113 l 633 115 q 612 123 633 121 l 612 123 l 617 115 l 617 97 l 614 97 l 606 100 l 612 92 l 612 86 l 601 75 l 599 78 l 596 75 l 591 75 l 588 78 l 585 78 q 601 97 585 97 l 601 97 l 601 100 l 585 110 l 570 110 l 572 107 l 572 104 l 567 100 q 546 107 548 100 l 546 107 l 549 110 l 543 115 q 564 125 543 125 l 564 125 l 567 128 l 567 131 q 551 144 555 131 l 551 144 q 562 191 562 162 l 562 191 l 575 189 q 585 202 581 202 l 585 202 l 585 204 l 581 210 l 572 210 l 564 204 l 562 204 l 543 228 l 543 231 l 546 231 l 564 228 q 575 236 564 236 l 575 236 l 575 238 l 578 236 l 588 236 l 593 241 l 593 246 q 572 257 579 246 l 572 257 l 564 257 l 556 252 l 517 252 l 509 257 l 499 254 q 480 265 480 260 l 480 265 l 480 268 q 496 278 486 268 l 496 278 q 462 291 483 290 l 462 291 l 462 288 l 446 294 l 444 291 l 417 322 q 396 307 412 307 l 396 307 q 378 294 396 298 l 378 294 l 378 288 l 367 288 q 125 507 125 329 l 125 507 l 125 517 q 362 732 125 700 l 362 732 z m 441 732 l 441 735 q 643 669 554 735 l 643 669 q 686 612 686 626 l 686 612 q 719 509 699 612 l 719 509 l 719 501 l 630 490 l 630 493 l 556 486 q 519 570 546 550 l 519 570 q 438 599 498 588 l 438 599 l 438 604 l 441 620 l 438 646 l 438 730 l 441 732 z m 515 714 l 507 714 l 507 711 l 515 709 l 515 714 z m 570 704 l 562 696 l 572 704 l 570 704 z m 260 683 l 246 677 l 252 672 l 254 672 l 260 677 l 260 683 z m 178 635 l 170 635 l 176 630 l 178 630 l 178 635 z m 648 635 l 630 635 l 630 630 l 614 630 l 614 625 l 627 625 l 640 627 l 646 620 l 654 623 l 654 630 l 648 635 z m 249 630 l 239 630 l 239 625 q 252 620 252 625 l 252 620 l 257 620 l 249 630 z m 606 609 l 596 609 l 596 604 l 606 604 l 606 609 z m 696 572 l 693 572 l 693 559 l 701 554 l 701 557 l 696 572 z m 262 473 l 249 470 l 249 467 l 280 462 l 262 473 z m 309 452 l 301 452 l 301 446 l 309 446 l 309 452 z m 428 425 l 422 425 l 422 422 l 425 409 q 415 393 420 409 l 415 393 l 401 393 l 404 383 l 401 375 q 428 414 428 395 l 428 414 l 428 425 z m 189 420 l 180 417 l 189 409 l 191 417 l 189 420 z m 222 414 l 217 414 l 217 404 l 222 399 l 222 414 z m 257 386 l 246 389 l 244 386 l 244 383 l 257 383 l 257 386 z m 328 386 l 320 389 l 317 386 l 317 383 l 328 383 l 328 386 z m 477 375 l 472 370 l 483 370 l 483 375 l 477 375 z m 210 372 l 199 372 l 204 368 l 210 368 l 210 372 z m 617 368 l 617 368 l 622 355 l 612 349 l 609 352 l 601 352 l 596 347 l 596 344 l 601 336 l 601 325 l 596 315 l 583 315 l 575 320 l 575 309 l 556 309 l 556 307 l 570 302 l 578 309 l 581 309 l 588 304 q 604 315 591 315 l 604 315 l 604 302 l 596 302 l 596 294 l 606 283 l 612 288 l 612 307 l 617 312 l 619 312 l 627 309 l 627 328 l 609 328 l 609 330 l 612 344 l 614 344 l 627 341 q 633 352 627 352 l 633 352 q 617 368 631 360 z m 396 362 l 393 362 l 393 349 l 396 349 l 396 362 z m 504 352 l 501 352 l 496 347 l 496 341 l 504 341 l 504 352 z m 396 347 l 380 330 l 359 336 l 370 320 l 380 320 q 391 328 380 327 l 391 328 l 391 333 l 399 338 l 396 347 z m 637 333 l 633 333 l 630 325 l 637 325 l 637 333 z m 680 325 l 686 330 l 688 330 q 699 315 699 325 l 699 315 l 686 315 l 680 320 l 680 325 z m 486 320 l 480 325 l 477 322 l 477 320 l 486 320 z m 665 315 l 648 315 l 648 309 l 665 312 l 665 315 z m 415 299 l 415 309 l 422 309 l 431 302 l 431 294 l 428 294 l 415 299 z m 646 302 l 635 304 l 635 299 l 646 296 l 646 302 z m 654 294 l 651 294 l 656 288 l 659 288 l 654 294 z m 401 288 l 401 294 l 420 294 l 428 286 l 428 273 q 378 288 378 281 l 378 288 l 401 288 z m 551 283 l 546 283 l 543 275 l 549 275 l 553 281 l 551 283 z m 627 278 l 614 281 q 601 268 614 268 l 601 268 l 601 260 l 604 260 l 627 278 z m 665 273 l 665 273 l 665 268 l 675 265 l 683 265 l 683 268 q 665 273 670 268 z m 643 257 l 635 257 l 635 252 l 648 252 l 643 257 z m 656 225 l 640 225 l 640 220 l 627 220 q 596 212 623 216 l 596 212 l 593 215 l 593 210 l 617 210 q 622 194 617 194 l 622 194 l 627 194 l 622 202 l 622 204 l 627 210 l 646 210 l 654 204 l 654 215 l 651 218 l 651 220 l 656 225 z m 249 218 l 267 220 l 270 218 l 270 215 l 264 207 l 264 204 q 275 178 275 204 l 275 178 q 301 136 287 151 l 301 136 l 301 134 l 298 136 l 296 136 l 296 131 l 298 131 l 301 134 q 375 102 351 105 l 375 102 l 375 94 l 380 94 l 380 100 l 396 100 q 412 92 412 98 l 412 92 l 412 70 q 404 65 412 65 l 404 65 l 401 67 l 396 67 l 396 65 q 407 52 407 64 l 407 52 l 399 39 q 407 33 407 39 l 407 33 l 407 28 l 404 16 l 401 18 l 399 18 l 396 16 l 396 5 q 412 -6 408 5 l 412 -6 l 412 -22 q 401 -27 412 -27 l 401 -27 l 410 -37 l 404 -43 l 391 -43 q 372 -22 391 -37 l 372 -22 l 372 -17 l 357 -17 l 357 -19 l 364 -19 l 364 -33 l 344 -33 q 326 -12 330 -12 l 326 -12 l 323 -14 l 323 -17 q 330 -33 330 -17 l 330 -33 l 328 -33 l 317 -35 q 214 2 264 -28 l 214 2 q 228 20 219 20 l 228 20 l 228 28 q 204 16 214 26 l 204 16 l 194 16 q 112 136 135 58 l 112 136 l 107 168 l 112 173 l 112 176 l 110 173 l 107 173 q 102 207 102 184 l 102 207 l 107 212 l 110 212 l 112 210 l 115 212 l 123 212 l 138 210 l 155 215 l 191 215 l 191 207 l 194 207 q 201 218 195 218 l 201 218 l 249 218 z m 212 210 l 207 204 l 212 199 l 217 204 l 217 210 l 212 210 z m 690 210 l 683 210 l 683 204 l 686 204 l 690 210 z m 672 199 l 659 199 l 665 189 l 672 199 z m 117 197 l 112 197 l 112 178 l 115 178 q 123 184 115 184 l 123 184 l 123 186 l 117 197 z m 173 189 l 168 194 l 165 191 l 165 186 l 173 186 l 173 189 z m 246 194 l 241 189 l 241 184 q 252 173 252 184 l 252 173 l 260 173 l 260 178 l 254 184 l 252 184 l 254 186 l 254 194 l 246 194 z m 149 184 l 144 178 l 157 178 l 157 184 l 149 184 z m 633 173 l 625 173 l 625 168 l 637 168 l 637 184 q 633 173 633 184 l 633 173 z m 214 178 l 204 173 l 210 168 l 217 168 l 214 178 z m 585 178 l 583 178 l 588 173 l 591 173 l 585 178 z m 186 173 l 180 173 l 180 162 l 186 162 l 186 173 z m 567 162 l 562 162 l 562 159 q 581 152 562 152 l 581 152 q 585 141 581 141 l 585 141 l 591 141 l 596 146 l 567 162 z m 643 162 l 637 162 l 637 152 l 643 152 l 643 162 z m 144 157 l 138 152 l 146 152 l 146 157 l 144 157 z m 669 157 l 662 157 l 662 152 l 667 146 l 669 146 l 669 157 z m 619 152 l 617 152 l 617 149 q 633 136 617 144 l 633 136 l 633 146 q 619 152 619 146 l 619 152 z m 677 138 l 669 144 l 669 134 l 672 134 l 677 138 z m 614 131 l 601 136 l 601 131 l 612 125 l 614 125 l 614 131 z m 239 131 l 233 131 l 233 125 l 239 115 l 244 115 l 244 120 l 239 131 z m 654 125 l 646 125 l 646 123 l 654 120 l 654 125 z m 155 120 l 149 115 l 149 113 l 155 113 l 155 120 z m 654 94 l 637 89 l 637 86 l 643 86 l 643 83 l 656 94 q 669 107 669 94 l 669 107 l 672 107 q 662 115 672 115 l 662 115 l 662 120 l 659 120 q 654 94 654 120 l 654 94 z m 199 110 l 194 110 l 196 94 l 201 94 l 201 97 l 199 110 z m 273 110 l 267 110 q 260 102 267 102 l 260 102 l 260 97 l 273 110 z m 499 104 l 509 113 q 541 100 526 113 l 541 100 q 567 81 567 100 l 567 81 l 575 78 l 578 81 l 583 73 l 581 70 l 581 67 q 596 47 596 55 l 596 47 l 601 47 q 622 60 601 58 l 622 60 l 625 57 l 622 54 l 622 50 l 625 47 q 617 33 624 33 l 617 33 l 617 23 q 604 10 617 10 l 604 10 q 617 2 604 4 l 617 2 l 617 5 l 619 7 l 622 7 l 622 26 l 627 26 l 627 28 l 625 31 q 643 44 627 44 l 643 44 q 654 26 648 26 l 654 26 l 654 23 q 570 -19 600 -19 l 570 -19 l 570 -14 l 541 -19 l 541 -17 l 543 -9 l 541 -9 l 533 -12 l 533 -14 l 538 -22 l 538 -27 q 441 -43 538 -39 l 441 -43 l 438 -40 l 438 -9 l 441 -6 l 441 -3 l 454 -6 l 459 -6 q 465 7 465 -6 l 465 7 l 472 16 l 472 20 l 469 20 l 467 18 l 465 18 q 454 50 465 31 l 454 50 l 456 57 l 438 73 l 438 89 q 451 97 438 94 l 451 97 l 465 94 q 491 104 465 104 l 491 104 l 491 89 l 465 89 l 472 73 l 475 73 l 475 78 l 496 78 l 494 81 l 494 83 l 499 83 l 507 78 l 509 81 l 512 65 l 517 65 l 517 73 l 515 86 l 517 89 q 507 102 509 89 l 507 102 l 499 102 l 499 104 z m 535 97 l 530 92 l 533 83 l 538 89 l 538 97 l 535 97 z m 298 89 l 288 89 q 298 83 288 83 l 298 83 l 296 81 l 296 78 l 307 73 l 307 75 l 298 89 z m 388 75 l 385 75 l 385 67 l 393 67 l 393 70 l 388 75 z m 549 67 l 541 67 l 541 62 l 553 62 l 549 67 z m 669 67 l 662 67 l 662 62 l 669 62 l 669 67 z m 630 54 l 630 65 l 640 65 l 640 54 l 633 52 l 630 54 z m 275 57 l 270 52 l 273 52 l 275 54 l 278 54 l 286 47 l 288 47 l 288 50 l 286 57 l 275 57 z m 438 44 l 438 60 l 444 60 l 446 52 l 444 44 l 438 44 z m 220 52 l 212 50 l 212 47 l 222 47 l 220 50 l 220 52 z m 354 50 l 351 50 l 351 47 l 357 41 l 359 41 l 367 44 l 367 47 l 354 50 z m 326 47 l 323 47 l 323 39 l 333 31 l 338 31 l 338 41 l 336 41 l 333 39 q 326 47 326 39 l 326 47 z m 446 39 l 446 39 l 459 36 l 459 16 l 444 16 l 438 20 l 438 33 q 446 39 438 39 z m 588 36 l 583 36 q 575 28 583 28 l 575 28 l 575 26 l 585 26 l 588 36 z m 559 33 l 553 33 l 553 20 l 572 23 l 572 26 q 559 33 559 26 l 559 33 z m 275 31 l 273 31 l 278 26 l 280 26 l 275 31 z m 504 26 l 499 26 q 507 16 503 16 l 507 16 l 512 16 l 512 18 l 504 26 z m 307 5 l 294 16 l 291 13 l 291 5 l 294 7 l 296 7 l 307 5 z m 581 5 l 572 -6 l 588 -6 l 588 -1 l 583 5 l 581 5 z m 254 2 l 252 2 l 252 -1 q 270 -17 270 -1 l 270 -17 l 275 -17 l 275 -12 l 278 -9 l 275 -6 l 254 2 z m 349 -6 l 344 -1 l 344 -12 l 349 -12 l 349 -6 z m 469 -14 l 469 -14 l 469 -27 l 483 -22 q 469 -14 483 -16 z m 469 -30 l 454 -33 l 454 -35 l 472 -37 l 469 -30 z m 330 -35 l 341 -33 l 341 -35 l 338 -37 l 338 -40 l 330 -37 l 330 -35 z m 351 -40 l 351 -37 l 362 -37 l 362 -43 l 359 -43 l 351 -40 z m 370 667 l 368 667 l 368 661 l 372 656 l 374 659 l 374 661 l 370 667 z m 472 421 l 470 421 l 470 393 l 475 393 l 477 402 l 472 421 z m 480 347 l 479 347 l 475 330 l 475 328 l 483 330 l 480 347 z m 378 328 l 374 328 l 374 312 l 378 312 l 378 328 z m 434 312 l 434 312 l 439 305 q 458 325 456 314 l 458 325 l 456 328 q 434 312 447 312 z m 402 312 l 399 312 l 399 305 l 402 299 l 402 312 z m 362 299 l 362 299 l 372 287 l 378 287 q 362 299 378 295 z m 415 293 l 410 293 l 410 281 l 416 281 l 416 284 l 415 293 z m 483 296 l 486 296 l 486 265 l 483 265 l 483 271 l 480 293 l 483 296 z m 448 90 l 448 90 l 448 87 l 450 87 q 467 100 451 100 l 467 100 l 467 111 q 448 90 448 102 z m 480 93 l 475 93 l 472 81 l 479 81 l 480 93 z m 408 62 l 406 62 l 406 56 q 400 50 400 56 l 400 50 l 406 50 l 408 59 l 408 62 z m 391 50 l 386 43 l 393 43 l 396 50 l 391 50 z m 435 901 l 430 895 l 430 892 l 438 895 l 438 901 l 435 901 z m 450 901 l 441 898 l 441 892 l 444 892 l 452 895 l 452 901 l 450 901 z m 388 -77 l 382 -83 q 402 -94 391 -83 l 402 -94 q 410 -86 402 -86 l 410 -86 q 429 -100 410 -90 l 429 -100 l 429 -94 q 405 -77 416 -94 l 405 -77 l 388 -77 z m 444 873 l 438 878 l 438 870 l 444 870 l 444 873 z m 391 873 l 386 873 q 399 851 386 858 l 399 851 l 414 870 l 414 873 l 411 873 q 399 867 411 867 l 399 867 l 399 862 l 397 862 l 397 867 l 391 873 z m 358 -114 l 350 -111 l 350 -117 l 363 -117 l 363 -111 l 361 -114 l 358 -114 z m 441 851 l 430 857 l 430 854 l 433 846 l 435 846 l 441 851 z m 413 -122 l 405 -122 l 408 -133 l 413 -133 l 418 -127 l 413 -122 z m 372 846 l 372 846 l 372 840 l 378 840 q 386 835 378 835 l 386 835 l 386 815 l 391 815 l 394 829 q 372 846 378 846 z m 410 -138 l 408 -138 l 408 -150 l 410 -150 l 410 -138 z m 465 -144 l 460 -144 l 463 -158 l 471 -150 l 465 -144 z m 427 823 l 419 823 l 425 815 l 411 810 q 422 802 411 805 l 422 802 q 435 810 422 806 l 435 810 l 438 807 l 435 818 l 433 815 l 427 815 l 427 823 z m 380 -153 l 366 -155 l 366 -166 l 374 -169 l 380 -153 z m 383 812 l 369 807 l 369 804 l 372 804 l 386 807 l 386 812 l 383 812 z m 405 -163 l 399 -163 l 399 -169 l 408 -188 l 410 -188 l 410 -172 q 405 -163 405 -172 l 405 -163 z m 343 -214 l 343 -199 l 344 -199 l 344 -197 l 343 -197 l 343 -70 l 349 -70 l 371 -75 l 377 -70 l 380 -70 l 382 -73 l 385 -70 l 495 -70 l 500 -75 l 500 -78 l 498 -78 l 484 -75 l 481 -78 l 481 -81 l 504 -87 l 507 -78 l 512 -78 l 512 -128 q 481 -114 492 -125 l 481 -114 l 465 -114 l 465 -109 l 448 -109 q 437 -98 448 -98 l 437 -98 l 437 -100 q 451 -125 444 -125 l 451 -125 q 459 -134 459 -125 l 459 -134 l 462 -136 l 465 -136 q 473 -125 465 -125 l 473 -125 l 481 -120 l 498 -131 l 504 -131 l 507 -128 l 509 -128 l 512 -147 l 512 -183 l 509 -186 l 512 -189 l 512 -191 l 509 -210 l 490 -208 l 484 -214 l 479 -214 l 479 -210 l 459 -214 l 426 -214 l 423 -210 l 420 -214 l 401 -214 l 399 -210 l 396 -214 l 380 -214 l 368 -210 l 357 -214 l 343 -214 z m 507 906 l 507 779 l 496 782 l 496 774 l 499 774 l 507 777 l 507 762 l 502 762 l 496 768 l 475 762 l 402 762 q 391 779 397 762 l 391 779 l 389 779 l 383 771 l 374 774 l 374 771 q 361 762 374 762 l 361 762 l 345 762 l 345 768 l 358 768 l 358 771 l 355 774 l 358 782 l 361 782 l 363 779 l 366 779 l 369 782 l 369 795 q 361 802 369 802 l 361 802 l 358 799 l 355 799 l 347 802 l 350 799 l 347 795 l 347 793 l 350 785 l 345 771 l 339 771 l 339 804 l 342 807 l 339 810 l 339 867 l 342 867 q 350 846 347 867 l 350 846 l 353 846 q 358 867 353 862 l 358 867 l 358 870 l 342 886 l 342 895 l 345 898 l 342 901 l 342 906 q 366 881 359 906 l 366 881 l 363 878 l 369 878 l 372 881 l 374 878 l 378 878 l 386 886 l 372 901 l 372 906 l 374 906 l 378 903 l 380 903 l 383 906 l 397 903 l 419 903 l 433 906 l 433 903 l 435 906 l 444 906 l 452 903 l 466 906 l 507 906 z m 410 -191 l 405 -191 q 399 -199 405 -199 l 399 -199 l 399 -204 l 410 -199 l 410 -191 z m 842 1153 l 0 1153 l 0 -280 l 842 -280 l 842 1153 z "},"%":{"ha":950,"x_min":0,"x_max":957,"o":"m 701 775 l 407 -30 l 239 -30 l 532 775 l 701 775 z m 391 187 l 385 193 l 380 184 l 382 184 l 391 187 z m 372 134 l 369 134 l 369 129 l 372 126 l 377 126 l 377 129 l 372 134 z m 350 32 l 331 23 l 331 20 l 363 7 l 366 4 l 369 4 l 366 18 l 366 23 l 372 32 l 350 32 z m 410 231 l 399 231 l 404 224 l 410 224 l 410 231 z m 494 310 l 490 310 l 490 304 l 496 299 l 499 302 l 499 304 l 494 310 z m 557 621 l 557 621 l 562 615 q 590 632 587 623 l 590 632 l 587 635 q 557 621 574 621 z m 486 548 l 480 548 l 480 542 l 486 536 l 486 548 z m 503 531 l 496 531 l 496 520 l 505 520 l 505 523 l 503 531 z m 543 539 l 538 539 l 538 536 l 566 517 l 566 528 q 551 553 551 538 l 551 553 q 543 539 547 553 l 543 539 z m 545 725 l 545 725 l 545 722 q 562 711 554 722 l 562 711 l 565 711 l 573 719 l 565 733 l 562 733 q 545 725 553 725 z m 491 498 l 486 498 l 483 481 l 491 473 l 491 468 l 477 465 l 469 465 l 464 451 l 464 448 l 469 443 l 472 443 l 486 446 l 488 432 l 491 432 l 491 448 q 496 459 496 448 l 496 459 l 500 463 l 503 463 l 513 459 l 513 463 q 496 473 513 468 l 496 473 l 494 487 l 494 490 l 500 490 l 500 492 q 491 498 491 492 l 491 498 z m 566 459 l 549 446 l 541 448 l 541 437 l 549 437 q 569 454 549 448 l 569 454 l 569 459 l 566 459 z m 572 429 l 561 426 l 561 420 q 572 429 572 425 l 572 429 z m 511 426 l 500 415 l 508 415 l 511 418 l 513 418 l 511 426 z m 536 415 l 528 415 l 528 412 q 547 398 528 408 l 547 398 l 547 404 q 538 412 538 404 l 538 412 l 536 415 z m 491 390 l 491 390 l 491 387 q 503 376 503 387 l 503 376 l 508 376 q 522 398 508 389 l 522 398 q 491 390 491 395 z m 552 393 l 544 390 l 544 387 l 555 387 l 552 390 l 552 393 z m 621 710 l 621 710 q 616 699 621 699 l 616 699 l 607 702 l 604 699 l 604 690 q 613 682 613 690 l 613 682 l 616 682 q 629 696 616 696 l 629 696 l 637 696 q 621 710 632 707 z m 505 583 l 505 583 l 505 579 l 507 579 q 529 593 508 593 l 529 593 l 529 605 q 505 583 505 595 z m 593 652 l 588 647 l 593 647 l 599 652 l 593 652 z m 549 586 l 541 586 l 537 573 l 546 573 l 549 586 z m 607 614 l 604 614 l 604 608 q 596 603 596 608 l 596 603 l 604 603 l 607 611 l 607 614 z m 583 603 l 576 597 l 585 597 l 591 603 l 583 603 z m 453 335 l 439 326 l 439 323 l 445 323 q 453 330 445 330 l 453 330 l 453 335 z m 442 416 l 442 416 l 442 414 l 448 405 l 448 399 q 437 391 448 391 l 437 391 l 437 389 l 451 389 l 454 402 q 442 416 448 415 z m 426 323 l 418 323 l 418 318 l 420 318 l 426 323 z m 448 296 l 434 296 l 439 290 l 448 290 l 448 296 z m 420 285 l 409 279 l 415 271 l 423 274 l 420 285 z m 476 361 l 467 361 l 467 355 l 476 355 l 476 361 z m 254 698 l 254 774 q 361 730 328 772 l 361 730 l 363 731 l 363 730 l 361 728 q 387 647 387 690 l 387 647 l 387 503 q 361 422 387 454 l 361 422 l 358 422 l 358 422 l 360 416 l 350 408 l 349 408 l 349 411 l 346 411 l 345 407 l 346 403 q 254 373 322 378 l 254 373 l 254 449 q 296 506 296 463 l 296 506 l 296 652 q 254 698 288 693 l 254 698 z m 353 746 l 357 751 l 360 751 q 364 749 360 749 l 364 749 l 364 745 l 361 745 q 358 749 358 745 l 358 749 l 357 749 l 357 746 l 353 746 z m 309 684 l 303 684 l 304 676 l 307 676 l 306 677 l 306 679 l 309 684 z m 336 673 l 331 673 l 334 670 l 336 671 l 336 673 z m 350 503 l 345 503 l 345 500 l 353 500 l 353 497 l 355 497 l 355 500 l 350 503 z m 235 774 l 235 699 q 193 652 201 693 l 193 652 l 193 506 q 235 449 193 463 l 235 449 l 235 373 q 143 403 167 378 l 143 403 l 144 408 l 143 411 l 140 411 l 140 408 l 139 408 l 129 417 l 130 422 l 130 423 l 127 423 q 102 503 102 454 l 102 503 l 102 647 q 127 729 102 690 l 127 729 l 126 730 l 126 732 l 127 730 q 235 774 161 772 l 235 774 z m 132 751 l 136 746 l 132 746 l 132 749 l 130 749 q 127 745 130 745 l 127 745 l 125 745 l 125 749 q 129 751 129 749 l 129 751 l 132 751 z m 157 625 l 144 625 l 151 616 l 151 613 l 148 611 l 155 611 l 157 625 z m 157 673 l 153 673 l 153 671 l 155 671 l 157 673 z m 144 503 l 139 503 l 134 500 l 134 497 l 136 497 l 136 500 l 144 500 l 144 503 z m 715 319 l 715 396 q 823 352 789 393 l 823 352 l 824 353 l 824 352 l 823 351 q 848 269 848 311 l 848 269 l 848 124 q 823 45 848 75 l 823 45 l 819 45 l 819 43 l 821 39 l 811 31 l 810 31 l 810 33 l 807 33 l 806 28 l 807 24 q 715 -5 783 -1 l 715 -5 l 715 71 q 757 127 757 85 l 757 127 l 757 273 q 715 319 749 315 l 715 319 z m 814 368 l 819 373 l 821 373 q 825 370 821 370 l 825 370 l 825 366 l 823 366 q 819 370 819 366 l 819 370 l 819 370 l 819 368 l 814 368 z m 770 306 l 764 306 l 766 298 l 768 298 l 767 299 l 767 300 l 770 306 z m 797 294 l 792 294 l 795 292 l 797 294 l 797 294 z m 811 124 l 806 124 l 806 121 l 814 121 l 814 119 l 816 119 l 816 121 l 811 124 z m 696 396 l 696 320 q 654 274 663 315 l 654 274 l 654 127 q 696 71 654 85 l 696 71 l 696 -5 q 604 25 628 0 l 604 25 l 606 29 l 604 33 l 602 33 l 602 31 l 600 31 l 590 39 l 591 43 l 591 45 l 589 45 q 563 125 563 76 l 563 125 l 563 269 q 589 351 563 312 l 589 351 l 587 352 l 587 354 l 589 352 q 696 396 623 394 l 696 396 z m 593 373 l 597 368 l 593 368 l 593 370 l 591 370 q 589 367 591 367 l 589 367 l 586 367 l 586 370 q 590 373 590 370 l 590 373 l 593 373 z m 618 246 l 606 246 l 612 237 l 612 235 l 609 233 l 616 233 l 618 246 z m 618 295 l 614 295 l 614 294 l 616 292 l 618 295 z m 606 125 l 600 125 l 595 122 l 595 119 l 597 119 l 597 122 l 606 122 l 606 125 z m 957 1153 l 0 1153 l 0 -280 l 957 -280 l 957 1153 z "},"&":{"ha":863,"x_min":0,"x_max":870,"o":"m 374 749 l 374 720 l 372 718 l 358 720 q 350 715 350 720 l 350 715 q 372 709 363 715 l 372 709 l 374 711 l 374 631 q 309 595 330 627 l 309 595 l 306 595 l 303 598 l 303 602 l 306 604 l 300 604 l 300 582 l 295 582 l 298 563 q 347 486 298 507 l 347 486 q 374 484 364 486 l 374 484 l 374 473 l 372 475 l 361 472 q 355 460 361 460 l 355 460 l 355 455 l 358 455 q 374 466 358 463 l 374 466 l 374 338 q 322 320 331 334 l 322 320 l 314 323 l 311 323 l 311 320 l 314 317 l 303 306 l 283 306 l 283 298 l 286 295 l 298 300 l 281 259 l 283 256 l 283 224 q 295 196 295 206 l 295 196 l 295 188 l 289 182 l 258 165 l 261 152 l 264 152 q 270 163 264 163 l 270 163 l 275 163 l 278 149 l 278 140 q 270 135 278 135 l 270 135 l 270 124 l 286 124 q 306 140 306 134 l 306 140 l 311 140 l 311 149 l 314 168 l 355 152 q 374 144 372 152 l 374 144 l 374 14 q 361 17 370 16 l 361 17 l 361 33 l 358 33 q 350 20 358 20 l 350 20 q 345 3 350 3 l 345 3 l 342 3 l 295 5 q 314 50 296 28 l 314 50 l 314 53 l 306 47 l 292 47 l 295 39 l 292 31 l 292 28 l 283 31 q 267 14 273 14 l 267 14 q 225 33 225 28 l 225 33 q 154 83 198 33 l 154 83 q 187 104 178 104 l 187 104 l 187 110 l 182 116 l 168 116 l 159 124 l 159 132 q 179 143 179 136 l 179 143 l 179 149 l 165 155 l 162 155 l 162 152 l 165 149 l 165 146 q 151 138 165 142 l 151 138 l 143 143 l 140 143 l 121 140 l 115 152 l 121 163 q 102 229 106 163 l 102 229 l 104 232 l 102 232 q 113 251 102 246 l 113 251 q 104 256 113 256 l 104 256 q 118 298 108 298 l 118 298 l 115 300 q 179 378 146 378 l 179 378 q 198 403 179 393 l 198 403 q 212 408 212 403 l 212 408 q 256 430 242 430 l 256 430 l 256 439 l 234 439 q 220 425 234 425 l 220 425 l 195 439 l 201 447 l 201 455 l 193 458 l 195 486 l 176 486 l 187 499 l 184 499 l 171 496 l 168 516 l 168 522 q 190 552 176 544 l 190 552 l 187 555 l 187 557 l 190 560 l 190 566 l 187 568 l 190 571 l 184 571 l 182 560 l 176 560 l 174 563 l 162 552 l 162 549 l 165 547 l 165 541 l 159 536 l 157 536 l 154 538 l 140 538 l 138 522 q 123 571 127 522 l 123 571 q 132 579 123 579 l 132 579 l 132 582 l 123 585 q 135 646 123 619 l 135 646 q 372 778 184 778 l 372 778 l 374 778 l 374 753 l 366 753 l 366 750 l 374 749 z m 322 736 l 319 736 l 314 731 q 322 726 322 731 l 322 726 l 331 726 l 331 731 q 322 736 322 731 l 322 736 z m 283 709 l 275 709 l 275 699 l 278 699 l 283 709 z m 311 679 l 298 682 l 289 682 l 289 676 l 298 676 l 311 673 l 311 679 z m 253 651 l 253 651 l 253 648 l 261 648 l 261 662 q 253 651 258 662 z m 303 654 l 300 654 l 292 648 l 278 648 l 275 640 q 292 626 292 637 l 292 626 l 295 626 l 303 651 l 303 654 z m 372 648 l 363 651 l 361 643 l 366 643 l 372 648 z m 225 643 l 222 643 q 201 623 207 640 l 201 623 l 201 621 l 203 618 l 206 618 l 209 621 q 225 640 218 640 l 225 640 l 225 643 z m 159 637 l 146 637 l 146 631 l 159 631 l 159 637 z m 289 621 l 286 623 l 283 621 l 278 621 l 278 612 l 281 610 q 289 621 285 610 l 289 621 z m 201 587 l 201 587 l 234 579 l 237 579 l 228 604 l 234 612 q 201 587 214 612 z m 190 612 l 184 607 l 184 604 l 190 610 l 190 612 z m 278 607 l 264 604 l 261 604 l 267 582 l 278 582 l 281 585 l 278 607 z m 193 587 l 187 587 l 187 574 l 190 574 l 193 587 z m 162 579 l 157 585 l 157 571 l 162 571 l 162 579 z m 292 549 l 283 552 l 281 552 l 281 549 l 292 544 l 292 549 z m 258 549 l 245 549 q 253 538 250 538 l 253 538 l 256 538 l 258 549 z m 225 538 l 214 544 l 220 527 l 225 527 l 225 530 l 222 532 l 222 536 l 225 538 z m 159 524 l 165 519 l 165 516 l 159 516 l 159 524 z m 154 519 l 154 505 l 151 502 l 154 499 l 154 496 l 149 496 q 138 516 138 501 l 138 516 l 151 519 l 154 519 z m 322 494 l 317 494 l 314 483 l 317 483 l 322 488 l 322 494 z m 171 475 l 171 475 l 171 466 l 168 466 l 149 488 l 159 496 q 171 475 159 488 z m 278 483 l 267 488 l 261 488 q 222 472 222 481 l 222 472 l 228 472 l 237 477 l 250 477 l 250 472 l 273 472 l 278 477 l 278 483 z m 295 452 l 283 450 l 289 444 l 295 444 l 295 452 z m 363 433 l 353 430 l 353 427 l 358 422 l 369 422 l 363 433 z m 273 411 l 267 416 l 264 416 l 270 411 l 273 411 z m 300 403 l 295 408 l 286 389 l 289 389 q 300 403 295 390 l 300 403 z m 358 389 l 355 389 q 342 376 343 382 l 342 376 l 345 376 q 358 384 351 384 l 358 384 l 358 389 z m 231 345 l 225 364 q 203 389 225 374 l 203 389 q 182 381 192 381 l 182 381 l 182 378 l 190 378 l 193 381 l 209 376 q 201 351 206 351 l 201 351 l 159 351 q 154 342 159 342 l 154 342 l 151 342 l 149 345 l 146 342 l 143 342 l 140 345 l 140 339 l 146 331 l 135 315 l 135 312 l 138 315 q 149 298 142 315 l 149 298 l 140 284 q 157 273 140 280 l 157 273 l 157 270 l 154 267 l 154 264 l 159 259 l 162 259 l 165 262 l 162 243 l 165 229 l 171 229 l 174 232 l 171 245 l 190 245 l 198 237 l 198 227 l 195 224 l 198 221 l 198 210 l 184 204 l 171 207 l 165 199 l 165 196 l 203 193 l 209 180 l 209 176 l 206 174 l 203 174 l 201 176 l 179 163 l 182 163 l 195 165 l 195 163 l 198 160 l 198 157 l 195 155 q 201 140 200 155 l 201 140 q 225 155 225 148 l 225 155 q 242 168 225 168 l 242 168 l 237 174 q 245 185 238 185 l 245 185 l 245 188 l 242 191 l 239 188 q 217 196 217 191 l 217 196 l 217 201 l 225 216 l 217 224 l 220 235 l 214 251 l 209 245 l 190 251 l 190 273 l 179 273 q 165 281 172 281 l 165 281 l 165 284 l 174 292 q 154 326 174 305 l 154 326 l 154 331 q 171 336 166 331 l 171 336 q 176 345 171 345 l 176 345 l 179 345 l 201 339 l 203 342 q 209 328 209 342 l 209 328 l 217 328 q 231 345 217 345 l 231 345 z m 300 339 l 286 339 l 292 334 l 300 334 l 300 339 z m 286 334 l 278 334 l 278 328 l 286 328 l 286 334 z m 174 328 l 165 326 l 165 323 l 174 320 l 174 328 z m 228 290 l 212 290 l 212 284 l 222 281 l 217 273 l 234 273 l 231 276 l 234 279 l 228 290 z m 132 267 l 121 267 l 126 262 l 132 267 z m 123 216 l 118 216 l 118 207 l 123 213 l 123 216 z m 159 201 l 140 201 l 140 199 l 146 191 q 138 176 146 176 l 138 176 l 138 171 q 149 165 149 171 l 149 165 l 154 165 l 151 180 l 159 199 l 159 201 z m 123 185 l 118 191 l 113 191 l 113 182 l 121 182 l 123 185 z m 303 185 l 314 176 q 300 149 314 165 l 300 149 q 281 160 283 149 l 281 160 q 300 185 300 176 l 300 185 l 303 185 z m 193 135 l 190 135 l 184 130 q 198 121 184 125 l 198 121 l 198 124 l 193 135 z m 149 127 l 154 121 l 154 110 l 149 104 l 143 104 l 132 116 l 132 121 l 146 127 l 149 127 z m 369 110 l 358 110 l 355 96 l 355 88 l 358 88 q 372 99 358 99 l 372 99 l 369 110 z m 222 110 l 217 110 l 214 107 l 214 102 l 217 102 l 222 107 l 222 110 z m 350 47 l 339 47 l 339 36 l 350 36 l 350 47 z m 562 166 l 568 166 l 571 174 l 571 177 l 562 177 l 562 166 z m 551 199 l 557 199 q 566 205 557 205 l 566 205 l 566 208 l 559 208 l 559 210 l 562 224 q 579 235 579 229 l 579 235 l 579 238 l 568 235 l 566 235 l 562 238 q 557 249 562 249 l 557 249 l 557 265 l 554 265 l 551 252 l 538 254 l 535 254 l 529 249 l 529 246 l 535 232 l 543 232 l 557 229 l 557 224 l 549 216 l 551 199 z m 566 282 l 576 271 l 579 279 l 576 279 l 574 282 l 566 282 z m 587 299 l 587 299 q 574 321 574 308 l 574 321 l 568 321 q 557 310 568 310 l 557 310 l 557 307 q 587 299 557 302 z m 620 186 l 628 183 l 628 186 l 631 189 l 620 189 l 620 186 z m 519 295 l 519 295 l 517 309 l 503 309 l 503 306 q 514 298 514 306 l 514 298 l 514 292 l 508 283 l 508 281 q 519 295 514 282 z m 533 336 l 542 336 l 542 342 l 533 342 l 533 336 z m 604 383 l 608 383 l 608 389 l 602 394 l 599 391 l 599 389 l 604 383 z m 553 107 l 555 105 l 553 110 l 553 110 l 553 107 z m 445 731 l 445 731 l 445 726 l 453 726 q 445 731 453 731 z m 500 709 l 492 709 l 497 699 l 500 699 l 500 709 z m 477 682 l 464 679 l 464 673 l 477 676 l 486 676 l 486 682 l 477 682 z m 514 662 l 514 662 l 514 648 l 522 648 l 522 651 q 514 662 518 662 z m 475 654 l 472 654 l 472 651 l 480 626 l 484 626 q 500 640 484 637 l 500 640 l 497 648 l 484 648 l 475 654 z m 412 651 l 404 648 l 409 643 l 414 643 l 412 651 z m 553 643 l 550 643 l 550 640 q 566 621 557 640 l 566 621 l 569 618 l 572 618 l 574 621 l 574 623 q 553 643 568 640 l 553 643 z m 629 637 l 616 637 l 616 631 l 629 631 l 629 637 z m 489 623 l 486 621 q 494 610 490 610 l 494 610 l 497 612 l 497 621 l 492 621 l 489 623 z m 541 612 l 541 612 l 547 604 l 538 579 l 541 579 l 574 587 q 541 612 562 612 z m 591 607 l 586 612 l 586 610 l 591 604 l 591 607 z m 511 604 l 497 607 l 494 585 l 497 582 l 508 582 l 514 604 l 511 604 z m 589 587 l 583 587 l 586 574 l 589 574 l 589 587 z m 618 585 l 613 579 l 613 571 l 618 571 l 618 585 z m 492 552 l 484 549 l 484 544 l 494 549 l 494 552 l 492 552 z m 530 549 l 517 549 l 519 538 l 522 538 q 530 549 526 538 l 530 549 z m 561 544 l 550 538 l 553 536 l 553 532 l 550 530 l 550 527 l 555 527 l 561 544 z m 458 494 l 453 494 l 453 488 l 458 483 l 461 483 l 458 494 z m 508 488 l 497 483 l 497 477 l 503 472 l 525 472 l 525 477 l 538 477 l 547 472 l 553 472 q 514 488 553 481 l 514 488 l 508 488 z m 492 450 l 480 452 l 480 444 l 486 444 l 492 450 z m 423 430 l 412 433 l 406 422 l 418 422 l 423 427 l 423 430 z m 508 416 l 503 411 l 505 411 l 511 416 l 508 416 z m 480 408 l 475 403 q 486 389 480 390 l 486 389 l 489 389 l 480 408 z m 420 389 l 418 389 l 418 384 q 431 376 424 384 l 431 376 l 434 376 q 420 389 432 382 l 420 389 z m 489 339 l 475 339 l 475 334 l 484 334 l 489 339 z m 497 334 l 489 334 l 489 328 l 497 328 l 497 334 z m 418 110 l 406 110 l 404 99 q 418 88 418 99 l 418 88 l 420 88 l 420 96 l 418 110 z m 437 47 l 426 47 l 426 36 l 437 36 l 437 47 z m 635 64 l 640 70 l 632 73 l 629 73 l 635 64 z m 618 123 l 621 123 l 627 128 l 627 131 l 621 131 l 618 128 l 618 123 z m 648 26 l 659 26 l 659 33 l 654 33 l 648 26 z m 461 731 l 461 731 l 456 736 l 453 736 q 461 731 453 731 z m 621 332 l 630 332 l 630 338 l 621 338 l 621 332 z m 677 408 l 689 414 l 683 422 l 675 419 l 677 408 z m 650 397 l 664 397 l 659 403 l 650 403 l 650 397 z m 672 370 l 680 370 l 680 375 l 677 375 l 672 370 z m 644 358 l 659 367 l 659 370 l 652 370 q 644 363 652 363 l 644 363 l 644 358 z m 610 519 l 616 524 l 616 516 l 610 516 l 610 519 z m 621 505 l 621 519 l 624 519 l 637 516 q 627 496 637 501 l 627 496 l 621 496 l 621 499 l 624 502 l 621 505 z m 616 496 l 616 496 l 627 488 l 608 466 l 605 466 l 605 475 q 616 496 616 488 z m 461 176 l 472 185 l 475 185 q 494 160 475 176 l 494 160 q 475 149 492 149 l 475 149 q 461 176 461 165 l 461 176 z m 661 304 l 659 304 q 659 302 659 303 l 659 302 l 661 302 l 661 304 z m 574 403 l 574 403 l 586 435 l 754 435 l 678 228 l 762 0 l 593 0 l 578 43 q 550 33 562 33 l 550 33 q 508 14 550 28 l 508 14 q 492 31 502 14 l 492 31 l 484 28 l 484 31 l 480 39 l 484 47 l 469 47 l 461 53 l 461 50 q 480 5 479 28 l 480 5 l 434 3 l 431 3 q 426 20 426 3 l 426 20 q 418 33 418 20 l 418 33 l 414 33 l 414 17 q 401 14 405 16 l 401 14 l 401 144 q 420 152 404 152 l 420 152 l 461 168 l 464 149 l 464 140 l 469 140 q 489 124 469 134 l 489 124 l 505 124 l 505 135 q 497 140 497 135 l 497 140 l 497 149 l 500 163 l 505 163 q 511 152 511 163 l 511 152 l 514 152 l 517 165 l 486 182 l 480 188 l 480 196 q 492 224 480 206 l 492 224 l 492 256 l 494 259 l 477 300 l 489 295 l 492 298 l 492 306 l 472 306 l 461 317 l 464 320 l 464 323 l 461 323 l 453 320 q 401 338 445 334 l 401 338 l 401 466 q 418 455 418 463 l 418 455 l 420 455 l 420 460 q 414 472 414 460 l 414 472 l 404 475 l 401 473 l 401 484 q 429 486 411 486 l 429 486 q 477 563 477 507 l 477 563 l 480 582 l 475 582 l 475 604 l 469 604 l 472 602 l 472 598 l 469 595 l 467 595 q 401 631 445 627 l 401 631 l 401 711 l 404 709 q 426 715 412 715 l 426 715 q 418 720 426 720 l 418 720 l 404 718 l 401 720 l 401 749 l 409 750 l 409 753 l 401 753 l 401 778 l 404 778 q 640 646 591 778 l 640 646 q 652 585 652 619 l 652 585 l 644 582 l 644 579 q 652 571 652 579 l 652 571 q 637 522 648 522 l 637 522 l 635 538 l 621 538 l 618 536 l 616 536 l 610 541 l 610 547 l 613 549 l 613 552 l 602 563 l 600 560 l 594 560 l 591 571 l 586 571 l 589 568 l 586 566 l 586 560 l 589 557 l 589 555 l 586 552 q 608 522 600 544 l 608 522 l 608 516 l 605 496 l 591 499 l 589 499 l 600 486 l 581 486 l 583 458 l 574 455 l 574 447 l 581 439 l 555 425 q 541 439 541 425 l 541 439 l 519 439 l 519 430 q 564 408 533 430 l 564 408 q 574 403 564 403 z m 606 261 l 606 260 l 609 260 l 609 261 l 606 261 z m 613 243 l 613 248 l 612 248 l 611 249 l 606 248 l 606 245 q 604 244 605 245 l 604 244 l 602 232 l 605 229 l 610 229 l 613 243 z m 587 267 l 593 273 l 586 273 l 586 270 l 587 267 z m 606 305 l 606 305 q 603 300 604 302 l 603 300 q 606 302 606 301 l 606 302 l 606 305 z m 552 343 l 552 343 l 568 387 q 550 364 550 373 l 550 364 l 544 345 q 552 343 549 345 z m 707 86 l 707 92 l 696 92 l 696 83 l 699 83 l 707 86 z m 674 98 l 674 103 l 657 106 l 649 98 l 644 98 l 641 111 l 641 119 l 627 125 l 624 125 l 618 119 l 618 117 l 621 103 l 608 100 l 608 98 l 624 98 q 635 92 624 92 l 635 92 l 638 89 l 638 86 l 635 75 l 638 75 q 649 92 644 75 l 649 92 l 663 95 l 666 95 l 666 89 l 669 89 q 674 98 669 98 l 674 98 z m 602 78 l 591 89 l 591 81 l 594 78 l 594 75 l 602 78 z m 574 67 q 566 98 572 98 l 566 98 l 564 98 q 553 86 564 86 l 553 86 l 553 81 q 574 67 565 81 l 574 67 z m 690 26 l 688 35 l 685 35 l 685 23 l 688 26 l 690 26 z m 578 135 q 592 146 591 140 l 592 146 l 589 146 l 581 140 l 575 140 q 567 152 567 140 l 567 152 l 564 152 l 564 138 l 578 135 z m 537 113 l 537 121 l 532 121 l 532 113 l 537 113 z m 870 1153 l 0 1153 l 0 -280 l 870 -280 l 870 1153 z "},"'":{"ha":378,"x_min":0,"x_max":387,"o":"m 270 885 l 277 885 q 246 860 277 867 l 246 860 l 243 863 l 243 857 l 246 854 l 243 852 l 243 848 l 252 840 l 270 854 l 277 854 l 277 852 l 273 848 l 273 846 l 277 843 l 273 829 l 273 807 l 277 793 l 273 793 l 277 791 l 277 783 l 273 774 l 277 761 l 277 713 l 270 692 l 277 686 l 277 683 l 273 680 l 277 677 l 277 568 l 270 562 l 267 562 l 267 565 l 270 578 l 267 581 l 263 581 l 256 559 l 267 556 l 267 551 l 206 551 q 223 581 209 571 l 223 581 l 223 598 l 230 598 l 230 614 q 243 625 243 614 l 243 625 l 239 625 q 209 612 209 619 l 209 612 q 199 604 209 604 l 199 604 l 196 601 l 196 598 q 209 589 209 598 l 209 589 l 216 581 l 203 565 l 203 559 l 206 556 l 206 553 l 182 551 l 138 551 l 136 553 l 132 551 l 129 551 l 106 553 l 109 573 l 102 578 l 102 584 l 106 584 l 102 604 l 102 636 l 106 639 l 102 642 l 102 661 l 106 664 l 102 667 l 102 683 l 106 694 l 102 705 l 102 725 l 109 730 l 102 752 l 102 824 q 122 835 102 829 l 122 835 l 122 838 l 112 843 l 116 852 l 112 852 q 102 865 102 852 l 102 865 l 102 882 l 109 882 l 109 868 l 112 868 l 116 871 l 125 868 l 125 865 l 122 863 l 122 860 l 125 857 l 142 857 q 149 865 149 857 l 149 865 l 146 868 l 146 871 l 149 879 l 146 876 l 142 879 l 138 879 l 129 876 l 112 882 l 112 888 l 153 888 l 156 885 l 159 888 l 230 888 l 230 885 q 203 876 230 879 l 203 876 l 203 873 q 230 868 223 873 l 230 868 l 233 868 l 252 885 l 263 885 l 267 882 l 270 885 z m 270 791 l 263 796 l 259 796 l 263 788 l 270 788 l 270 791 z m 270 777 l 267 785 l 259 785 l 259 783 l 263 774 l 270 774 l 270 777 z m 263 669 l 256 675 q 243 655 256 667 l 243 655 q 252 647 252 655 l 252 647 q 236 628 248 647 l 236 628 l 243 628 q 263 652 243 642 l 263 652 l 263 669 z m 236 783 l 243 788 l 233 788 l 233 783 l 236 783 z m 236 835 l 236 840 q 209 827 218 840 l 209 827 l 233 812 l 236 812 l 236 815 q 230 827 230 815 l 230 827 l 223 827 l 223 829 l 230 829 l 236 835 z m 219 700 l 223 708 l 216 708 l 216 694 l 223 694 l 219 697 l 219 700 z m 209 785 l 216 796 l 212 796 l 203 793 l 203 791 l 209 785 z m 209 644 l 209 652 l 196 650 l 196 644 l 203 639 l 209 644 z m 203 854 l 203 854 l 196 854 l 196 848 q 190 840 190 848 l 190 840 l 165 840 l 165 835 l 182 832 q 203 854 203 848 z m 190 647 l 190 650 l 176 650 l 176 647 l 190 647 z m 182 593 l 182 598 l 165 595 l 176 587 l 182 593 z m 176 799 l 176 807 l 165 802 l 159 815 q 149 804 154 815 l 149 804 q 159 791 155 804 l 159 791 l 156 788 l 169 791 l 165 793 l 165 799 l 176 799 z m 172 677 l 169 692 l 156 692 l 153 683 l 172 677 z m 163 843 l 156 857 l 153 857 l 153 854 l 156 840 l 163 840 l 163 843 z m 159 652 l 159 659 l 153 659 l 129 650 l 129 647 l 149 647 q 159 652 149 652 l 159 652 z m 122 719 l 125 730 l 116 730 l 116 728 l 119 719 l 122 719 z m 125 647 l 125 652 q 116 659 116 652 l 116 659 l 109 659 l 116 647 l 125 647 z m 387 1153 l 0 1153 l 0 -280 l 387 -280 l 387 1153 z "},"(":{"ha":555,"x_min":0,"x_max":564,"o":"m 385 886 l 391 876 l 391 873 l 371 886 l 385 886 z m 448 867 l 454 862 l 454 729 l 448 723 l 435 723 l 424 732 l 418 732 l 418 729 l 421 726 l 421 723 l 408 720 l 398 729 l 398 726 l 395 723 l 396 726 q 379 720 379 726 l 379 720 q 279 629 298 720 l 279 629 l 279 77 q 362 -34 279 -7 l 362 -34 l 359 -43 l 359 -45 l 368 -45 q 393 -37 378 -37 l 393 -37 l 448 -37 l 454 -43 l 454 -96 l 448 -101 l 454 -109 l 454 -178 l 448 -184 l 406 -184 q 182 -123 239 -184 l 182 -123 l 184 -115 l 182 -106 l 176 -106 l 176 -112 l 174 -112 l 155 -96 l 157 -87 l 157 -84 l 152 -84 q 102 71 102 -24 l 102 71 l 102 621 q 152 779 102 703 l 152 779 l 149 781 l 149 784 l 152 781 q 379 867 222 867 l 379 867 l 448 867 z m 160 823 l 168 812 l 160 812 l 160 817 l 157 817 q 152 809 157 809 l 152 809 l 146 809 l 146 817 q 155 823 155 817 l 155 823 l 160 823 z m 409 743 l 401 743 l 401 740 l 404 737 l 409 743 z m 406 720 l 412 715 l 412 712 l 406 712 l 406 720 z m 266 692 l 254 692 l 260 682 l 260 679 l 257 676 l 262 676 l 266 692 z m 210 670 l 201 670 l 201 667 l 204 665 l 210 670 z m 184 71 l 174 71 l 165 66 l 165 60 l 168 60 l 168 66 l 184 66 l 184 71 z m 410 -62 q 412 -51 406 -51 l 412 -51 l 406 -51 l 404 -54 q 395 -64 399 -64 l 395 -64 l 395 -68 l 398 -71 l 410 -62 z m 448 -68 q 444 -56 448 -63 l 444 -56 l 444 -59 l 435 -56 l 427 -64 l 433 -71 q 416 -90 433 -90 l 416 -90 l 416 -93 l 418 -96 q 444 -71 444 -87 l 444 -71 l 448 -71 l 448 -68 z m 385 -68 l 374 -68 l 368 -81 l 379 -84 l 385 -73 l 385 -68 z m 404 -101 l 398 -101 l 398 -109 l 404 -109 l 404 -101 z m 404 -112 l 404 -112 l 404 -115 l 404 -115 l 404 -112 z m 395 -120 l 404 -120 l 404 -123 l 395 -128 l 395 -120 z m 564 1153 l 0 1153 l 0 -280 l 564 -280 l 564 1153 z "},")":{"ha":555,"x_min":0,"x_max":566,"o":"m 165 876 l 171 886 l 184 886 l 165 873 l 165 876 z m 102 862 l 107 867 l 176 867 q 404 781 333 867 l 404 781 l 407 784 l 407 781 l 404 779 q 454 621 454 703 l 454 621 l 454 71 q 404 -84 454 -24 l 404 -84 l 399 -84 l 399 -87 l 401 -96 l 382 -112 l 379 -112 l 379 -106 l 374 -106 l 371 -115 l 374 -123 q 149 -184 316 -184 l 149 -184 l 107 -184 l 102 -178 l 102 -109 l 107 -101 l 102 -96 l 102 -43 l 107 -37 l 163 -37 q 187 -45 177 -37 l 187 -45 l 196 -45 l 196 -43 l 193 -34 q 277 77 277 -7 l 277 77 l 277 629 q 176 720 258 720 l 176 720 q 160 726 176 726 l 160 726 l 160 723 l 157 726 l 157 729 l 148 720 l 134 723 l 134 726 l 137 729 l 137 732 l 132 732 l 120 723 l 107 723 l 102 729 l 102 862 z m 387 812 l 396 823 l 401 823 q 410 817 401 817 l 410 817 l 410 809 l 404 809 q 399 817 399 809 l 399 817 l 396 817 l 396 812 l 387 812 z m 155 743 l 146 743 l 152 737 l 155 740 l 155 743 z m 144 715 l 149 720 l 149 712 l 144 712 l 144 715 z m 301 692 l 290 692 l 293 676 l 298 676 l 296 679 l 296 682 l 301 692 z m 354 670 l 346 670 l 351 665 l 354 667 l 354 670 z m 382 71 l 371 71 l 371 66 l 387 66 l 387 60 l 391 60 l 391 66 l 382 71 z m 145 -62 l 145 -62 l 157 -71 l 160 -68 l 160 -64 q 152 -54 157 -64 l 152 -54 l 149 -51 l 144 -51 q 145 -62 149 -51 z m 107 -68 l 107 -68 l 107 -71 l 112 -71 q 137 -96 112 -87 l 137 -96 l 140 -93 l 140 -90 q 123 -71 123 -90 l 123 -71 l 129 -64 l 120 -56 l 112 -59 l 112 -56 q 107 -68 107 -63 z m 182 -68 l 171 -68 l 171 -73 l 176 -84 l 187 -81 l 182 -68 z m 157 -101 l 152 -101 l 152 -109 l 157 -109 l 157 -101 z m 152 -112 l 152 -112 l 152 -115 l 152 -115 l 152 -112 z m 152 -120 l 160 -120 l 160 -128 l 152 -123 l 152 -120 z m 566 1153 l 0 1153 l 0 -280 l 566 -280 l 566 1153 z "},"*":{"ha":542,"x_min":0,"x_max":551,"o":"m 131 920 l 263 835 l 224 987 l 317 987 l 278 833 l 411 920 l 440 830 l 285 820 l 404 716 l 328 663 l 271 812 l 217 665 l 140 718 l 258 820 l 102 831 l 131 920 z m 273 831 l 273 833 l 271 833 l 269 831 l 273 831 z m 211 838 l 211 841 l 207 841 l 207 841 l 208 838 l 211 838 z m 260 827 l 257 830 l 256 830 l 247 829 l 247 825 q 253 820 253 825 l 253 820 q 260 827 258 821 l 260 827 z m 229 844 l 227 851 l 225 851 l 225 846 l 228 843 l 229 843 l 229 844 z m 245 830 l 245 831 l 240 832 l 240 830 l 245 830 z m 234 827 l 236 842 l 234 842 l 233 836 l 232 836 q 223 838 228 836 l 223 838 l 222 838 l 222 837 q 227 835 222 835 l 227 835 l 229 827 l 234 827 z m 225 825 l 225 828 l 223 829 l 220 829 q 215 826 220 826 l 215 826 l 215 823 q 223 827 220 827 l 223 827 l 223 825 l 225 825 z m 279 837 l 279 837 l 282 844 l 281 848 l 279 848 l 279 837 z m 284 867 l 285 867 l 286 873 l 281 874 l 281 873 l 284 867 z m 193 684 l 195 684 l 195 690 l 193 690 l 193 684 z m 256 880 q 270 874 264 880 l 270 874 l 271 876 q 258 883 270 879 l 258 883 l 256 880 z m 208 690 l 210 690 l 210 695 l 208 693 l 208 690 z m 184 695 q 195 700 195 697 l 195 700 l 191 700 l 184 695 z m 215 698 l 218 698 l 219 701 l 219 703 l 215 703 l 215 698 z m 286 887 l 289 887 l 289 899 l 286 899 l 286 897 l 285 888 l 286 887 z m 220 715 l 222 715 q 227 709 224 709 l 227 709 q 233 720 227 716 l 233 720 l 233 725 l 220 716 l 220 715 z m 189 716 q 196 713 192 716 l 196 713 l 197 713 l 201 719 l 197 723 l 196 723 q 189 718 193 718 l 189 718 l 189 716 z m 279 910 l 286 909 l 286 913 l 279 913 l 279 910 z m 264 926 l 273 920 l 274 920 l 274 922 q 264 930 264 925 l 264 930 l 261 930 l 261 925 l 264 926 z m 184 735 l 184 734 q 190 741 190 735 l 190 741 q 184 748 184 744 l 184 748 l 182 748 l 182 736 l 184 735 z m 270 935 l 275 934 q 270 938 275 936 l 270 938 l 270 935 z m 217 750 l 222 745 l 222 749 l 222 749 l 220 750 l 217 750 z m 255 940 l 258 940 l 260 941 q 263 945 260 945 l 263 945 l 263 947 q 255 941 255 943 l 255 941 l 255 940 z m 262 951 l 266 949 l 266 951 l 267 952 l 262 952 l 262 951 z m 264 968 q 276 960 264 963 l 276 960 l 276 964 q 266 970 267 964 l 266 970 l 264 970 l 264 968 z m 281 967 l 285 967 l 284 972 l 279 972 l 281 967 z m 313 830 l 319 825 l 319 828 q 315 830 315 828 l 315 830 l 313 830 l 313 830 z m 326 825 q 332 832 329 826 l 332 832 l 331 838 l 324 838 l 324 837 q 329 833 329 837 l 329 833 l 329 830 l 326 827 l 326 825 z m 302 830 l 307 830 l 304 833 l 302 833 l 302 830 z m 310 843 l 317 843 l 317 846 l 313 846 l 310 843 z m 247 793 l 252 791 l 253 796 l 250 798 l 247 793 z m 338 850 l 342 850 l 342 853 l 338 853 l 338 850 z m 176 884 l 178 890 q 172 892 172 890 l 172 892 l 173 896 q 165 894 170 894 l 165 894 l 165 892 q 170 888 165 890 l 170 888 l 172 890 l 174 885 l 172 885 l 172 884 l 176 884 z m 176 852 l 176 856 l 172 856 q 176 852 172 854 l 176 852 z m 170 860 l 170 861 l 168 861 l 165 860 l 170 860 z m 157 865 l 157 869 l 154 869 l 154 868 l 155 865 l 157 865 z m 157 854 l 154 858 l 153 858 l 144 857 l 144 854 q 150 848 150 854 l 150 848 q 157 854 155 849 l 157 854 z m 149 903 l 150 905 l 148 905 l 144 901 l 146 896 l 148 896 l 150 898 l 149 903 z m 150 871 l 148 877 l 146 877 l 146 873 l 149 869 l 150 869 l 150 871 z m 142 858 l 142 860 l 137 860 l 137 858 l 142 858 z m 130 899 l 133 903 l 132 903 l 129 899 l 130 899 z m 131 856 l 133 871 l 131 871 l 130 863 l 129 863 q 120 867 125 863 l 120 867 l 119 867 l 119 865 q 124 863 119 863 l 124 863 l 125 856 l 131 856 z m 129 890 l 127 892 l 127 892 l 127 888 l 129 888 l 129 890 z m 236 770 l 236 770 l 236 771 q 231 776 231 771 l 231 776 l 228 776 q 222 766 228 770 l 222 766 q 236 770 236 768 z m 247 769 l 247 769 q 250 774 247 774 l 250 774 l 254 773 l 255 774 l 255 779 q 251 781 251 779 l 251 781 l 250 781 q 243 776 250 776 l 243 776 l 239 776 q 247 769 241 771 z m 241 781 l 243 783 l 241 783 l 238 781 l 241 781 z m 234 798 l 236 798 l 236 801 q 239 803 239 801 l 239 803 l 236 803 l 234 800 l 234 798 z m 245 803 l 248 806 l 244 806 l 241 803 l 245 803 z m 209 721 l 210 720 l 215 730 l 213 732 l 210 728 l 209 721 z m 217 749 l 218 749 l 224 754 l 224 755 l 220 756 l 217 749 z m 218 693 l 221 693 l 221 699 l 218 699 l 218 693 z m 250 749 l 250 749 l 249 753 q 234 751 237 754 l 234 751 l 235 749 q 250 749 242 752 z m 203 699 l 206 699 l 206 702 l 203 704 l 203 699 z m 229 704 l 229 704 l 222 709 l 218 709 q 229 704 218 706 z m 195 707 l 198 707 l 198 711 l 195 711 l 195 710 l 195 707 z m 213 770 l 216 768 l 217 769 l 220 778 l 221 780 l 219 781 l 213 770 z m 225 725 l 225 725 l 225 727 q 217 732 221 727 l 217 732 l 216 732 l 212 728 l 216 722 l 217 722 q 225 725 222 725 z m 235 788 l 242 786 l 244 788 l 237 791 l 235 788 z m 252 799 l 262 800 l 264 798 l 267 802 l 264 804 q 252 801 262 800 l 252 801 l 252 800 l 252 799 z m 230 743 l 230 744 l 231 745 l 231 757 l 229 757 q 223 750 229 753 l 223 750 q 230 743 223 743 l 230 743 z m 256 806 l 261 804 l 262 806 q 256 806 257 807 l 256 806 z m 192 754 l 197 759 l 193 759 l 192 757 l 191 757 l 192 754 z m 171 709 l 171 709 l 171 711 q 165 716 165 711 l 165 716 l 163 716 q 157 706 163 710 l 157 706 q 171 709 171 707 z m 189 709 l 189 709 q 191 714 189 714 l 191 714 l 195 713 l 196 714 l 196 719 q 193 722 193 719 l 193 722 l 191 722 q 184 716 191 716 l 184 716 l 181 716 q 189 709 183 711 z m 176 721 l 178 723 l 176 723 l 174 721 l 176 721 z m 170 738 l 171 738 l 171 741 q 174 743 174 741 l 174 743 l 171 743 l 170 739 l 170 738 z m 350 830 l 352 828 l 355 833 l 353 835 l 350 830 z m 366 827 l 368 826 l 371 830 l 367 829 l 366 827 z m 349 843 q 360 842 358 840 l 360 842 l 357 844 l 349 843 z m 376 830 l 378 829 l 381 831 l 382 832 l 378 834 l 376 830 z m 390 842 l 391 841 q 392 834 390 836 l 392 834 q 403 840 395 840 l 403 840 l 406 844 l 391 843 l 390 842 z m 363 859 q 367 852 366 857 l 367 852 l 368 852 l 374 855 l 374 860 l 372 861 q 363 861 366 859 l 363 861 l 363 859 z m 380 845 l 381 844 q 387 844 382 846 l 387 844 l 387 845 l 385 846 l 385 848 l 389 852 q 399 852 397 850 l 399 852 l 399 854 l 394 855 l 393 856 l 393 858 q 393 863 395 863 l 393 863 l 396 869 l 395 870 l 391 865 l 387 870 l 385 871 l 382 870 l 381 868 l 380 862 l 384 860 l 388 856 l 387 854 l 382 852 l 380 845 z m 368 878 l 367 876 q 377 880 374 874 l 377 880 q 375 888 373 885 l 375 888 l 374 890 l 368 880 l 368 878 z m 404 873 l 406 867 l 408 869 l 407 870 l 407 872 l 404 873 z m 406 886 q 416 876 404 884 l 416 876 q 416 887 413 882 l 416 887 l 414 888 q 407 887 411 884 l 407 887 l 406 886 z m 391 895 q 401 896 396 893 l 401 896 l 397 898 q 395 906 391 901 l 395 906 l 393 907 q 389 906 392 904 l 389 906 l 387 903 l 387 901 l 391 900 q 391 895 393 899 l 391 895 z m 407 901 l 407 898 l 410 897 l 408 900 l 407 901 z m 353 681 l 356 681 l 356 687 l 353 687 l 353 681 z m 338 687 l 341 687 l 341 690 l 338 692 l 338 687 z m 363 692 l 363 692 l 357 697 l 353 697 q 363 692 353 694 z m 331 694 l 334 694 l 334 700 l 330 700 l 330 698 l 331 694 z m 326 712 l 328 712 l 328 713 l 315 722 l 315 717 q 322 706 322 713 l 322 706 q 326 712 324 706 l 326 712 z m 360 713 l 360 713 l 360 715 q 353 720 356 715 l 353 720 l 351 720 l 347 716 l 351 709 l 353 709 q 360 713 357 713 z m 365 730 l 365 732 l 366 733 l 366 745 l 363 745 q 358 738 363 741 l 358 738 q 365 730 358 732 l 365 730 z m 327 742 l 332 747 l 328 747 l 327 745 l 326 745 l 327 742 z m 301 789 l 307 791 l 304 795 l 300 794 l 301 789 z m 313 766 q 327 763 313 764 l 327 763 q 321 773 321 767 l 321 773 l 318 773 q 313 768 318 768 l 313 768 l 313 766 z m 296 766 q 303 773 301 768 l 303 773 l 299 773 q 293 779 293 773 l 293 779 l 292 779 q 288 776 292 776 l 288 776 l 288 771 l 289 770 l 293 771 q 296 766 296 771 l 296 766 z m 306 780 l 308 778 l 311 778 l 308 780 l 306 780 z m 300 803 l 303 800 l 307 800 l 304 803 l 300 803 z m 338 717 l 339 718 l 338 725 l 336 728 l 334 727 l 338 717 z m 330 746 l 331 746 l 329 753 l 324 751 l 325 751 l 330 746 z m 328 690 l 330 690 l 330 696 l 328 696 l 328 690 z m 298 746 q 314 746 306 749 l 314 746 l 315 748 q 300 749 312 751 l 300 749 l 298 746 z m 342 696 l 345 696 l 345 701 l 342 699 l 342 696 z m 320 701 q 330 705 330 703 l 330 705 l 326 705 l 320 701 z m 350 703 l 353 703 l 354 707 l 354 708 l 350 708 l 350 703 z m 329 765 l 331 767 l 326 778 l 323 777 l 325 774 l 328 766 l 329 765 z m 323 722 q 331 718 327 722 l 331 718 l 332 718 l 336 724 l 332 728 l 331 728 q 323 724 328 724 l 323 724 l 323 722 z m 306 783 l 313 785 l 312 788 l 304 785 l 306 783 z m 286 791 l 296 789 l 297 789 l 296 791 q 285 794 287 789 l 285 794 l 282 792 l 283 789 l 286 791 z m 319 741 l 319 739 q 326 747 326 741 l 326 747 q 320 753 320 749 l 320 753 l 317 753 l 317 742 l 319 741 z m 288 801 l 292 802 q 286 803 291 804 l 286 803 l 288 801 z m 352 755 l 357 751 l 358 754 l 357 754 l 355 755 l 352 755 z m 373 711 q 387 707 373 708 l 387 707 q 381 717 381 711 l 381 717 l 378 717 q 373 712 378 712 l 373 712 l 373 711 z m 360 706 q 368 713 366 708 l 368 713 l 363 713 q 357 719 357 713 l 357 719 l 356 719 q 353 715 356 715 l 353 715 l 353 711 l 353 710 l 357 711 q 360 706 360 711 l 360 706 z m 370 720 l 372 718 l 375 718 l 372 720 l 370 720 z m 377 735 l 379 735 l 379 736 l 377 740 l 374 740 q 377 738 374 738 l 377 738 l 377 735 z m 551 1153 l 0 1153 l 0 -280 l 551 -280 l 551 1153 z "},"+":{"ha":616,"x_min":0,"x_max":625,"o":"m 215 530 l 215 387 l 109 387 l 102 392 l 102 525 l 109 530 l 201 530 l 201 522 q 208 530 208 522 l 208 530 l 215 530 z m 407 387 l 407 530 l 507 530 l 515 525 l 515 503 l 511 500 l 515 497 l 515 412 l 507 412 l 507 404 l 515 404 l 515 392 l 507 387 l 420 387 l 414 392 l 420 397 l 420 406 l 417 406 q 407 387 407 406 l 407 387 z m 475 417 l 482 422 l 472 428 l 468 420 l 472 417 l 475 417 z m 432 445 l 439 445 l 439 456 l 432 450 l 432 445 z m 486 464 l 486 464 l 489 467 l 489 470 l 486 473 l 482 473 l 479 470 l 468 481 l 468 497 l 464 497 l 453 494 l 453 492 q 486 464 463 473 z m 460 500 l 475 500 l 475 506 l 468 506 l 460 500 z m 446 511 l 450 511 l 450 522 l 446 522 l 442 514 l 446 511 z m 355 611 l 350 616 l 344 608 l 353 606 l 355 608 l 355 611 z m 265 517 l 271 517 l 271 522 l 265 528 l 265 517 z m 304 500 l 311 500 l 316 517 l 313 517 l 304 509 l 304 500 z m 368 494 l 378 494 l 378 500 l 373 500 l 368 494 z m 364 439 l 373 433 l 376 445 l 370 445 l 364 439 z m 253 418 l 253 423 l 247 423 l 241 418 l 253 418 z m 258 589 l 258 591 l 247 591 l 247 589 l 256 586 l 258 589 z m 268 458 l 266 456 l 271 456 l 271 462 l 253 467 l 253 465 l 260 458 l 260 458 l 268 458 z m 271 600 l 271 611 l 264 611 l 264 606 l 271 600 z m 307 619 l 307 619 l 304 622 l 301 622 l 298 619 l 298 616 l 301 614 l 290 606 l 273 606 l 273 602 l 276 594 l 279 594 q 307 619 297 602 z m 321 412 l 313 420 l 313 412 l 321 412 z m 326 578 l 326 583 l 315 583 l 321 578 l 326 578 z m 332 514 l 338 522 l 326 525 l 326 519 l 332 514 z m 347 385 l 347 387 q 335 404 335 387 l 335 404 l 338 406 l 326 409 l 326 393 l 344 385 l 347 385 z m 239 445 l 239 444 l 239 517 l 244 525 l 239 533 l 239 635 l 244 642 l 267 642 l 271 639 l 273 642 l 361 642 l 361 635 l 369 635 l 369 642 l 380 642 l 386 635 l 386 569 l 380 564 l 375 569 l 366 569 l 366 566 q 386 558 366 558 l 386 558 l 386 511 l 383 509 l 386 506 l 386 470 q 372 462 372 468 l 372 462 l 375 459 l 375 456 l 378 459 l 386 459 l 386 390 l 378 390 l 380 387 l 378 385 l 378 379 l 380 379 l 383 382 l 386 382 l 386 283 l 380 277 l 244 277 l 239 283 l 239 354 l 247 354 q 239 359 247 359 l 239 359 l 239 435 q 251 437 243 437 l 251 437 l 254 433 l 256 445 l 239 445 z m 625 1153 l 0 1153 l 0 -280 l 625 -280 l 625 1153 z "},",":{"ha":378,"x_min":0,"x_max":387,"o":"m 270 109 l 277 109 q 246 83 277 91 l 246 83 l 243 86 l 243 81 l 246 78 l 243 75 l 243 72 l 252 64 l 270 78 l 277 78 l 277 75 l 273 72 l 273 69 l 277 66 l 273 53 l 273 31 l 277 17 l 273 17 l 277 14 l 277 6 l 273 -2 l 277 -16 l 277 -63 l 270 -85 l 277 -91 l 277 -94 l 273 -96 l 277 -99 l 277 -209 l 270 -214 l 267 -214 l 267 -212 l 270 -198 l 267 -195 l 263 -195 l 256 -218 l 267 -220 l 267 -226 l 206 -226 q 223 -195 209 -205 l 223 -195 l 223 -178 l 230 -178 l 230 -162 q 243 -151 243 -162 l 243 -151 l 239 -151 q 209 -165 209 -157 l 209 -165 q 199 -173 209 -173 l 199 -173 l 196 -176 l 196 -178 q 209 -187 209 -178 l 209 -187 l 216 -195 l 203 -212 l 203 -218 l 206 -220 l 206 -223 l 182 -226 l 138 -226 l 136 -223 l 132 -226 l 129 -226 l 106 -223 l 109 -203 l 102 -198 l 102 -193 l 106 -193 l 102 -173 l 102 -140 l 106 -138 l 102 -135 l 102 -115 l 106 -113 l 102 -110 l 102 -94 l 106 -82 l 102 -71 l 102 -52 l 109 -46 l 102 -24 l 102 47 q 122 58 102 53 l 122 58 l 122 61 l 112 66 l 116 75 l 112 75 q 102 89 102 75 l 102 89 l 102 105 l 109 105 l 109 92 l 112 92 l 116 94 l 125 92 l 125 89 l 122 86 l 122 83 l 125 81 l 142 81 q 149 89 149 81 l 149 89 l 146 92 l 146 94 l 149 102 l 146 100 l 142 102 l 138 102 l 129 100 l 112 105 l 112 111 l 153 111 l 156 109 l 159 111 l 230 111 l 230 109 q 203 100 230 102 l 203 100 l 203 97 q 230 92 223 97 l 230 92 l 233 92 l 252 109 l 263 109 l 267 105 l 270 109 z m 270 14 l 263 20 l 259 20 l 263 12 l 270 12 l 270 14 z m 270 1 l 267 9 l 259 9 l 259 6 l 263 -2 l 270 -2 l 270 1 z m 263 -107 l 256 -102 q 243 -121 256 -110 l 243 -121 q 252 -130 252 -121 l 252 -130 q 236 -149 248 -130 l 236 -149 l 243 -149 q 263 -124 243 -135 l 263 -124 l 263 -107 z m 236 6 l 243 12 l 233 12 l 233 6 l 236 6 z m 236 58 l 236 64 q 209 50 218 64 l 209 50 l 233 36 l 236 36 l 236 39 q 230 50 230 39 l 230 50 l 223 50 l 223 53 l 230 53 l 236 58 z m 219 -77 l 223 -68 l 216 -68 l 216 -82 l 223 -82 l 219 -79 l 219 -77 z m 209 9 l 216 20 l 212 20 l 203 17 l 203 14 l 209 9 z m 209 -132 l 209 -124 l 196 -127 l 196 -132 l 203 -138 l 209 -132 z m 203 78 l 203 78 l 196 78 l 196 72 q 190 64 190 72 l 190 64 l 165 64 l 165 58 l 182 56 q 203 78 203 71 z m 190 -130 l 190 -127 l 176 -127 l 176 -130 l 190 -130 z m 182 -184 l 182 -178 l 165 -181 l 176 -190 l 182 -184 z m 176 22 l 176 31 l 165 25 l 159 39 q 149 28 154 39 l 149 28 q 159 14 155 28 l 159 14 l 156 12 l 169 14 l 165 17 l 165 22 l 176 22 z m 172 -99 l 169 -85 l 156 -85 l 153 -94 l 172 -99 z m 163 66 l 156 81 l 153 81 l 153 78 l 156 64 l 163 64 l 163 66 z m 159 -124 l 159 -118 l 153 -118 l 129 -127 l 129 -130 l 149 -130 q 159 -124 149 -124 l 159 -124 z m 122 -58 l 125 -46 l 116 -46 l 116 -49 l 119 -58 l 122 -58 z m 125 -130 l 125 -124 q 116 -118 116 -124 l 116 -118 l 109 -118 l 116 -130 l 125 -130 z m 387 1153 l 0 1153 l 0 -280 l 387 -280 l 387 1153 z "},"-":{"ha":568,"x_min":0,"x_max":576,"o":"m 102 559 l 108 564 l 174 564 l 179 559 l 174 553 l 174 545 l 176 545 q 184 564 184 545 l 184 564 l 231 564 l 234 562 l 237 564 l 273 564 q 281 551 275 551 l 281 551 l 284 553 l 287 553 l 284 556 l 284 564 l 353 564 l 353 556 l 355 559 l 358 556 l 363 556 l 363 559 l 361 562 l 361 564 l 460 564 l 467 559 l 467 427 l 460 421 l 389 421 l 389 429 q 383 421 383 429 l 383 421 l 226 421 l 218 427 l 210 421 l 108 421 l 102 427 l 102 448 l 104 452 l 102 454 l 102 539 l 108 539 l 108 547 l 102 547 l 102 559 z m 132 534 l 127 528 l 135 523 l 138 531 l 135 534 l 132 534 z m 358 526 l 355 526 q 339 515 355 515 l 339 515 l 336 517 l 334 507 l 350 507 l 358 523 l 358 526 z m 229 512 l 220 517 l 218 507 l 223 507 l 229 512 z m 165 507 l 160 507 l 160 496 l 165 501 l 165 507 z m 331 501 l 323 493 l 331 493 l 331 501 z m 124 488 l 124 488 l 121 485 l 121 481 l 124 479 l 127 479 l 130 481 l 138 471 l 138 454 l 141 454 l 149 457 l 149 460 q 124 488 141 477 z m 226 457 l 215 457 l 215 452 l 220 452 l 226 457 z m 144 452 l 132 452 l 132 446 l 138 446 l 144 452 z m 287 452 l 281 452 l 276 435 l 279 435 l 287 443 l 287 452 z m 155 440 l 152 440 l 152 429 l 155 429 l 157 437 l 155 440 z m 326 435 l 320 435 l 320 429 l 326 424 l 326 435 z m 576 1153 l 0 1153 l 0 -280 l 576 -280 l 576 1153 z "},"­":{"ha":568,"x_min":0,"x_max":576,"o":"m 102 559 l 108 564 l 174 564 l 179 559 l 174 553 l 174 545 l 176 545 q 184 564 184 545 l 184 564 l 231 564 l 234 562 l 237 564 l 273 564 q 281 551 275 551 l 281 551 l 284 553 l 287 553 l 284 556 l 284 564 l 353 564 l 353 556 l 355 559 l 358 556 l 363 556 l 363 559 l 361 562 l 361 564 l 460 564 l 467 559 l 467 427 l 460 421 l 389 421 l 389 429 q 383 421 383 429 l 383 421 l 226 421 l 218 427 l 210 421 l 108 421 l 102 427 l 102 448 l 104 452 l 102 454 l 102 539 l 108 539 l 108 547 l 102 547 l 102 559 z m 132 534 l 127 528 l 135 523 l 138 531 l 135 534 l 132 534 z m 358 526 l 355 526 q 339 515 355 515 l 339 515 l 336 517 l 334 507 l 350 507 l 358 523 l 358 526 z m 229 512 l 220 517 l 218 507 l 223 507 l 229 512 z m 165 507 l 160 507 l 160 496 l 165 501 l 165 507 z m 331 501 l 323 493 l 331 493 l 331 501 z m 124 488 l 124 488 l 121 485 l 121 481 l 124 479 l 127 479 l 130 481 l 138 471 l 138 454 l 141 454 l 149 457 l 149 460 q 124 488 141 477 z m 226 457 l 215 457 l 215 452 l 220 452 l 226 457 z m 144 452 l 132 452 l 132 446 l 138 446 l 144 452 z m 287 452 l 281 452 l 276 435 l 279 435 l 287 443 l 287 452 z m 155 440 l 152 440 l 152 429 l 155 429 l 157 437 l 155 440 z m 326 435 l 320 435 l 320 429 l 326 424 l 326 435 z m 576 1153 l 0 1153 l 0 -280 l 576 -280 l 576 1153 z "},".":{"ha":380,"x_min":0,"x_max":387,"o":"m 102 143 l 279 143 l 279 136 q 265 124 273 124 l 265 124 l 271 119 l 279 121 l 279 45 l 273 45 q 268 58 273 58 l 268 58 l 251 66 l 251 64 q 268 56 251 59 l 268 56 l 271 41 l 271 39 l 262 31 l 256 31 l 240 45 l 240 41 l 254 25 l 251 17 l 254 17 q 271 28 271 17 l 271 28 l 279 28 l 279 5 l 273 0 l 256 0 l 248 5 l 243 0 l 223 0 q 218 8 218 0 l 218 8 l 201 8 q 195 0 201 0 l 195 0 l 182 0 l 165 14 l 163 14 l 163 0 l 130 0 l 130 8 l 113 8 l 113 5 l 119 5 l 119 0 l 107 0 l 102 5 l 102 8 l 107 17 l 107 31 l 102 31 l 102 56 l 113 72 q 104 80 113 80 l 104 80 l 102 83 l 102 102 l 107 108 l 119 108 l 127 102 l 135 102 l 132 105 l 119 111 l 113 127 l 107 127 l 107 113 l 102 113 l 102 143 z m 171 141 l 168 141 l 168 136 q 160 130 160 136 l 160 130 l 168 130 l 171 138 l 171 141 z m 146 130 l 140 124 l 149 124 l 155 130 l 146 130 z m 184 80 l 171 72 l 171 69 l 176 69 q 184 75 176 75 l 184 75 l 184 80 z m 201 80 l 201 80 l 201 77 l 207 69 l 207 64 q 195 56 207 56 l 195 56 l 195 53 l 210 53 l 212 66 q 201 80 207 79 z m 157 69 l 149 69 l 149 64 l 152 64 l 157 69 z m 179 41 l 165 41 l 171 36 l 179 36 l 179 41 z m 152 31 l 140 25 l 146 17 l 155 20 l 152 31 z m 235 25 l 226 25 l 226 20 l 235 20 l 235 25 z m 387 1153 l 0 1153 l 0 -280 l 387 -280 l 387 1153 z "},"/":{"ha":665,"x_min":0,"x_max":669,"o":"m 564 769 l 270 -36 l 102 -36 l 395 769 l 564 769 z m 254 181 l 248 186 l 243 178 l 245 178 l 254 181 z m 235 128 l 232 128 l 232 123 l 235 120 l 240 120 l 240 123 l 235 128 z m 213 26 l 193 17 l 193 14 l 227 1 l 229 -2 l 232 -2 l 229 12 l 229 17 l 235 26 l 213 26 z m 273 224 l 261 224 l 267 218 l 273 218 l 273 224 z m 356 304 l 353 304 l 353 298 l 359 293 l 361 296 l 361 298 l 356 304 z m 420 615 l 420 615 l 425 609 q 453 626 450 617 l 453 626 l 450 629 q 420 615 437 615 z m 349 542 l 343 542 l 343 536 l 349 530 l 349 542 z m 366 525 l 359 525 l 359 514 l 368 514 l 368 517 l 366 525 z m 406 533 l 401 533 l 401 530 l 429 511 l 429 522 q 414 547 414 532 l 414 547 q 406 533 410 547 l 406 533 z m 408 719 l 408 719 l 408 715 q 425 705 417 715 l 425 705 l 428 705 l 436 713 l 428 727 l 425 727 q 408 719 416 719 z m 354 492 l 349 492 l 346 475 l 354 467 l 354 462 l 340 459 l 332 459 l 326 445 l 326 442 l 332 437 l 335 437 l 349 439 l 351 426 l 354 426 l 354 442 q 359 453 359 442 l 359 453 l 363 456 l 366 456 l 376 453 l 376 456 q 359 467 376 462 l 359 467 l 357 481 l 357 484 l 363 484 l 363 486 q 354 492 354 486 l 354 492 z m 429 453 l 412 439 l 404 442 l 404 431 l 412 431 q 431 448 412 442 l 431 448 l 431 453 l 429 453 z m 434 422 l 423 420 l 423 414 q 434 422 434 418 l 434 422 z m 374 420 l 363 409 l 371 409 l 374 412 l 376 412 l 374 420 z m 399 409 l 391 409 l 391 406 q 410 392 391 402 l 410 392 l 410 398 q 401 406 401 398 l 401 406 l 399 409 z m 354 384 l 354 384 l 354 381 q 366 370 366 381 l 366 370 l 371 370 q 385 392 371 383 l 385 392 q 354 384 354 389 z m 415 387 l 407 384 l 407 381 l 418 381 l 415 384 l 415 387 z m 484 704 l 484 704 q 478 693 484 693 l 478 693 l 469 696 l 467 693 l 467 684 q 475 676 475 684 l 475 676 l 478 676 q 492 690 478 690 l 492 690 l 500 690 q 484 704 495 701 z m 367 576 l 367 576 l 367 573 l 370 573 q 392 587 371 587 l 392 587 l 392 599 q 367 576 367 589 z m 456 646 l 450 641 l 456 641 l 461 646 l 456 646 z m 412 580 l 404 580 l 400 567 l 409 567 l 412 580 z m 469 608 l 467 608 l 467 602 q 458 597 458 602 l 458 597 l 467 597 l 469 605 l 469 608 z m 445 597 l 439 591 l 448 591 l 453 597 l 445 597 z m 316 329 l 302 320 l 302 317 l 308 317 q 316 323 308 323 l 316 323 l 316 329 z m 305 410 l 305 410 l 305 408 l 311 399 l 311 393 q 300 385 311 385 l 300 385 l 300 382 l 314 382 l 317 396 q 305 410 311 409 z m 288 317 l 280 317 l 280 312 l 283 312 l 288 317 z m 311 290 l 296 290 l 302 284 l 311 284 l 311 290 z m 283 279 l 271 273 l 277 265 l 286 268 l 283 279 z m 339 355 l 330 355 l 330 349 l 339 349 l 339 355 z m 669 1153 l 0 1153 l 0 -280 l 669 -280 l 669 1153 z "},":":{"ha":380,"x_min":0,"x_max":387,"o":"m 102 143 l 279 143 l 279 136 q 265 124 273 124 l 265 124 l 271 119 l 279 121 l 279 45 l 273 45 q 268 58 273 58 l 268 58 l 251 66 l 251 64 q 268 56 251 59 l 268 56 l 271 41 l 271 39 l 262 31 l 256 31 l 240 45 l 240 41 l 254 25 l 251 17 l 254 17 q 271 28 271 17 l 271 28 l 279 28 l 279 5 l 273 0 l 256 0 l 248 5 l 243 0 l 223 0 q 218 8 218 0 l 218 8 l 201 8 q 195 0 201 0 l 195 0 l 182 0 l 165 14 l 163 14 l 163 0 l 130 0 l 130 8 l 113 8 l 113 5 l 119 5 l 119 0 l 107 0 l 102 5 l 102 8 l 107 17 l 107 31 l 102 31 l 102 56 l 113 72 q 104 80 113 80 l 104 80 l 102 83 l 102 102 l 107 108 l 119 108 l 127 102 l 135 102 l 132 105 l 119 111 l 113 127 l 107 127 l 107 113 l 102 113 l 102 143 z m 171 141 l 168 141 l 168 136 q 160 130 160 136 l 160 130 l 168 130 l 171 138 l 171 141 z m 146 130 l 140 124 l 149 124 l 155 130 l 146 130 z m 184 80 l 171 72 l 171 69 l 176 69 q 184 75 176 75 l 184 75 l 184 80 z m 201 80 l 201 80 l 201 77 l 207 69 l 207 64 q 195 56 207 56 l 195 56 l 195 53 l 210 53 l 212 66 q 201 80 207 79 z m 157 69 l 149 69 l 149 64 l 152 64 l 157 69 z m 179 41 l 165 41 l 171 36 l 179 36 l 179 41 z m 152 31 l 140 25 l 146 17 l 155 20 l 152 31 z m 235 25 l 226 25 l 226 20 l 235 20 l 235 25 z m 102 556 l 279 556 l 279 549 q 265 537 273 537 l 265 537 l 271 532 l 279 534 l 279 457 l 273 457 q 268 471 273 471 l 268 471 l 251 479 l 251 476 q 268 468 251 472 l 268 468 l 271 454 l 271 452 l 262 444 l 256 444 l 240 457 l 240 454 l 254 438 l 251 430 l 254 430 q 271 441 271 430 l 271 441 l 279 441 l 279 418 l 273 413 l 256 413 l 248 418 l 243 413 l 223 413 q 218 421 218 413 l 218 421 l 201 421 q 195 413 201 413 l 195 413 l 182 413 l 165 427 l 163 427 l 163 413 l 130 413 l 130 421 l 113 421 l 113 418 l 119 418 l 119 413 l 107 413 l 102 418 l 102 421 l 107 430 l 107 444 l 102 444 l 102 468 l 113 484 q 104 493 113 493 l 104 493 l 102 496 l 102 515 l 107 521 l 119 521 l 127 515 l 135 515 l 132 518 l 119 524 l 113 540 l 107 540 l 107 526 l 102 526 l 102 556 z m 171 554 l 168 554 l 168 549 q 160 543 160 549 l 160 543 l 168 543 l 171 551 l 171 554 z m 146 543 l 140 537 l 149 537 l 155 543 l 146 543 z m 184 493 l 171 484 l 171 481 l 176 481 q 184 488 176 488 l 184 488 l 184 493 z m 201 493 l 201 493 l 201 490 l 207 481 l 207 476 q 195 468 207 468 l 195 468 l 195 465 l 210 465 l 212 479 q 201 493 207 492 z m 157 481 l 149 481 l 149 476 l 152 476 l 157 481 z m 179 454 l 165 454 l 171 449 l 179 449 l 179 454 z m 152 444 l 140 438 l 146 430 l 155 433 l 152 444 z m 235 438 l 226 438 l 226 433 l 235 433 l 235 438 z m 387 1153 l 0 1153 l 0 -280 l 387 -280 l 387 1153 z "},";":{"ha":380,"x_min":0,"x_max":390,"o":"m 102 511 l 279 511 l 279 503 q 265 492 273 492 l 265 492 l 271 486 l 279 489 l 279 412 l 273 412 q 268 426 273 426 l 268 426 l 251 434 l 251 431 q 268 423 251 427 l 268 423 l 271 409 l 271 406 l 262 398 l 256 398 l 240 412 l 240 409 l 254 393 l 251 385 l 254 385 q 271 395 271 385 l 271 395 l 279 395 l 279 373 l 273 368 l 256 368 l 248 373 l 243 368 l 223 368 q 218 376 218 368 l 218 376 l 201 376 q 195 368 201 368 l 195 368 l 182 368 l 165 381 l 163 381 l 163 368 l 130 368 l 130 376 l 113 376 l 113 373 l 119 373 l 119 368 l 107 368 l 102 373 l 102 376 l 107 385 l 107 398 l 102 398 l 102 423 l 113 439 q 104 448 113 448 l 104 448 l 102 451 l 102 470 l 107 475 l 119 475 l 127 470 l 135 470 l 132 473 l 119 478 l 113 494 l 107 494 l 107 481 l 102 481 l 102 511 z m 171 509 l 168 509 l 168 503 q 160 498 160 503 l 160 498 l 168 498 l 171 506 l 171 509 z m 146 498 l 140 492 l 149 492 l 155 498 l 146 498 z m 184 448 l 171 439 l 171 437 l 176 437 q 184 443 176 443 l 184 443 l 184 448 z m 201 448 l 201 448 l 201 446 l 207 437 l 207 431 q 195 423 207 423 l 195 423 l 195 420 l 210 420 l 212 434 q 201 448 207 447 z m 157 437 l 149 437 l 149 431 l 152 431 l 157 437 z m 179 409 l 165 409 l 171 404 l 179 404 l 179 409 z m 152 398 l 140 393 l 146 385 l 155 387 l 152 398 z m 235 393 l 226 393 l 226 387 l 235 387 l 235 393 z m 270 109 l 277 109 q 246 83 277 91 l 246 83 l 243 86 l 243 81 l 246 78 l 243 75 l 243 72 l 252 64 l 270 78 l 277 78 l 277 75 l 273 72 l 273 69 l 277 66 l 273 53 l 273 31 l 277 17 l 273 17 l 277 14 l 277 6 l 273 -2 l 277 -16 l 277 -63 l 270 -85 l 277 -91 l 277 -94 l 273 -96 l 277 -99 l 277 -209 l 270 -214 l 267 -214 l 267 -212 l 270 -198 l 267 -195 l 263 -195 l 256 -218 l 267 -220 l 267 -226 l 206 -226 q 223 -195 209 -205 l 223 -195 l 223 -178 l 230 -178 l 230 -162 q 243 -151 243 -162 l 243 -151 l 239 -151 q 209 -165 209 -157 l 209 -165 q 199 -173 209 -173 l 199 -173 l 196 -176 l 196 -178 q 209 -187 209 -178 l 209 -187 l 216 -195 l 203 -212 l 203 -218 l 206 -220 l 206 -223 l 182 -226 l 138 -226 l 136 -223 l 132 -226 l 129 -226 l 106 -223 l 109 -203 l 102 -198 l 102 -193 l 106 -193 l 102 -173 l 102 -140 l 106 -138 l 102 -135 l 102 -115 l 106 -113 l 102 -110 l 102 -94 l 106 -82 l 102 -71 l 102 -52 l 109 -46 l 102 -24 l 102 47 q 122 58 102 53 l 122 58 l 122 61 l 112 66 l 116 75 l 112 75 q 102 89 102 75 l 102 89 l 102 105 l 109 105 l 109 92 l 112 92 l 116 94 l 125 92 l 125 89 l 122 86 l 122 83 l 125 81 l 142 81 q 149 89 149 81 l 149 89 l 146 92 l 146 94 l 149 102 l 146 100 l 142 102 l 138 102 l 129 100 l 112 105 l 112 111 l 153 111 l 156 109 l 159 111 l 230 111 l 230 109 q 203 100 230 102 l 203 100 l 203 97 q 230 92 223 97 l 230 92 l 233 92 l 252 109 l 263 109 l 267 105 l 270 109 z m 270 14 l 263 20 l 259 20 l 263 12 l 270 12 l 270 14 z m 270 1 l 267 9 l 259 9 l 259 6 l 263 -2 l 270 -2 l 270 1 z m 263 -107 l 256 -102 q 243 -121 256 -110 l 243 -121 q 252 -130 252 -121 l 252 -130 q 236 -149 248 -130 l 236 -149 l 243 -149 q 263 -124 243 -135 l 263 -124 l 263 -107 z m 236 6 l 243 12 l 233 12 l 233 6 l 236 6 z m 236 58 l 236 64 q 209 50 218 64 l 209 50 l 233 36 l 236 36 l 236 39 q 230 50 230 39 l 230 50 l 223 50 l 223 53 l 230 53 l 236 58 z m 219 -77 l 223 -68 l 216 -68 l 216 -82 l 223 -82 l 219 -79 l 219 -77 z m 209 9 l 216 20 l 212 20 l 203 17 l 203 14 l 209 9 z m 209 -132 l 209 -124 l 196 -127 l 196 -132 l 203 -138 l 209 -132 z m 203 78 l 203 78 l 196 78 l 196 72 q 190 64 190 72 l 190 64 l 165 64 l 165 58 l 182 56 q 203 78 203 71 z m 190 -130 l 190 -127 l 176 -127 l 176 -130 l 190 -130 z m 182 -184 l 182 -178 l 165 -181 l 176 -190 l 182 -184 z m 176 22 l 176 31 l 165 25 l 159 39 q 149 28 154 39 l 149 28 q 159 14 155 28 l 159 14 l 156 12 l 169 14 l 165 17 l 165 22 l 176 22 z m 172 -99 l 169 -85 l 156 -85 l 153 -94 l 172 -99 z m 163 66 l 156 81 l 153 81 l 153 78 l 156 64 l 163 64 l 163 66 z m 159 -124 l 159 -118 l 153 -118 l 129 -127 l 129 -130 l 149 -130 q 159 -124 149 -124 l 159 -124 z m 122 -58 l 125 -46 l 116 -46 l 116 -49 l 119 -58 l 122 -58 z m 125 -130 l 125 -124 q 116 -118 116 -124 l 116 -118 l 109 -118 l 116 -130 l 125 -130 z m 390 1153 l 0 1153 l 0 -280 l 390 -280 l 390 1153 z "},";":{"ha":380,"x_min":0,"x_max":390,"o":"m 102 511 l 279 511 l 279 503 q 265 492 273 492 l 265 492 l 271 486 l 279 489 l 279 412 l 273 412 q 268 426 273 426 l 268 426 l 251 434 l 251 431 q 268 423 251 427 l 268 423 l 271 409 l 271 406 l 262 398 l 256 398 l 240 412 l 240 409 l 254 393 l 251 385 l 254 385 q 271 395 271 385 l 271 395 l 279 395 l 279 373 l 273 368 l 256 368 l 248 373 l 243 368 l 223 368 q 218 376 218 368 l 218 376 l 201 376 q 195 368 201 368 l 195 368 l 182 368 l 165 381 l 163 381 l 163 368 l 130 368 l 130 376 l 113 376 l 113 373 l 119 373 l 119 368 l 107 368 l 102 373 l 102 376 l 107 385 l 107 398 l 102 398 l 102 423 l 113 439 q 104 448 113 448 l 104 448 l 102 451 l 102 470 l 107 475 l 119 475 l 127 470 l 135 470 l 132 473 l 119 478 l 113 494 l 107 494 l 107 481 l 102 481 l 102 511 z m 171 509 l 168 509 l 168 503 q 160 498 160 503 l 160 498 l 168 498 l 171 506 l 171 509 z m 146 498 l 140 492 l 149 492 l 155 498 l 146 498 z m 184 448 l 171 439 l 171 437 l 176 437 q 184 443 176 443 l 184 443 l 184 448 z m 201 448 l 201 448 l 201 446 l 207 437 l 207 431 q 195 423 207 423 l 195 423 l 195 420 l 210 420 l 212 434 q 201 448 207 447 z m 157 437 l 149 437 l 149 431 l 152 431 l 157 437 z m 179 409 l 165 409 l 171 404 l 179 404 l 179 409 z m 152 398 l 140 393 l 146 385 l 155 387 l 152 398 z m 235 393 l 226 393 l 226 387 l 235 387 l 235 393 z m 270 109 l 277 109 q 246 83 277 91 l 246 83 l 243 86 l 243 81 l 246 78 l 243 75 l 243 72 l 252 64 l 270 78 l 277 78 l 277 75 l 273 72 l 273 69 l 277 66 l 273 53 l 273 31 l 277 17 l 273 17 l 277 14 l 277 6 l 273 -2 l 277 -16 l 277 -63 l 270 -85 l 277 -91 l 277 -94 l 273 -96 l 277 -99 l 277 -209 l 270 -214 l 267 -214 l 267 -212 l 270 -198 l 267 -195 l 263 -195 l 256 -218 l 267 -220 l 267 -226 l 206 -226 q 223 -195 209 -205 l 223 -195 l 223 -178 l 230 -178 l 230 -162 q 243 -151 243 -162 l 243 -151 l 239 -151 q 209 -165 209 -157 l 209 -165 q 199 -173 209 -173 l 199 -173 l 196 -176 l 196 -178 q 209 -187 209 -178 l 209 -187 l 216 -195 l 203 -212 l 203 -218 l 206 -220 l 206 -223 l 182 -226 l 138 -226 l 136 -223 l 132 -226 l 129 -226 l 106 -223 l 109 -203 l 102 -198 l 102 -193 l 106 -193 l 102 -173 l 102 -140 l 106 -138 l 102 -135 l 102 -115 l 106 -113 l 102 -110 l 102 -94 l 106 -82 l 102 -71 l 102 -52 l 109 -46 l 102 -24 l 102 47 q 122 58 102 53 l 122 58 l 122 61 l 112 66 l 116 75 l 112 75 q 102 89 102 75 l 102 89 l 102 105 l 109 105 l 109 92 l 112 92 l 116 94 l 125 92 l 125 89 l 122 86 l 122 83 l 125 81 l 142 81 q 149 89 149 81 l 149 89 l 146 92 l 146 94 l 149 102 l 146 100 l 142 102 l 138 102 l 129 100 l 112 105 l 112 111 l 153 111 l 156 109 l 159 111 l 230 111 l 230 109 q 203 100 230 102 l 203 100 l 203 97 q 230 92 223 97 l 230 92 l 233 92 l 252 109 l 263 109 l 267 105 l 270 109 z m 270 14 l 263 20 l 259 20 l 263 12 l 270 12 l 270 14 z m 270 1 l 267 9 l 259 9 l 259 6 l 263 -2 l 270 -2 l 270 1 z m 263 -107 l 256 -102 q 243 -121 256 -110 l 243 -121 q 252 -130 252 -121 l 252 -130 q 236 -149 248 -130 l 236 -149 l 243 -149 q 263 -124 243 -135 l 263 -124 l 263 -107 z m 236 6 l 243 12 l 233 12 l 233 6 l 236 6 z m 236 58 l 236 64 q 209 50 218 64 l 209 50 l 233 36 l 236 36 l 236 39 q 230 50 230 39 l 230 50 l 223 50 l 223 53 l 230 53 l 236 58 z m 219 -77 l 223 -68 l 216 -68 l 216 -82 l 223 -82 l 219 -79 l 219 -77 z m 209 9 l 216 20 l 212 20 l 203 17 l 203 14 l 209 9 z m 209 -132 l 209 -124 l 196 -127 l 196 -132 l 203 -138 l 209 -132 z m 203 78 l 203 78 l 196 78 l 196 72 q 190 64 190 72 l 190 64 l 165 64 l 165 58 l 182 56 q 203 78 203 71 z m 190 -130 l 190 -127 l 176 -127 l 176 -130 l 190 -130 z m 182 -184 l 182 -178 l 165 -181 l 176 -190 l 182 -184 z m 176 22 l 176 31 l 165 25 l 159 39 q 149 28 154 39 l 149 28 q 159 14 155 28 l 159 14 l 156 12 l 169 14 l 165 17 l 165 22 l 176 22 z m 172 -99 l 169 -85 l 156 -85 l 153 -94 l 172 -99 z m 163 66 l 156 81 l 153 81 l 153 78 l 156 64 l 163 64 l 163 66 z m 159 -124 l 159 -118 l 153 -118 l 129 -127 l 129 -130 l 149 -130 q 159 -124 149 -124 l 159 -124 z m 122 -58 l 125 -46 l 116 -46 l 116 -49 l 119 -58 l 122 -58 z m 125 -130 l 125 -124 q 116 -118 116 -124 l 116 -118 l 109 -118 l 116 -130 l 125 -130 z m 390 1153 l 0 1153 l 0 -280 l 390 -280 l 390 1153 z "},"<":{"ha":780,"x_min":0,"x_max":789,"o":"m 534 578 l 538 574 l 540 580 l 540 582 l 534 578 z m 577 590 l 577 588 l 581 585 l 583 585 l 583 588 l 581 590 l 577 590 z m 659 618 l 653 604 l 653 588 l 659 593 l 663 593 l 673 590 l 673 593 l 671 594 l 661 618 l 659 618 z m 505 568 l 505 560 l 510 560 l 510 564 l 505 568 z m 447 500 l 447 498 l 451 494 l 453 494 l 455 496 l 451 500 l 447 500 z m 328 427 l 201 427 l 199 429 l 199 427 l 102 427 l 102 469 l 678 680 l 678 555 l 328 427 z m 271 508 l 271 504 l 279 504 l 275 508 l 271 508 z m 283 496 l 283 492 l 289 490 l 291 490 l 291 496 l 283 496 z m 187 457 l 187 454 q 177 448 177 451 l 177 448 q 195 437 188 448 l 195 437 l 203 437 l 189 457 l 187 457 z m 307 504 l 307 500 q 312 493 312 500 l 312 493 l 313 493 l 313 498 l 316 498 l 326 496 q 334 484 330 484 l 334 484 l 336 484 l 334 492 l 334 493 l 336 496 q 345 500 345 496 l 345 500 l 357 500 l 357 502 l 347 504 l 349 514 l 349 516 l 345 520 l 342 520 l 332 516 l 332 510 l 330 500 l 326 500 l 320 506 l 307 504 z m 256 449 l 247 437 l 247 435 l 250 435 q 262 449 254 449 l 262 449 l 262 455 l 254 455 l 256 449 z m 271 441 l 269 433 q 275 441 271 433 l 275 441 l 271 441 z m 369 493 l 361 486 l 367 484 l 367 486 l 369 487 l 369 493 z m 279 465 l 279 459 l 281 457 q 287 452 287 457 l 287 452 l 292 452 q 281 465 284 465 l 281 465 l 279 465 z m 382 477 l 382 477 q 397 487 388 487 l 397 487 l 397 492 q 389 500 389 492 l 389 500 l 388 500 q 382 477 383 500 z m 298 453 l 296 447 l 298 447 l 299 445 l 299 453 l 298 453 z m 228 471 l 228 471 l 237 471 q 247 488 237 487 l 247 488 l 247 490 l 245 490 q 228 471 236 490 z m 152 456 l 152 450 l 162 452 l 162 458 l 152 456 z m 435 538 l 429 528 l 433 528 q 437 534 433 534 l 437 534 l 437 538 l 435 538 z m 378 528 l 378 528 l 389 530 l 389 540 l 387 540 q 380 532 387 532 l 380 532 l 377 532 l 370 536 l 368 536 q 378 528 369 532 z m 437 555 l 437 549 l 441 552 l 441 555 l 437 555 z m 458 543 l 458 532 l 461 532 l 461 538 l 458 543 z m 469 561 l 465 552 l 473 551 l 475 557 l 469 561 z m 410 517 l 410 511 l 413 511 l 413 517 l 410 517 z m 262 370 l 267 375 l 260 378 l 260 377 l 262 370 z m 223 385 l 223 387 l 220 387 l 217 385 l 217 381 l 220 381 l 223 385 z m 102 403 l 134 403 l 129 391 l 127 389 l 127 387 l 137 389 l 141 389 l 147 385 l 147 401 l 146 403 l 323 403 l 677 273 l 677 149 l 102 359 l 102 403 z m 295 357 l 295 365 l 290 361 l 290 357 l 295 357 z m 353 294 l 353 297 l 349 297 l 345 293 l 347 291 l 349 291 l 353 294 z m 584 248 l 584 248 l 580 243 q 592 224 586 226 l 592 224 l 594 225 q 584 248 584 235 z m 530 300 l 530 304 l 526 304 l 521 300 l 530 300 z m 517 288 l 517 292 l 509 292 l 509 286 l 511 286 l 517 288 z m 524 258 l 524 262 l 521 262 l 507 241 l 515 241 q 534 252 522 252 l 534 252 q 524 258 534 255 l 524 258 z m 661 256 l 661 256 l 659 256 q 650 243 659 250 l 650 243 l 650 242 l 656 236 l 667 242 l 667 243 q 661 256 661 251 z m 493 296 l 493 300 l 480 302 l 475 296 l 470 296 l 469 307 l 469 313 l 458 317 l 456 317 l 452 313 l 452 311 l 454 300 l 444 298 l 444 296 l 456 296 q 464 292 456 292 l 464 292 l 467 290 l 467 288 l 464 280 l 467 280 q 475 292 470 280 l 475 292 l 484 294 l 487 294 l 487 290 l 488 290 q 493 296 488 296 l 493 296 z m 464 241 l 454 254 l 456 259 l 448 259 l 448 254 q 460 239 456 254 l 460 239 l 464 239 l 464 241 z m 441 237 l 439 245 l 435 245 q 441 237 439 237 l 441 237 z m 439 282 l 431 290 l 431 283 l 433 282 l 433 280 l 439 282 z m 431 264 l 431 270 l 429 270 q 418 256 426 270 l 418 256 l 423 256 q 429 262 423 262 l 429 262 l 431 264 z m 412 296 l 412 296 l 411 296 q 403 288 411 288 l 403 288 l 403 283 q 418 274 412 283 l 418 274 q 412 296 417 296 z m 415 251 l 412 258 l 411 258 l 411 249 l 412 251 l 415 251 z m 650 200 l 650 200 q 642 205 642 200 l 642 205 l 644 211 l 642 213 l 635 213 q 629 206 635 206 l 629 206 l 629 205 q 640 194 640 205 l 640 194 l 640 188 q 650 200 647 192 z m 555 287 l 555 287 l 553 287 l 553 285 q 563 269 563 283 l 563 269 l 572 269 q 555 287 564 287 z m 607 221 l 603 225 l 603 221 l 607 217 l 607 221 z m 558 254 l 558 260 l 548 262 l 548 256 l 558 254 z m 578 211 l 578 213 l 574 213 q 570 218 574 218 l 570 218 l 570 213 l 576 211 l 578 211 z m 570 229 l 566 233 l 566 227 l 570 223 l 570 229 z m 372 324 l 366 335 l 363 335 l 363 330 q 368 324 368 330 l 368 324 l 372 324 z m 432 332 l 432 332 l 430 332 l 423 328 l 420 328 q 414 336 414 328 l 414 336 l 412 336 l 412 326 l 422 324 q 432 332 431 328 z m 363 345 l 363 351 l 359 351 l 359 349 l 363 345 z m 342 329 l 342 339 l 339 335 l 339 329 l 342 329 z m 335 349 l 331 357 l 325 353 l 327 347 l 335 349 z m 391 308 l 391 314 l 387 314 l 387 308 l 391 308 z m 789 1153 l 0 1153 l 0 -280 l 789 -280 l 789 1153 z "},"=":{"ha":568,"x_min":0,"x_max":576,"o":"m 102 634 l 108 640 l 174 640 l 179 634 l 174 629 l 174 620 l 176 620 q 184 640 184 620 l 184 640 l 231 640 l 234 637 l 237 640 l 273 640 q 281 626 275 626 l 281 626 l 284 629 l 287 629 l 284 631 l 284 640 l 353 640 l 353 631 l 355 634 l 358 631 l 363 631 l 363 634 l 361 637 l 361 640 l 460 640 l 467 634 l 467 501 l 460 496 l 389 496 l 389 504 q 383 496 383 504 l 383 496 l 226 496 l 218 501 l 210 496 l 108 496 l 102 501 l 102 523 l 104 526 l 102 529 l 102 614 l 108 614 l 108 623 l 102 623 l 102 634 z m 132 609 l 127 604 l 135 598 l 138 606 l 135 609 l 132 609 z m 358 601 l 355 601 q 339 589 355 589 l 339 589 l 336 593 l 334 581 l 350 581 l 358 598 l 358 601 z m 229 587 l 220 593 l 218 581 l 223 581 l 229 587 z m 165 581 l 160 581 l 160 570 l 165 576 l 165 581 z m 331 576 l 323 568 l 331 568 l 331 576 z m 124 562 l 124 562 l 121 559 l 121 556 l 124 553 l 127 553 l 130 556 l 138 545 l 138 529 l 141 529 l 149 532 l 149 534 q 124 562 141 553 z m 226 532 l 215 532 l 215 526 l 220 526 l 226 532 z m 144 526 l 132 526 l 132 520 l 138 520 l 144 526 z m 287 526 l 281 526 l 276 509 l 279 509 l 287 517 l 287 526 z m 155 515 l 152 515 l 152 504 l 155 504 l 157 512 l 155 515 z m 326 509 l 320 509 l 320 504 l 326 498 l 326 509 z m 102 434 l 108 439 l 174 439 l 179 434 l 174 429 l 174 420 l 176 420 q 184 439 184 420 l 184 439 l 231 439 l 234 437 l 237 439 l 273 439 q 281 426 275 426 l 281 426 l 284 429 l 287 429 l 284 431 l 284 439 l 353 439 l 353 431 l 355 434 l 358 431 l 363 431 l 363 434 l 361 437 l 361 439 l 460 439 l 467 434 l 467 302 l 460 296 l 389 296 l 389 304 q 383 296 383 304 l 383 296 l 226 296 l 218 302 l 210 296 l 108 296 l 102 302 l 102 323 l 104 327 l 102 330 l 102 414 l 108 414 l 108 422 l 102 422 l 102 434 z m 132 409 l 127 404 l 135 398 l 138 406 l 135 409 l 132 409 z m 358 401 l 355 401 q 339 390 355 390 l 339 390 l 336 393 l 334 382 l 350 382 l 358 398 l 358 401 z m 229 387 l 220 393 l 218 382 l 223 382 l 229 387 z m 165 382 l 160 382 l 160 371 l 165 376 l 165 382 z m 331 376 l 323 368 l 331 368 l 331 376 z m 124 363 l 124 363 l 121 360 l 121 357 l 124 354 l 127 354 l 130 357 l 138 346 l 138 330 l 141 330 l 149 332 l 149 335 q 124 363 141 353 z m 226 332 l 215 332 l 215 327 l 220 327 l 226 332 z m 144 327 l 132 327 l 132 321 l 138 321 l 144 327 z m 287 327 l 281 327 l 276 310 l 279 310 l 287 318 l 287 327 z m 155 315 l 152 315 l 152 304 l 155 304 l 157 313 l 155 315 z m 326 310 l 320 310 l 320 304 l 326 299 l 326 310 z m 576 1153 l 0 1153 l 0 -280 l 576 -280 l 576 1153 z "},">":{"ha":780,"x_min":0,"x_max":786,"o":"m 242 574 l 247 578 l 240 582 l 240 580 l 242 574 z m 203 588 l 203 590 l 199 590 l 197 588 l 197 585 l 199 585 l 203 588 z m 127 604 l 121 618 l 119 618 l 109 594 l 107 593 l 107 590 l 117 593 l 121 593 l 127 588 l 127 604 z m 275 560 l 275 568 l 270 564 l 270 560 l 275 560 z m 334 498 l 334 500 l 329 500 l 326 496 l 328 494 l 329 494 l 334 498 z m 580 427 l 452 427 l 102 555 l 102 680 l 678 469 l 678 427 l 581 427 l 581 429 l 580 427 z m 510 504 l 510 508 l 505 508 l 501 504 l 510 504 z m 497 492 l 497 496 l 489 496 l 489 490 l 491 490 l 497 492 z m 593 454 l 593 457 l 591 457 l 577 437 l 585 437 q 603 448 592 448 l 603 448 q 593 454 603 451 l 593 454 z m 473 500 l 473 504 l 460 506 l 454 500 l 450 500 l 448 510 l 448 516 l 437 520 l 436 520 l 431 516 l 431 514 l 434 504 l 423 502 l 423 500 l 436 500 q 444 496 436 496 l 444 496 l 446 493 l 446 492 l 444 484 l 446 484 q 454 496 450 484 l 454 496 l 464 498 l 467 498 l 467 493 l 469 493 q 473 500 469 500 l 473 500 z m 534 437 l 524 449 l 526 455 l 518 455 l 518 449 q 530 435 526 449 l 530 435 l 534 435 l 534 437 z m 511 433 l 509 441 l 505 441 q 511 433 509 433 l 511 433 z m 419 486 l 411 493 l 411 487 l 413 486 l 413 484 l 419 486 z m 501 459 l 501 465 l 499 465 q 488 452 496 465 l 488 452 l 494 452 q 499 457 494 457 l 499 457 l 501 459 z m 399 477 q 393 500 397 500 l 393 500 l 391 500 q 382 492 391 492 l 382 492 l 382 487 q 399 477 392 487 l 399 477 z m 485 447 l 483 453 l 481 453 l 481 445 l 483 447 l 485 447 z m 552 471 q 535 490 545 490 l 535 490 l 533 490 l 533 488 q 543 471 543 487 l 543 471 l 552 471 z m 628 450 l 628 456 l 618 458 l 618 452 l 628 450 z m 352 528 l 345 538 l 343 538 l 343 534 q 347 528 347 534 l 347 528 l 352 528 z m 401 528 q 412 536 411 532 l 412 536 l 410 536 l 404 532 l 399 532 q 393 540 393 532 l 393 540 l 391 540 l 391 530 l 401 528 z m 343 549 l 343 555 l 339 555 l 339 552 l 343 549 z m 323 532 l 323 543 l 319 538 l 319 532 l 323 532 z m 315 552 l 311 561 l 304 557 l 307 551 l 315 552 z m 371 511 l 371 517 l 367 517 l 367 511 l 371 511 z m 513 375 l 518 370 l 520 377 l 520 378 l 513 375 z m 557 387 l 557 385 l 561 381 l 563 381 l 563 385 l 561 387 l 557 387 z m 646 403 l 678 403 l 678 359 l 103 149 l 103 273 l 457 403 l 633 403 l 633 401 l 633 385 l 639 389 l 643 389 l 653 387 l 653 389 l 651 391 l 646 403 z m 486 365 l 486 357 l 490 357 l 490 361 l 486 365 z m 427 297 l 427 294 l 431 291 l 433 291 l 435 293 l 431 297 l 427 297 z m 196 248 q 186 225 196 235 l 186 225 l 188 224 q 201 243 195 226 l 201 243 l 196 248 z m 250 304 l 250 300 l 259 300 l 255 304 l 250 304 z m 263 292 l 263 288 l 269 286 l 271 286 l 271 292 l 263 292 z m 257 262 l 257 258 q 247 252 247 255 l 247 252 q 265 241 258 252 l 265 241 l 273 241 l 259 262 l 257 262 z m 119 256 q 113 243 119 251 l 113 243 l 113 242 l 124 236 l 130 242 l 130 243 q 122 256 122 250 l 122 256 l 119 256 z m 288 300 l 288 296 q 292 290 292 296 l 292 290 l 293 290 l 293 294 l 296 294 l 306 292 q 314 280 310 280 l 314 280 l 317 280 l 314 288 l 314 290 l 317 292 q 324 296 324 292 l 324 296 l 336 296 l 336 298 l 326 300 l 328 311 l 328 313 l 324 317 l 323 317 l 312 313 l 312 307 l 310 296 l 306 296 l 300 302 l 288 300 z m 326 254 l 317 241 l 317 239 l 320 239 q 332 254 324 254 l 332 254 l 332 259 l 324 259 l 326 254 z m 341 245 l 339 237 q 345 245 342 237 l 345 245 l 341 245 z m 349 290 l 341 282 l 347 280 l 347 282 l 349 283 l 349 290 z m 349 270 l 349 264 l 351 262 q 357 256 357 262 l 357 256 l 361 256 q 351 270 354 270 l 351 270 l 349 270 z m 368 296 q 361 274 363 296 l 361 274 q 377 283 368 283 l 377 283 l 377 288 q 369 296 369 288 l 369 296 l 368 296 z m 368 258 l 366 251 l 368 251 l 369 249 l 369 258 l 368 258 z m 130 200 q 140 188 133 192 l 140 188 l 140 194 q 151 205 140 205 l 151 205 l 151 206 q 144 213 144 206 l 144 213 l 138 213 l 136 211 l 138 205 q 130 200 138 200 l 130 200 z m 225 287 q 208 269 216 287 l 208 269 l 217 269 q 227 285 217 283 l 227 285 l 227 287 l 225 287 z m 177 225 l 174 221 l 174 217 l 177 221 l 177 225 z m 222 260 l 222 254 l 232 256 l 232 262 l 222 260 z m 201 213 l 201 211 l 203 211 l 210 213 l 210 218 q 206 213 206 218 l 206 213 l 201 213 z m 214 233 l 210 229 l 210 223 l 214 227 l 214 233 z m 415 335 l 408 324 l 412 324 q 417 330 412 330 l 417 330 l 417 335 l 415 335 z m 348 332 q 358 324 349 328 l 358 324 l 369 326 l 369 336 l 366 336 q 361 328 366 328 l 361 328 l 357 328 l 350 332 l 348 332 z m 417 351 l 417 345 l 420 349 l 420 351 l 417 351 z m 437 339 l 437 329 l 441 329 l 441 335 l 437 339 z m 450 357 l 445 349 l 453 347 l 456 353 l 450 357 z m 389 314 l 389 308 l 393 308 l 393 314 l 389 314 z m 786 1153 l 0 1153 l 0 -280 l 786 -280 l 786 1153 z "},"?":{"ha":617,"x_min":0,"x_max":625,"o":"m 320 465 l 315 470 l 309 461 l 312 461 l 320 465 z m 348 445 l 345 445 l 345 439 l 348 437 l 353 437 l 353 439 l 348 445 z m 365 409 l 345 400 l 345 397 l 378 384 l 381 381 l 384 381 l 381 395 l 381 400 l 387 409 l 365 409 z m 398 381 l 387 381 l 393 376 l 398 376 l 398 381 z m 277 376 l 273 376 l 273 370 l 279 365 l 282 368 l 282 370 l 277 376 z m 326 733 l 326 733 l 320 739 l 317 739 q 326 733 317 733 z m 430 173 l 389 173 q 402 175 394 175 l 402 175 l 402 186 q 380 173 385 180 l 380 173 l 253 173 l 253 219 l 258 224 l 261 224 l 278 219 l 278 216 l 292 219 l 314 219 q 303 224 314 224 l 303 224 l 303 230 l 283 230 l 278 235 l 281 247 q 270 277 270 247 l 270 277 l 267 274 l 258 274 l 253 280 l 253 302 l 261 302 l 258 305 l 258 308 l 261 316 l 253 330 l 253 340 l 252 340 l 251 474 q 292 487 252 487 l 292 487 q 342 564 342 509 l 342 564 l 345 584 l 339 584 l 339 606 l 334 606 l 336 604 l 336 600 l 334 597 l 331 597 q 251 633 306 633 l 251 633 l 107 633 l 102 639 l 102 774 l 107 780 l 267 780 q 505 647 455 780 l 505 647 q 515 587 515 621 l 515 587 l 507 584 l 507 581 q 515 573 515 581 l 515 573 q 502 523 511 523 l 502 523 l 499 540 l 486 540 l 483 537 l 480 537 l 474 543 l 474 548 l 477 551 l 477 553 l 466 564 l 463 562 l 458 562 l 455 573 l 450 573 l 452 570 l 450 567 l 450 562 l 452 559 l 452 556 l 450 553 q 471 523 463 546 l 471 523 l 471 517 l 469 498 l 455 500 l 452 500 l 463 487 l 444 487 l 452 456 l 444 454 l 444 446 l 450 437 l 433 413 q 430 414 431 414 l 430 414 l 430 354 l 416 354 l 402 363 q 391 351 402 351 l 391 351 q 386 335 391 335 l 386 335 l 372 335 l 363 340 l 358 332 l 361 330 l 377 330 l 377 324 q 399 311 391 324 l 399 311 l 405 319 q 397 324 397 319 l 397 324 l 397 340 l 414 340 l 419 335 l 419 321 q 410 316 410 321 l 410 316 q 430 302 422 316 l 430 302 l 430 269 l 410 247 l 425 247 l 425 258 l 430 258 l 430 173 z m 281 205 l 281 205 q 275 194 281 194 l 275 194 l 267 197 l 264 194 l 264 186 q 273 178 273 186 l 273 178 l 275 178 q 289 191 275 191 l 289 191 l 298 191 q 281 205 292 201 z m 380 208 l 372 205 l 372 202 l 383 202 l 380 205 l 380 208 z m 319 205 l 319 205 l 319 202 q 331 191 331 202 l 331 191 l 336 191 q 350 213 336 204 l 350 213 q 319 205 319 210 z m 363 230 l 355 230 l 355 227 q 374 213 355 223 l 374 213 l 374 219 q 366 227 366 219 l 366 227 l 363 230 z m 339 241 l 328 230 l 336 230 l 339 233 l 342 233 l 339 241 z m 399 243 l 389 241 l 389 235 q 399 243 399 240 l 399 243 z m 394 274 l 377 260 l 369 263 l 369 252 l 377 252 q 397 269 377 263 l 397 269 l 397 274 l 394 274 z m 425 299 l 408 296 l 408 291 l 425 291 l 425 299 z m 319 313 l 314 313 l 311 296 l 319 288 l 319 283 l 306 280 l 298 280 l 292 266 l 292 263 l 298 258 l 300 258 l 314 260 l 317 247 l 319 247 l 319 263 q 325 274 325 263 l 325 274 l 328 277 l 331 277 l 342 274 l 342 277 q 325 288 342 283 l 325 288 l 322 302 l 322 305 l 328 305 l 328 308 q 319 313 319 308 l 319 313 z m 267 305 l 267 305 l 267 302 q 283 291 275 302 l 283 291 l 286 291 l 294 299 l 286 313 l 283 313 q 267 305 274 305 z m 296 397 l 291 397 l 291 395 l 319 376 l 319 387 q 304 411 304 396 l 304 411 q 296 397 300 411 l 296 397 z m 331 346 l 325 346 l 325 335 l 334 335 l 334 338 l 331 346 z m 422 393 l 419 393 l 414 379 l 414 376 l 425 379 l 422 393 z m 372 490 l 361 484 l 361 479 l 366 473 l 389 473 l 389 479 l 402 479 l 411 473 l 416 473 q 378 490 416 483 l 378 490 l 372 490 z m 323 495 l 317 495 l 317 490 l 323 484 l 326 484 l 323 495 z m 425 545 l 414 540 l 416 537 l 416 534 l 414 531 l 414 528 l 419 528 l 425 545 z m 394 551 l 380 551 l 383 540 l 386 540 q 394 551 390 540 l 394 551 z m 355 553 l 347 551 l 347 545 l 358 551 l 358 553 l 355 553 z m 483 587 l 477 581 l 477 573 l 483 573 l 483 587 z m 452 589 l 447 589 l 450 576 l 452 576 l 452 589 z m 374 606 l 361 609 l 358 587 l 361 584 l 372 584 l 378 606 l 374 606 z m 455 609 l 450 614 l 450 612 l 455 606 l 455 609 z m 405 614 l 405 614 l 411 606 l 402 581 l 405 581 l 438 589 q 405 614 426 614 z m 353 625 l 350 623 q 358 612 354 612 l 358 612 l 361 614 l 361 623 l 355 623 l 353 625 z m 494 639 l 480 639 l 480 633 l 494 633 l 494 639 z m 416 644 l 414 644 l 414 642 q 430 623 421 642 l 430 623 l 433 620 l 435 620 l 438 623 l 438 625 q 416 644 432 642 l 416 644 z m 275 652 l 267 650 l 273 644 l 278 644 l 275 652 z m 339 655 l 336 655 l 336 652 l 345 628 l 347 628 q 363 642 347 639 l 363 642 l 361 650 l 347 650 l 339 655 z m 378 663 l 378 663 l 378 650 l 386 650 l 386 652 q 378 663 382 663 z m 342 683 l 328 680 l 328 675 l 342 677 l 350 677 l 350 683 l 342 683 z m 363 711 l 355 711 l 361 700 l 363 700 l 363 711 z m 267 719 l 259 727 l 256 724 l 256 722 l 267 711 q 290 716 275 716 l 290 716 q 281 722 290 722 l 281 722 l 267 719 z m 119 736 l 115 736 l 115 733 l 121 727 l 130 730 l 130 733 l 119 736 z m 256 744 l 251 749 l 251 739 l 256 739 l 256 744 z m 273 755 l 262 755 l 262 749 l 273 752 l 273 755 z m 176 766 l 163 777 l 163 763 l 176 766 z m 309 733 l 309 733 l 309 727 l 317 727 q 309 733 317 733 z m 474 520 l 480 526 l 480 517 l 474 517 l 474 520 z m 256 263 l 256 266 q 270 250 270 264 l 270 250 q 258 235 258 243 l 258 235 l 253 235 l 253 260 l 256 263 z m 425 349 l 430 349 l 430 321 l 425 321 l 425 327 l 422 346 l 425 349 z m 280 460 l 280 460 l 284 460 l 284 463 q 278 473 278 463 l 278 473 l 267 476 l 264 473 l 264 468 q 280 460 277 465 z m 281 340 l 281 341 q 273 340 277 341 l 273 340 l 281 340 z m 374 366 l 374 366 q 361 360 368 363 l 361 360 l 363 357 q 391 374 388 365 l 391 374 l 391 375 q 378 368 385 372 l 378 368 q 374 366 376 368 z m 480 498 l 480 498 l 491 490 l 471 468 l 469 468 l 469 476 q 480 498 480 490 z m 486 507 l 486 520 l 488 520 l 502 517 q 491 498 502 503 l 491 498 l 486 498 l 486 500 l 488 503 l 486 507 z m 255 143 l 432 143 l 432 136 q 418 124 427 124 l 418 124 l 424 119 l 432 121 l 432 45 l 427 45 q 421 58 427 58 l 421 58 l 404 66 l 404 64 q 421 56 404 59 l 421 56 l 424 41 l 424 39 l 416 31 l 410 31 l 393 45 l 393 41 l 407 25 l 404 17 l 407 17 q 424 28 424 17 l 424 28 l 432 28 l 432 5 l 427 0 l 410 0 l 401 5 l 396 0 l 377 0 q 372 8 372 0 l 372 8 l 355 8 q 349 0 355 0 l 349 0 l 336 0 l 319 14 l 316 14 l 316 0 l 283 0 l 283 8 l 266 8 l 266 5 l 272 5 l 272 0 l 260 0 l 255 5 l 255 8 l 260 17 l 260 31 l 255 31 l 255 56 l 266 72 q 258 80 266 80 l 258 80 l 255 83 l 255 102 l 260 108 l 272 108 l 280 102 l 288 102 l 286 105 l 272 111 l 266 127 l 260 127 l 260 113 l 255 113 l 255 143 z m 324 141 l 321 141 l 321 136 q 313 130 313 136 l 313 130 l 321 130 l 324 138 l 324 141 z m 300 130 l 294 124 l 302 124 l 308 130 l 300 130 z m 338 80 l 324 72 l 324 69 l 330 69 q 338 75 330 75 l 338 75 l 338 80 z m 355 80 l 355 80 l 355 77 l 361 69 l 361 64 q 349 56 361 56 l 349 56 l 349 53 l 363 53 l 366 66 q 355 80 361 79 z m 311 69 l 302 69 l 302 64 l 305 64 l 311 69 z m 333 41 l 319 41 l 324 36 l 333 36 l 333 41 z m 305 31 l 294 25 l 300 17 l 308 20 l 305 31 z m 388 25 l 380 25 l 380 20 l 388 20 l 388 25 z m 625 1153 l 0 1153 l 0 -280 l 625 -280 l 625 1153 z "},"@":{"ha":1171,"x_min":0,"x_max":1177,"o":"m 399 148 l 395 148 q 401 144 395 144 l 401 144 l 401 132 l 404 136 l 404 153 q 416 160 404 160 l 416 160 l 416 162 l 414 168 l 410 168 q 399 148 404 168 l 399 148 z m 373 -14 l 365 -14 l 365 -20 q 373 -14 373 -17 l 373 -14 z m 408 0 l 404 -4 l 404 -6 l 414 -11 q 420 -6 414 -6 l 420 -6 l 420 -4 l 416 0 l 408 0 z m 436 16 l 430 17 l 426 2 l 430 -11 l 416 -16 l 418 -22 l 422 -22 q 430 -14 422 -18 l 430 -14 l 439 -14 l 439 -18 q 448 -30 445 -18 l 448 -30 l 454 -30 l 450 -16 q 456 -11 456 -16 l 456 -11 l 452 2 l 452 3 l 456 3 l 456 9 l 452 9 l 448 5 l 448 3 l 450 -14 l 432 0 l 432 7 l 436 14 l 436 16 z m 446 33 l 439 33 l 439 31 l 442 25 l 446 25 l 446 33 z m 475 37 l 475 37 q 469 33 475 33 l 469 33 q 477 20 477 26 l 477 20 l 479 20 l 483 24 l 483 25 q 475 37 483 35 z m 391 52 l 391 47 q 382 41 382 47 l 382 41 l 391 41 l 391 45 l 396 47 l 395 53 l 393 52 l 391 52 z m 387 57 l 379 57 q 373 53 379 53 l 373 53 l 377 49 l 379 49 l 387 53 l 387 57 z m 406 87 l 404 89 l 404 81 l 410 81 q 416 84 410 84 l 416 84 l 416 89 l 406 87 z m 439 96 l 434 96 l 434 92 l 448 92 l 448 95 l 442 96 l 442 95 l 439 96 z m 448 110 l 442 117 l 439 114 l 439 113 l 446 109 l 448 109 l 448 110 z m 424 117 l 416 117 l 416 113 l 424 113 l 424 117 z m 461 127 l 459 127 l 459 120 l 461 122 l 464 122 l 461 127 z m 401 127 l 393 127 l 393 126 l 402 122 l 401 127 z m 436 155 l 432 152 l 432 149 l 436 153 l 436 155 z m 464 168 l 458 168 q 467 160 463 160 l 467 160 l 467 148 l 472 148 l 475 155 q 464 168 472 163 l 464 168 z m 483 191 l 479 195 l 477 193 l 477 191 l 483 191 z m 428 219 l 422 219 l 422 217 l 426 213 l 428 215 l 428 219 z m 448 247 l 444 247 q 436 235 444 235 l 436 235 l 437 233 l 437 231 q 432 222 432 231 l 432 222 l 439 222 q 448 239 439 239 l 448 239 l 448 247 z m 456 282 l 446 282 l 446 278 l 456 280 l 456 282 z m 486 345 l 483 345 l 483 341 l 491 339 l 491 341 l 486 345 z m 718 -40 l 718 -40 q 681 79 686 79 l 681 79 l 526 79 l 556 182 l 651 182 l 651 184 q 594 389 612 308 l 594 389 l 591 389 q 513 102 591 366 l 513 102 q 483 11 491 24 l 483 11 l 479 11 l 479 7 l 483 2 l 472 -40 l 469 -40 l 464 -38 l 454 -40 l 444 -40 l 437 -38 l 428 -40 l 402 -40 l 391 -38 l 385 -40 l 385 -38 l 382 -40 l 359 -40 l 359 -14 l 361 -3 l 359 3 l 361 2 l 363 2 l 365 3 l 365 5 l 359 5 l 359 31 l 363 35 l 366 35 l 373 33 l 373 35 l 371 41 l 366 41 l 365 39 l 359 41 l 361 57 l 363 57 l 379 109 l 385 104 l 387 106 l 387 109 l 380 113 l 393 148 l 395 148 l 395 149 l 406 187 l 414 187 l 414 184 l 420 184 l 420 189 l 416 195 l 420 207 l 418 209 l 416 209 q 412 195 416 195 l 412 195 l 410 195 l 454 326 l 456 326 l 456 321 l 459 321 l 456 328 q 464 344 458 344 l 464 344 l 461 345 l 461 347 l 521 517 l 665 517 l 841 19 q 930 90 901 33 l 930 90 q 975 298 975 175 l 975 298 q 849 591 964 479 l 849 591 q 589 692 743 692 l 589 692 q 376 618 477 692 q 230 425 274 543 l 230 425 q 193 229 193 328 l 193 229 q 263 -48 193 60 q 429 -206 334 -156 q 602 -256 524 -256 l 602 -256 q 914 -143 751 -256 l 914 -143 l 914 -184 q 604 -283 771 -283 l 604 -283 q 354 -217 474 -283 q 168 -32 234 -151 q 102 219 102 87 l 102 219 q 169 471 102 350 q 356 656 236 591 q 604 722 477 722 l 604 722 q 935 597 800 722 q 1069 290 1069 472 l 1069 290 q 973 52 1069 143 l 973 52 q 861 -26 911 -9 q 718 -40 811 -42 z m 1177 1153 l 0 1153 l 0 -280 l 1177 -280 l 1177 1153 z "},"A":{"ha":906,"x_min":0,"x_max":916,"o":"m 328 778 l 529 778 l 804 0 l 604 0 q 551 165 558 165 l 551 165 l 336 165 l 378 309 l 510 309 l 510 312 q 430 598 455 486 l 430 598 l 427 598 q 317 199 427 566 l 317 199 q 275 72 286 89 l 275 72 l 270 72 l 270 66 l 275 58 l 259 0 l 256 0 l 248 3 l 234 0 l 220 0 l 212 3 l 198 0 l 163 0 l 146 3 l 138 0 l 138 3 l 135 0 l 102 0 l 102 36 l 104 53 l 102 61 l 104 58 l 107 58 l 110 61 l 110 64 l 102 64 l 102 99 l 107 104 l 113 104 l 121 102 l 121 104 l 119 113 l 113 113 l 110 110 l 102 113 l 104 135 l 107 135 l 130 207 l 138 201 l 140 204 l 140 207 l 132 213 l 149 262 l 152 262 q 160 256 152 256 l 160 256 l 160 240 l 165 245 l 165 270 q 182 279 165 279 l 182 279 l 182 281 l 179 290 l 174 290 q 157 262 164 290 l 157 262 l 152 262 l 152 264 l 168 317 l 179 317 l 179 312 l 187 312 l 187 320 l 182 328 l 187 345 l 184 348 l 182 348 q 176 328 182 328 l 176 328 l 174 328 l 234 511 l 237 511 l 237 505 l 242 505 l 237 513 q 248 536 240 536 l 248 536 l 245 538 l 245 541 l 328 778 z m 278 538 l 275 538 l 275 532 l 287 530 l 287 532 l 278 538 z m 237 450 l 223 450 l 223 444 l 237 447 l 237 450 z m 226 400 l 220 400 q 209 384 220 384 l 209 384 l 212 381 l 212 378 q 203 367 203 378 l 203 367 l 214 367 q 226 389 214 389 l 226 389 l 226 400 z m 198 361 l 190 361 l 190 359 l 195 353 l 198 356 l 198 361 z m 275 323 l 270 328 l 267 326 l 267 323 l 275 323 z m 248 290 l 239 290 q 254 279 247 279 l 254 279 l 254 262 l 259 262 l 264 273 q 248 290 259 284 l 248 290 z m 209 273 l 203 267 l 203 264 l 209 270 l 209 273 z m 160 235 l 149 235 l 149 232 l 163 227 l 160 235 z m 245 235 l 242 235 l 242 224 l 245 227 l 248 227 l 245 235 z m 193 218 l 182 218 l 182 213 l 193 213 l 193 218 z m 226 210 l 218 218 l 214 216 l 214 213 l 223 207 l 226 207 l 226 210 z m 214 191 l 206 191 l 206 185 l 226 185 l 226 188 l 218 191 l 218 188 l 214 191 z m 168 176 l 165 180 l 165 168 l 174 168 q 182 174 174 174 l 182 174 l 182 180 l 168 176 z m 140 135 l 130 135 q 121 130 130 130 l 121 130 l 127 124 l 130 124 l 140 130 l 140 135 z m 146 127 l 146 121 q 135 113 135 121 l 135 113 l 146 113 l 146 119 l 155 121 l 152 130 l 149 127 l 146 127 z m 264 107 l 264 107 q 256 102 264 102 l 256 102 q 267 83 267 92 l 267 83 l 270 83 l 275 88 l 275 91 q 264 107 275 104 z m 223 102 l 214 102 l 214 99 l 218 91 l 223 91 l 223 102 z m 209 77 l 201 80 l 195 58 l 201 41 l 182 33 l 184 25 l 190 25 q 201 36 190 31 l 201 36 l 214 36 l 214 31 q 226 14 222 31 l 226 14 l 234 14 l 229 33 q 237 41 237 33 l 237 41 l 231 58 l 231 61 l 237 61 l 237 69 l 231 69 l 226 64 l 226 61 l 229 36 l 203 56 l 203 66 l 209 75 l 209 77 z m 171 56 l 165 50 l 165 47 l 179 41 q 187 47 179 47 l 187 47 l 187 50 l 182 56 l 171 56 z m 121 36 l 110 36 l 110 28 q 121 36 121 31 l 121 36 z m 916 1153 l 0 1153 l 0 -280 l 916 -280 l 916 1153 z "},"B":{"ha":844,"x_min":0,"x_max":854,"o":"m 307 772 l 312 778 l 472 778 q 709 646 659 778 l 709 646 q 720 585 720 619 l 720 585 l 712 582 l 712 579 q 720 571 720 579 l 720 571 q 706 522 716 522 l 706 522 l 703 538 l 690 538 l 687 536 l 684 536 l 678 541 l 678 547 l 682 549 l 682 552 l 670 563 l 667 560 l 662 560 l 659 571 l 654 571 l 656 568 l 654 566 l 654 560 l 656 557 l 656 555 l 654 552 q 675 522 667 544 l 675 522 l 675 516 l 673 496 l 659 499 l 656 499 l 667 486 l 648 486 l 651 458 l 643 455 l 643 447 l 648 439 l 624 425 q 610 439 610 425 l 610 439 l 588 439 l 588 430 q 632 408 602 430 l 632 408 q 646 403 632 403 l 646 403 q 665 378 665 393 l 665 378 q 728 300 698 378 l 728 300 l 726 298 q 739 256 736 298 l 739 256 q 731 251 731 256 l 731 251 q 742 232 742 246 l 742 232 l 739 232 l 742 229 q 723 163 738 163 l 723 163 l 728 152 l 723 140 l 703 143 l 701 143 l 692 138 q 678 146 678 142 l 678 146 l 678 149 l 682 152 l 682 155 l 678 155 l 665 149 l 665 143 q 684 132 665 136 l 684 132 l 684 124 l 675 116 l 662 116 l 656 110 l 656 104 q 690 83 666 104 l 690 83 q 618 33 646 33 l 618 33 q 576 14 618 28 l 576 14 q 560 31 570 14 l 560 31 l 552 28 l 552 31 l 549 39 l 552 47 l 538 47 l 530 53 l 530 50 q 549 5 548 28 l 549 5 l 502 3 l 499 3 q 494 20 494 3 l 494 20 q 486 33 486 20 l 486 33 l 483 33 l 483 17 q 467 11 467 15 l 467 11 l 469 3 l 467 0 l 312 0 l 307 5 l 307 140 l 312 146 l 422 146 l 433 138 l 436 138 l 433 140 l 433 143 l 450 149 l 458 149 q 464 140 458 140 l 464 140 l 469 140 q 488 152 469 152 l 488 152 l 530 168 l 532 149 l 532 140 l 538 140 q 557 124 538 134 l 557 124 l 574 124 l 574 135 q 566 140 566 135 l 566 140 l 566 149 l 568 163 l 574 163 q 579 152 579 163 l 579 152 l 583 152 l 585 165 l 555 182 l 549 188 l 549 196 q 560 224 549 206 l 560 224 l 560 256 l 563 259 l 546 300 l 557 295 l 560 298 l 560 306 l 541 306 l 530 317 l 532 320 l 532 323 l 530 323 l 522 320 q 428 339 509 339 l 428 339 l 312 339 l 307 345 l 307 475 l 312 480 l 450 480 l 450 472 l 456 472 q 496 486 456 486 l 496 486 q 546 563 546 507 l 546 563 l 549 582 l 543 582 l 543 604 l 538 604 l 541 602 l 541 598 l 538 595 l 535 595 q 456 631 510 631 l 456 631 l 312 631 l 307 637 l 307 772 z m 380 764 l 367 775 l 367 761 l 380 764 z m 477 753 l 467 753 l 467 747 l 477 750 l 477 753 z m 461 742 l 456 747 l 456 736 l 461 736 l 461 742 z m 524 736 l 522 736 q 513 731 522 731 l 513 731 l 513 726 l 522 726 q 530 731 522 731 l 530 731 l 524 736 z m 323 734 l 320 734 l 320 731 l 326 726 l 334 728 l 334 731 l 323 734 z m 472 718 l 464 726 l 461 723 l 461 720 l 472 709 q 494 715 480 715 l 494 715 q 486 720 494 720 l 486 720 l 472 718 z m 568 709 l 560 709 l 566 699 l 568 699 l 568 709 z m 546 682 l 532 679 l 532 673 l 546 676 l 555 676 l 555 682 l 546 682 z m 583 662 l 583 662 l 583 648 l 591 648 l 591 651 q 583 662 586 662 z m 543 654 l 541 654 l 541 651 l 549 626 l 552 626 q 568 640 552 637 l 568 640 l 566 648 l 552 648 l 543 654 z m 480 651 l 472 648 l 477 643 l 483 643 l 480 651 z m 621 643 l 618 643 l 618 640 q 635 621 626 640 l 635 621 l 637 618 l 640 618 l 643 621 l 643 623 q 621 643 637 640 l 621 643 z m 698 637 l 684 637 l 684 631 l 698 631 l 698 637 z m 557 623 l 555 621 q 563 610 559 610 l 563 610 l 566 612 l 566 621 l 560 621 l 557 623 z m 610 612 l 610 612 l 616 604 l 607 579 l 610 579 l 643 587 q 610 612 630 612 z m 659 607 l 654 612 l 654 610 l 659 604 l 659 607 z m 579 604 l 566 607 l 563 585 l 566 582 l 576 582 l 583 604 l 579 604 z m 656 587 l 651 587 l 654 574 l 656 574 l 656 587 z m 687 585 l 682 579 l 682 571 l 687 571 l 687 585 z m 560 552 l 552 549 l 552 544 l 563 549 l 563 552 l 560 552 z m 599 549 l 585 549 l 588 538 l 591 538 q 599 549 594 538 l 599 549 z m 629 544 l 618 538 l 621 536 l 621 532 l 618 530 l 618 527 l 624 527 l 629 544 z m 678 519 l 684 524 l 684 516 l 678 516 l 678 519 z m 690 505 l 690 519 l 692 519 l 706 516 q 695 496 706 501 l 695 496 l 690 496 l 690 499 l 692 502 l 690 505 z m 527 494 l 522 494 l 522 488 l 527 483 l 530 483 l 527 494 z m 684 496 l 684 496 l 695 488 l 675 466 l 673 466 l 673 475 q 684 496 684 488 z m 576 488 l 566 483 l 566 477 l 571 472 l 593 472 l 593 477 l 607 477 l 616 472 l 621 472 q 583 488 621 481 l 583 488 l 576 488 z m 483 472 l 472 475 l 469 472 l 469 466 q 486 455 486 463 l 486 455 l 488 455 l 488 460 q 483 472 483 460 l 483 472 z m 560 450 l 549 452 l 549 444 l 555 444 l 560 450 z m 491 430 l 480 433 l 475 422 l 486 422 l 491 427 l 491 430 z m 576 416 l 571 411 l 574 411 l 579 416 l 576 416 z m 549 408 l 543 403 q 555 389 549 390 l 555 389 l 557 389 l 549 408 z m 488 389 l 486 389 l 486 384 q 499 376 492 384 l 499 376 l 502 376 q 488 389 500 382 l 488 389 z m 618 364 l 612 345 q 627 328 627 345 l 627 328 l 635 328 q 640 342 635 342 l 640 342 l 643 339 l 665 345 l 667 345 q 673 336 673 345 l 673 336 q 690 331 677 331 l 690 331 l 690 326 q 670 292 670 305 l 670 292 l 678 284 l 678 281 q 665 273 672 281 l 665 273 l 654 273 l 654 251 l 635 245 l 629 251 l 624 235 l 627 224 l 618 216 l 627 201 l 627 196 q 604 188 627 191 l 604 188 l 602 191 l 599 188 l 599 185 q 607 174 606 185 l 607 174 l 602 168 q 618 155 618 168 l 618 155 q 643 140 618 148 l 643 140 q 648 155 644 155 l 648 155 l 646 157 l 646 160 l 648 163 l 648 165 l 662 163 l 665 163 l 643 176 l 640 174 l 637 174 l 635 176 l 635 180 l 640 193 l 678 196 l 678 199 l 673 207 l 659 204 l 646 210 l 646 221 l 648 224 l 646 227 l 646 237 l 654 245 l 673 245 l 670 232 l 673 229 l 678 229 l 682 243 l 678 262 l 682 259 l 684 259 l 690 264 l 690 267 l 687 270 l 687 273 q 703 284 703 280 l 703 284 l 695 298 q 706 315 702 315 l 706 315 l 709 312 l 709 315 l 698 331 l 703 339 l 703 345 l 701 342 l 698 342 l 695 345 l 692 342 l 690 342 q 684 351 684 342 l 684 351 l 643 351 q 635 376 637 351 l 635 376 l 651 381 l 654 378 l 662 378 l 662 381 q 640 389 652 381 l 640 389 q 618 364 618 374 l 618 364 z m 422 367 l 416 361 l 433 361 l 428 367 l 422 367 z m 557 339 l 543 339 l 543 334 l 552 334 l 557 339 z m 566 334 l 557 334 l 557 328 l 566 328 l 566 334 z m 678 326 l 670 328 l 670 320 l 678 323 l 678 326 z m 632 290 l 616 290 l 610 279 l 612 276 l 610 273 l 627 273 l 621 281 l 632 284 l 632 290 z m 723 267 l 712 267 l 718 262 l 723 267 z m 726 216 l 720 216 l 720 213 l 726 207 l 726 216 z m 703 201 l 684 201 l 684 199 l 692 180 l 690 165 l 695 165 q 706 171 695 171 l 706 171 l 706 176 q 698 191 698 176 l 698 191 l 703 199 l 703 201 z m 726 191 l 720 185 l 723 182 l 731 182 l 731 191 l 726 191 z m 530 176 l 541 185 l 543 185 q 563 160 543 176 l 563 160 q 543 149 560 149 l 543 149 q 530 176 530 165 l 530 176 z m 436 124 l 436 124 l 450 119 l 453 121 l 456 121 l 450 135 q 436 124 437 130 z m 654 135 l 651 135 l 646 124 l 646 121 q 659 130 659 125 l 659 130 l 654 135 z m 416 130 l 408 130 l 408 127 q 431 119 410 119 l 431 119 l 433 119 q 416 130 431 130 l 416 130 z m 690 121 l 695 127 l 698 127 l 712 121 l 712 116 l 701 104 l 695 104 l 690 110 l 690 121 z m 386 119 l 380 119 q 364 99 380 113 l 364 99 q 386 80 370 99 l 386 80 q 395 91 388 91 l 395 91 l 392 94 l 395 107 l 395 110 q 386 119 386 110 l 386 119 z m 486 110 l 475 110 l 472 99 q 486 88 486 99 l 486 88 l 488 88 l 488 96 l 486 110 z m 627 110 l 621 110 l 621 107 l 627 102 l 629 102 l 629 107 l 627 110 z m 447 88 l 436 85 l 436 83 l 439 80 l 439 77 l 436 75 l 439 75 l 441 77 l 456 75 l 461 75 l 461 85 l 447 88 z m 386 64 l 383 64 l 383 56 l 389 61 l 386 64 z m 505 47 l 494 47 l 494 36 l 505 36 l 505 47 z m 422 44 l 422 44 l 422 33 l 425 33 l 428 36 l 431 36 l 433 33 l 433 36 q 422 44 433 40 z m 436 28 l 425 28 l 425 25 l 428 17 l 433 17 l 436 28 z m 419 20 l 406 20 l 403 8 l 425 8 l 425 14 l 419 20 z m 102 774 l 107 780 l 273 780 l 279 774 l 279 711 l 273 705 l 268 705 q 254 722 268 712 l 254 722 l 254 727 l 251 727 l 248 724 l 245 724 l 262 699 l 248 688 l 251 688 l 276 702 l 279 699 l 279 354 l 265 354 l 251 362 q 240 351 251 351 l 240 351 q 235 335 240 335 l 235 335 l 220 335 l 212 340 l 207 332 l 210 329 l 226 329 l 226 323 q 248 310 239 323 l 248 310 l 254 318 q 245 323 245 318 l 245 323 l 245 340 l 262 340 l 268 335 l 268 321 q 259 315 259 321 l 259 315 q 279 301 271 315 l 279 301 l 279 268 l 259 246 l 273 246 l 273 257 l 279 257 l 279 136 q 265 124 273 124 l 265 124 l 271 119 l 279 121 l 279 45 l 273 45 q 268 58 273 58 l 268 58 l 251 66 l 251 64 q 268 56 251 59 l 268 56 l 271 41 l 271 39 l 262 31 l 256 31 l 240 45 l 240 41 l 254 25 l 251 17 l 254 17 q 271 28 271 17 l 271 28 l 279 28 l 279 5 l 273 0 l 256 0 l 248 5 l 243 0 l 223 0 q 218 8 218 0 l 218 8 l 201 8 q 195 0 201 0 l 195 0 l 182 0 l 165 14 l 163 14 l 163 0 l 130 0 l 130 8 l 113 8 l 113 5 l 119 5 l 119 0 l 107 0 l 102 5 l 102 8 l 107 17 l 107 31 l 102 31 l 102 56 l 113 72 q 104 80 113 80 l 104 80 l 102 83 l 102 102 l 107 108 l 119 108 l 127 102 l 135 102 l 132 105 l 119 111 l 113 127 l 107 127 l 107 113 l 102 113 l 102 218 l 107 224 l 110 224 l 127 218 l 127 216 l 140 218 l 163 218 q 152 224 163 224 l 152 224 l 152 229 l 132 229 l 127 235 l 130 246 q 119 277 119 246 l 119 277 l 115 273 l 107 273 l 102 279 l 102 301 l 110 301 l 107 304 l 107 307 l 110 315 l 102 329 l 102 774 z m 163 766 l 157 772 l 152 763 l 155 763 l 163 766 z m 190 747 l 187 747 l 187 741 l 190 739 l 195 739 l 195 741 l 190 747 z m 207 711 l 187 702 l 187 699 l 220 686 l 223 683 l 226 683 l 223 696 l 223 702 l 229 711 l 207 711 z m 240 683 l 229 683 l 235 677 l 240 677 l 240 683 z m 119 677 l 115 677 l 115 671 l 121 666 l 124 669 l 124 671 l 119 677 z m 259 459 l 256 459 l 256 434 l 262 434 l 265 442 l 259 459 z m 271 393 l 268 393 l 262 378 l 262 376 l 273 378 l 271 393 z m 130 376 l 124 376 l 124 362 l 130 362 l 130 376 z m 207 362 l 207 362 l 212 357 q 240 373 237 365 l 240 373 l 237 376 q 207 362 224 362 z m 163 362 l 157 362 l 157 357 l 163 351 l 163 362 z m 107 351 l 107 351 l 121 340 l 130 340 q 107 351 130 347 z m 179 346 l 174 346 l 174 335 l 182 335 l 182 338 l 179 346 z m 273 349 l 279 349 l 279 321 l 273 321 l 273 326 l 271 346 l 273 349 z m 190 307 l 184 307 l 184 304 l 212 285 l 212 296 q 198 321 198 305 l 198 321 q 190 307 194 321 l 190 307 z m 115 304 l 115 304 l 115 301 q 132 290 124 301 l 132 290 l 135 290 l 143 298 l 135 313 l 132 313 q 115 304 123 304 z m 168 313 l 163 313 l 160 296 l 168 288 l 168 282 l 155 279 l 146 279 l 140 265 l 140 262 l 146 257 l 149 257 l 163 260 l 165 246 l 168 246 l 168 262 q 174 273 174 262 l 174 273 l 176 277 l 179 277 l 190 273 l 190 277 q 174 288 190 282 l 174 288 l 171 301 l 171 304 l 176 304 l 176 307 q 168 313 168 307 l 168 313 z m 273 298 l 256 296 l 256 290 l 273 290 l 273 298 z m 243 273 l 226 260 l 218 262 l 218 252 l 226 252 q 245 268 226 262 l 245 268 l 245 273 l 243 273 z m 104 262 l 104 265 q 119 249 119 264 l 119 249 q 107 235 107 243 l 107 235 l 102 235 l 102 260 l 104 262 z m 248 243 l 237 240 l 237 235 q 248 243 248 239 l 248 243 z m 187 240 l 176 229 l 184 229 l 187 232 l 190 232 l 187 240 z m 212 229 l 204 229 l 204 227 q 223 213 204 222 l 223 213 l 223 218 q 215 227 215 218 l 215 227 l 212 229 z m 168 205 l 168 205 l 168 202 q 179 191 179 202 l 179 191 l 184 191 q 198 213 184 203 l 198 213 q 168 205 168 210 z m 229 208 l 220 205 l 220 202 l 232 202 l 229 205 l 229 208 z m 130 205 l 130 205 q 124 194 130 194 l 124 194 l 115 197 l 113 194 l 113 185 q 121 177 121 185 l 121 177 l 124 177 q 138 191 124 191 l 138 191 l 146 191 q 130 205 141 201 z m 226 166 l 226 166 l 226 163 l 229 163 q 251 174 230 174 l 251 174 l 251 185 q 226 166 226 177 z m 157 180 l 152 174 l 157 174 l 163 180 l 157 180 z m 271 169 l 262 169 l 259 157 l 268 157 l 271 169 z m 171 141 l 168 141 l 168 136 q 160 130 160 136 l 160 130 l 168 130 l 171 138 l 171 141 z m 146 130 l 140 124 l 149 124 l 155 130 l 146 130 z m 184 80 l 171 72 l 171 69 l 176 69 q 184 75 176 75 l 184 75 l 184 80 z m 201 80 l 201 80 l 201 77 l 207 69 l 207 64 q 195 56 207 56 l 195 56 l 195 53 l 210 53 l 212 66 q 201 80 207 79 z m 157 69 l 149 69 l 149 64 l 152 64 l 157 69 z m 179 41 l 165 41 l 171 36 l 179 36 l 179 41 z m 152 31 l 140 25 l 146 17 l 155 20 l 152 31 z m 235 25 l 226 25 l 226 20 l 235 20 l 235 25 z m 273 349 l 279 349 l 279 321 l 273 321 l 273 326 l 271 346 l 273 349 z m 104 262 l 104 265 q 119 249 119 264 l 119 249 q 107 235 107 243 l 107 235 l 102 235 l 102 260 l 104 262 z m 854 1153 l 0 1153 l 0 -280 l 854 -280 l 854 1153 z "}}}
